SplineFontDB: 3.0
FontName: Dhyana-Bold
FullName: Dhyana Bold
FamilyName: Dhyana
Weight: Bold
Copyright: Copyright (c) 2010-12, Vernon Adams (vern@newtypography.co.uk), with Reserved Font Names "Nobile" and "Dhyana"
Version: 1.003
ItalicAngle: 0
UnderlinePosition: -188
UnderlineWidth: 48
Ascent: 1638
Descent: 410
sfntRevision: 0x00010000
LayerCount: 2
Layer: 0 0 "Back"  1
Layer: 1 0 "Fore"  0
NeedsXUIDChange: 1
XUID: [1021 332 469972825 9070266]
FSType: 0
OS2Version: 2
OS2_WeightWidthSlopeOnly: 0
OS2_UseTypoMetrics: 1
CreationTime: 1283209859
ModificationTime: 1333437686
PfmFamily: 17
TTFWeight: 700
TTFWidth: 5
LineGap: 0
VLineGap: 0
Panose: 2 0 8 3 5 0 0 2 0 4
OS2TypoAscent: 2537
OS2TypoAOffset: 0
OS2TypoDescent: -766
OS2TypoDOffset: 0
OS2TypoLinegap: 0
OS2WinAscent: 2537
OS2WinAOffset: 0
OS2WinDescent: 766
OS2WinDOffset: 0
HheadAscent: 2537
HheadAOffset: 0
HheadDescent: -766
HheadDOffset: 0
OS2SubXSize: 1331
OS2SubYSize: 1433
OS2SubXOff: 0
OS2SubYOff: 286
OS2SupXSize: 1331
OS2SupYSize: 1433
OS2SupXOff: 0
OS2SupYOff: 983
OS2StrikeYSize: 102
OS2StrikeYPos: 512
OS2Vendor: 'PfEd'
OS2CodePages: 00000001.00000000
OS2UnicodeRanges: 8200006f.1000200a.00000000.00000000
Lookup: 1 0 0 "'liga' Standard Ligatures lookup 0"  {"'liga' Standard Ligatures lookup 0 subtable"  } ['liga' ('lao ' <'dflt' > 'latn' <'dflt' > ) ]
Lookup: 4 0 1 "'liga' Standard Ligatures lookup 1"  {"'liga' Standard Ligatures lookup 1 subtable"  } ['liga' ('lao ' <'dflt' > 'latn' <'dflt' > ) ]
Lookup: 2 0 0 "ccmpGlyphCompositionDecompositi"  {"ccmpGlyphCompositionDecompositi subtable"  } ['ccmp' ('lao ' <'dflt' > ) ]
Lookup: 258 0 0 "'kern' Horizontal Kerning in Latin lookup 0"  {"'kern' Horizontal Kerning in Latin lookup 0 subtable"  } ['kern' ('latn' <'dflt' > ) ]
MarkAttachClasses: 1
DEI: 91125
TtTable: prep
PUSHW_1
 511
SCANCTRL
PUSHB_1
 1
SCANTYPE
SVTCA[y-axis]
MPPEM
PUSHB_1
 8
LT
IF
PUSHB_2
 1
 1
INSTCTRL
EIF
PUSHB_2
 70
 6
CALL
IF
POP
PUSHB_1
 16
EIF
MPPEM
PUSHB_1
 20
GT
IF
POP
PUSHB_1
 128
EIF

StartChar: .notdef
Encoding: 65536 -1 0
Width: 761
Flags: W
HStem: 0 69<138 554> 1320 70<138 554>
VStem: 69 69<69 1320> 554 69<69 1320>
LayerCount: 2
Fore
SplineSet
554 69 m 1
 554 1320 l 1
 138 1320 l 1
 138 69 l 1
 554 69 l 1
69 1390 m 1
 623 1390 l 1
 623 0 l 1
 69 0 l 1
 69 1390 l 1
EndSplineSet
EndChar

StartChar: exclam
Encoding: 33 33 6
Width: 768
GlyphClass: 2
Flags: W
HStem: -7 320<278.319 525> 1587 20G<228 557>
VStem: 243 317<27.8325 276.75> 297 194<464 701.479>
LayerCount: 2
Fore
SplineSet
560 161 m 0xe0
 560 54 517 -7 409 -7 c 0
 358 -7 314 4 276 26 c 1
 254 65 243 110 243 161 c 0
 243 267 302 313 409 313 c 0
 511 313 560 264 560 161 c 0xe0
491 464 m 1xd0
 297 464 l 1
 228 1607 l 1
 557 1607 l 1
 491 464 l 1xd0
EndSplineSet
EndChar

StartChar: quotedbl
Encoding: 34 34 7
Width: 897
GlyphClass: 2
Flags: W
HStem: 1587 20G<62 416 520 874>
VStem: 139 178<920 1041.86> 597 178<920 1042.29>
LayerCount: 2
Fore
SplineSet
874 1607 m 1
 846 1373 808 1149 775 920 c 1
 597 920 l 1
 531 1483 l 1
 520 1607 l 1
 874 1607 l 1
416 1607 m 1
 388 1373 350 1149 317 920 c 1
 139 920 l 1
 71 1498 l 1
 62 1607 l 1
 416 1607 l 1
EndSplineSet
EndChar

StartChar: numbersign
Encoding: 35 35 8
Width: 1278
GlyphClass: 2
Flags: W
HStem: 490 143<174 340 553 736 948 1146> 874 145<185 384 599 778 996 1155>
LayerCount: 2
Fore
SplineSet
749 633 m 1
 778 874 l 1
 584 874 l 1
 553 633 l 1
 749 633 l 1
537 490 m 1
 484 118 l 1
 287 118 l 1
 340 490 l 1
 174 490 l 1
 174 633 l 1
 354 633 l 1
 384 874 l 1
 185 874 l 1
 185 1019 l 1
 403 1019 l 1
 452 1395 l 1
 646 1395 l 1
 599 1019 l 1
 801 1019 l 1
 845 1395 l 1
 1043 1395 l 1
 996 1019 l 1
 1155 1019 l 1
 1155 874 l 1
 979 874 l 1
 948 633 l 1
 1146 633 l 1
 1146 490 l 1
 931 490 l 1
 881 118 l 1
 684 118 l 1
 736 490 l 1
 537 490 l 1
EndSplineSet
EndChar

StartChar: dollar
Encoding: 36 36 9
Width: 1306
GlyphClass: 2
Flags: W
HStem: -30 230<365.384 604 713 814.16> 1256 228<426.443 604 713 939.295> 1594 20G<604 713>
VStem: 100 272<1003.1 1206.89> 604 109<-162 -30 209 609 921 1253 1484 1614> 908 275<280.995 523.297>
LayerCount: 2
Fore
SplineSet
713 209 m 1
 820 222 908 286 908 402 c 0
 908 535 810 570 713 609 c 1
 713 209 l 1
604 1256 m 1
 468 1254 372 1222 372 1096 c 0
 372 983 510 953 604 921 c 1
 604 1256 l 1
100 1093 m 0
 100 1391 315 1476 604 1484 c 1
 604 1614 l 1
 713 1614 l 1
 713 1479 l 1
 861 1470 1016 1440 1118 1384 c 1
 1050 1175 l 1
 1011 1189 971 1202 932 1214 c 1
 871 1231 786 1253 713 1253 c 1
 713 884 l 1
 932 803 1183 715 1183 436 c 0
 1183 133 995 -7 713 -28 c 1
 713 -162 l 1
 604 -162 l 1
 604 -30 l 1
 424 -30 280 31 147 86 c 1
 207 307 l 1
 317 258 453 200 604 200 c 1
 604 648 l 1
 378 731 100 797 100 1093 c 0
EndSplineSet
EndChar

StartChar: percent
Encoding: 37 37 10
Width: 1724
GlyphClass: 2
Flags: W
HStem: -33 21G<566.805 618.51> 12 162<1276.63 1501.39> 625 163<272.354 498.886> 749 167<1280.58 1503.17> 1362 168<278.104 500.334>
VStem: 29 184<850.93 1295.35> 562 190<851.527 1295.57> 1032 184<237.622 682.177> 1565 189<238.065 682.901>
LayerCount: 2
Fore
SplineSet
1216 457 m 0xdf80
 1216 303 1241 174 1390 174 c 256
 1539 174 1565 303 1565 457 c 0
 1565 620 1535 749 1390 749 c 0
 1244 749 1216 621 1216 457 c 0xdf80
1754 451 m 0
 1754 207 1639 12 1393 12 c 256
 1145 12 1032 205 1032 451 c 0
 1032 727 1136 916 1393 916 c 0
 1655 916 1754 731 1754 451 c 0
213 1070 m 0
 213 916 238 788 387 788 c 256xef80
 536 788 562 917 562 1070 c 0
 562 1233 532 1362 387 1362 c 256
 242 1362 213 1233 213 1070 c 0
752 1064 m 0
 752 820 637 625 391 625 c 256
 143 625 29 818 29 1064 c 0
 29 1341 133 1530 391 1530 c 0
 651 1530 752 1342 752 1064 c 0
1136 1527 m 1
 1308 1437 l 1
 609 -33 l 1
 436 49 l 1
 1136 1527 l 1
EndSplineSet
EndChar

StartChar: ampersand
Encoding: 38 38 11
Width: 1740
GlyphClass: 2
Flags: W
HStem: -40 220<547.49 1083.37> -36 21G<1572.21 1612.23> 1381 193<595.778 909.775>
VStem: 150 266<293.605 603.306> 295 251<1086.34 1330.99> 966 226<1095.72 1325.62> 1276 242<497.466 875>
LayerCount: 2
Fore
SplineSet
675 728 m 1xb6
 534 694 416 624 416 451 c 0
 416 251 560 180 780 180 c 0
 942 180 1128 204 1186 302 c 1
 675 728 l 1xb6
1364 159 m 1
 1260 12 1049 -40 780 -40 c 0
 429 -40 150 79 150 427 c 0xb6
 150 695 312 809 507 883 c 1
 410 943 295 1073 295 1229 c 0
 295 1467 507 1574 749 1574 c 0
 988 1574 1192 1467 1192 1233 c 0
 1192 1006 1057 886 873 823 c 1
 1270 495 l 1
 1275 573 1276 670 1276 753 c 0
 1276 794 1275 840 1275 875 c 1
 1518 875 l 1
 1518 714 1504 543 1480 400 c 1
 1467 332 l 1
 1721 118 l 1
 1596 -36 l 1x6e
 1364 159 l 1
710 982 m 1
 822 1013 966 1069 966 1211 c 0
 966 1331 879 1381 755 1381 c 0
 616 1381 546 1325 546 1214 c 0x2e
 546 1105 637 1022 710 982 c 1
EndSplineSet
EndChar

StartChar: quotesingle
Encoding: 39 39 12
Width: 625
GlyphClass: 2
Flags: W
HStem: 1587 20G<136 489>
VStem: 212 179<920 1041.86>
LayerCount: 2
Fore
SplineSet
489 1607 m 1
 463 1372 423 1150 391 920 c 1
 212 920 l 1
 144 1498 l 1
 136 1607 l 1
 489 1607 l 1
EndSplineSet
EndChar

StartChar: parenleft
Encoding: 40 40 13
Width: 859
GlyphClass: 2
Flags: W
HStem: 1655 20G<506 650.725>
VStem: 203 271<349.153 1048.9>
LayerCount: 2
Fore
SplineSet
641 -270 m 1
 384 -84 203 251 203 698 c 0
 203 1145 378 1486 634 1675 c 1
 777 1504 l 1
 596 1335 474 1049 474 698 c 256
 474 349 590 67 773 -97 c 1
 641 -270 l 1
EndSplineSet
EndChar

StartChar: parenright
Encoding: 41 41 14
Width: 857
GlyphClass: 2
Flags: W
HStem: 1657 20G<215.74 359>
VStem: 398 272<357.557 1058.01>
LayerCount: 2
Fore
SplineSet
231 1677 m 1
 487 1488 670 1159 670 713 c 0
 670 258 493 -77 233 -270 c 1
 95 -98 l 1
 277 68 398 359 398 707 c 0
 398 1057 279 1336 99 1504 c 1
 231 1677 l 1
EndSplineSet
EndChar

StartChar: asterisk
Encoding: 42 42 15
Width: 998
GlyphClass: 2
Flags: W
HStem: 1134 157<44 333 634 911>
LayerCount: 2
Fore
SplineSet
617 1640 m 1
 778 1546 l 1
 631 1291 l 1
 911 1291 l 1
 911 1134 l 1
 634 1134 l 1
 785 883 l 1
 622 787 l 1
 483 1033 l 1
 344 788 l 1
 182 883 l 1
 333 1134 l 1
 44 1134 l 1
 44 1291 l 1
 336 1291 l 1
 188 1548 l 1
 349 1639 l 1
 481 1392 l 1
 617 1640 l 1
EndSplineSet
EndChar

StartChar: plus
Encoding: 43 43 16
Width: 1074
GlyphClass: 2
Flags: W
HStem: 485 220<137 434 668 966>
VStem: 434 234<130 485 705 1059>
LayerCount: 2
Fore
SplineSet
668 485 m 1
 668 130 l 1
 434 130 l 1
 434 485 l 1
 137 485 l 1
 137 705 l 1
 434 705 l 1
 434 1059 l 1
 668 1059 l 1
 668 705 l 1
 966 705 l 1
 966 485 l 1
 668 485 l 1
EndSplineSet
EndChar

StartChar: comma
Encoding: 44 44 17
Width: 661
GlyphClass: 2
Flags: W
HStem: -291 108<199.23 244.047>
VStem: 154 362<3.64709 373> 316 200<-119.089 0>
LayerCount: 2
Fore
SplineSet
154 373 m 1xc0
 516 373 l 1
 516 51 l 2xc0
 516 -161 370 -243 206 -291 c 1
 155 -183 l 1
 244 -151 316 -117 316 0 c 1xa0
 154 0 l 1
 154 373 l 1xc0
EndSplineSet
EndChar

StartChar: hyphen
Encoding: 45 45 18
Width: 1078
GlyphClass: 2
Flags: W
HStem: 558 225<159 920>
LayerCount: 2
Fore
SplineSet
159 558 m 1
 159 783 l 1
 920 783 l 1
 920 558 l 1
 159 558 l 1
EndSplineSet
EndChar

StartChar: period
Encoding: 46 46 19
Width: 714
GlyphClass: 2
Flags: W
HStem: 0 373<176 539>
VStem: 176 363<0 373>
LayerCount: 2
Fore
SplineSet
176 373 m 1
 539 373 l 1
 539 0 l 1
 176 0 l 1
 176 373 l 1
EndSplineSet
EndChar

StartChar: slash
Encoding: 47 47 20
Width: 982
GlyphClass: 2
Flags: W
LayerCount: 2
Fore
SplineSet
733 1723 m 1
 974 1643 l 1
 368 -162 l 1
 130 -84 l 1
 733 1723 l 1
EndSplineSet
EndChar

StartChar: zero
Encoding: 48 48 21
Width: 1443
GlyphClass: 2
Flags: W
HStem: -29 218<550.429 887.492> 1012 217<551.329 886.471>
VStem: 131 278<354.701 848.465> 1035 275<355.561 845.64>
LayerCount: 2
Fore
SplineSet
409 603 m 256
 409 369 484 189 719 189 c 0
 955 189 1035 372 1035 609 c 0
 1035 837 949 1012 719 1012 c 0
 489 1012 409 833 409 603 c 256
131 602 m 0
 131 986 332 1229 718 1229 c 0
 1104 1229 1310 984 1310 602 c 0
 1310 217 1104 -29 717 -29 c 0
 335 -29 131 219 131 602 c 0
EndSplineSet
EndChar

StartChar: one
Encoding: 49 49 22
Width: 861
GlyphClass: 2
Flags: W
HStem: 0 21G<346 636> 1184 20G<321 636>
VStem: 346 290<0 974>
LayerCount: 2
Fore
SplineSet
346 974 m 1
 167 893 l 1
 87 1090 l 1
 165 1123 242 1156 321 1188 c 1
 424 1204 l 1
 636 1204 l 1
 636 0 l 1
 346 0 l 1
 346 974 l 1
EndSplineSet
EndChar

StartChar: two
Encoding: 50 50 23
Width: 1167
GlyphClass: 2
Flags: W
HStem: 0 226<541 1009> 998 217<339.772 703.408>
VStem: 758 271<682.579 943.29>
LayerCount: 2
Fore
SplineSet
575 1215 m 0
 829 1215 1029 1104 1029 853 c 0
 1029 624 875 508 742 395 c 2
 541 226 l 1
 1009 226 l 1
 1009 0 l 1
 153 0 l 1
 153 193 l 1
 578 548 l 1
 666 620 758 694 758 824 c 0
 758 940 689 998 552 998 c 0
 431 998 321 950 237 907 c 1
 159 1101 l 1
 261 1160 413 1215 575 1215 c 0
EndSplineSet
EndChar

StartChar: three
Encoding: 51 51 24
Width: 1183
GlyphClass: 2
Flags: W
HStem: -188 215<272.624 688.315> 451 209<438 630.825> 1006 219<308.558 684.113>
VStem: 733 257<735.909 959.126> 756 272<91.4711 347.346>
LayerCount: 2
Fore
SplineSet
438 660 m 1xe8
 587 660 733 702 733 850 c 0
 733 969 641 1006 515 1006 c 0
 401 1006 305 955 220 934 c 1
 132 1130 l 1
 227 1177 356 1225 502 1225 c 0
 777 1225 990 1128 990 852 c 0xf0
 990 693 886 578 751 556 c 1
 901 519 1028 403 1028 214 c 0
 1028 -67 803 -188 521 -188 c 0
 369 -188 228 -157 128 -107 c 1
 201 101 l 1
 279 62 398 27 516 27 c 0
 666 27 756 77 756 221 c 0
 756 386 597 442 438 451 c 1
 438 660 l 1xe8
EndSplineSet
EndChar

StartChar: four
Encoding: 52 52 25
Width: 1271
GlyphClass: 2
Flags: W
HStem: 64 212<363 733 979 1164>
VStem: 733 246<-238 64 279 825>
LayerCount: 2
Fore
SplineSet
733 276 m 1
 733 825 l 1
 363 276 l 1
 733 276 l 1
979 1179 m 1
 979 279 l 1
 1164 279 l 1
 1164 64 l 1
 979 64 l 1
 979 -238 l 1
 733 -238 l 1
 733 64 l 1
 120 64 l 1
 83 243 l 1
 758 1236 l 1
 979 1179 l 1
EndSplineSet
EndChar

StartChar: five
Encoding: 53 53 26
Width: 1168
GlyphClass: 2
Flags: W
HStem: -196 227<272.695 708.573> 532 205<418.911 712.277> 978 212<401 966>
VStem: 169 232<681 978> 800 253<116.107 442.679>
LayerCount: 2
Fore
SplineSet
1053 269 m 0
 1053 -28 845 -196 547 -196 c 0
 387 -196 248 -154 136 -102 c 1
 182 112 l 1
 275 67 398 31 534 31 c 0
 704 31 800 103 800 270 c 0
 800 438 722 532 557 532 c 0
 454 532 370 491 295 446 c 1
 169 554 l 1
 169 1190 l 1
 966 1190 l 1
 966 978 l 1
 401 978 l 1
 401 681 l 1
 445 713 505 737 585 737 c 0
 878 737 1053 562 1053 269 c 0
EndSplineSet
EndChar

StartChar: six
Encoding: 54 54 27
Width: 1258
GlyphClass: 2
Flags: W
HStem: -124 217<503.751 796.871> 647 210<484.93 819.446> 1347 20G<665.5 883.063>
VStem: 113 273<228.891 548.76> 901 265<202.136 562.301>
LayerCount: 2
Fore
SplineSet
677 857 m 0
 968 857 1166 662 1166 373 c 0
 1166 65 966 -124 656 -124 c 0
 308 -124 113 105 113 452 c 0
 113 984 454 1259 877 1367 c 1
 944 1146 l 1
 722 1100 538 992 457 804 c 1
 520 833 588 857 677 857 c 0
901 402 m 0
 901 555 825 647 673 647 c 0
 551 647 450 596 388 534 c 1
 386 505 386 476 386 443 c 0
 389 244 452 93 655 93 c 0
 832 93 901 227 901 402 c 0
EndSplineSet
EndChar

StartChar: seven
Encoding: 55 55 28
Width: 1149
GlyphClass: 2
Flags: W
HStem: 992 222<138 758>
LayerCount: 2
Fore
SplineSet
1089 1054 m 1
 497 -216 l 1
 246 -104 l 1
 758 992 l 1
 138 992 l 1
 138 1214 l 1
 1015 1214 l 1
 1089 1054 l 1
EndSplineSet
EndChar

StartChar: eight
Encoding: 56 56 29
Width: 1312
GlyphClass: 2
Flags: W
HStem: -138 219<483.353 827.08> 545 198<512.742 799.08> 1140 211<490.853 819.408>
VStem: 149 270<143.274 447.688> 166 264<820.326 1080.01> 882 264<818.519 1080.82> 892 271<142.365 450.265>
LayerCount: 2
Fore
SplineSet
659 743 m 0xec
 795 743 882 820 882 956 c 0
 882 1089 792 1140 659 1140 c 0
 525 1140 430 1090 430 956 c 256
 430 818 521 743 659 743 c 0xec
659 81 m 0
 812 81 892 133 892 285 c 0
 892 437 810 545 659 545 c 0
 506 545 419 439 419 286 c 0xf2
 419 134 500 81 659 81 c 0
659 1351 m 0
 927 1351 1146 1230 1146 965 c 0xec
 1146 782 1028 667 879 632 c 1
 1045 596 1163 464 1163 262 c 0
 1163 -18 939 -138 659 -138 c 0
 377 -138 149 -18 149 264 c 0xf2
 149 463 267 599 433 632 c 1
 285 668 166 782 166 966 c 0xe8
 166 1232 391 1351 659 1351 c 0
EndSplineSet
EndChar

StartChar: nine
Encoding: 57 57 30
Width: 1285
GlyphClass: 2
Flags: W
HStem: 297 208<471.493 804.657> 1042 218<480.873 789.434>
VStem: 118 266<595.654 944.867> 902 270<569.17 913.396>
LayerCount: 2
Fore
SplineSet
829 355 m 1
 774 321 696 297 607 297 c 0
 309 297 118 468 118 765 c 0
 118 1065 317 1260 620 1260 c 0
 978 1260 1172 1043 1172 684 c 0
 1172 170 823 -137 406 -231 c 1
 341 -9 l 1
 565 37 756 158 829 355 c 1
634 1042 m 0
 454 1042 384 930 384 752 c 0
 384 607 461 505 605 505 c 0
 699 505 834 527 891 569 c 1
 895 612 900 656 902 703 c 1
 899 896 832 1042 634 1042 c 0
EndSplineSet
EndChar

StartChar: colon
Encoding: 58 58 31
Width: 701
GlyphClass: 2
Flags: W
HStem: 0 379<190 556> 688 379<190 556>
VStem: 190 366<0 379 688 1067>
LayerCount: 2
Fore
SplineSet
190 379 m 1
 556 379 l 1
 556 0 l 1
 190 0 l 1
 190 379 l 1
190 1067 m 1
 556 1067 l 1
 556 688 l 1
 190 688 l 1
 190 1067 l 1
EndSplineSet
EndChar

StartChar: semicolon
Encoding: 59 59 32
Width: 692
GlyphClass: 2
Flags: W
HStem: -291 108<233.23 278.047> 688 379<186 549>
VStem: 186 363<3.64709 373 688 1067> 350 200<-119.089 0>
LayerCount: 2
Fore
SplineSet
186 1067 m 1xe0
 549 1067 l 1
 549 688 l 1
 186 688 l 1
 186 1067 l 1xe0
188 373 m 1
 550 373 l 1
 550 51 l 2
 550 -161 404 -243 240 -291 c 1
 189 -183 l 1
 278 -151 350 -117 350 0 c 1xd0
 188 0 l 1
 188 373 l 1
EndSplineSet
EndChar

StartChar: less
Encoding: 60 60 33
Width: 1238
GlyphClass: 2
Flags: W
HStem: 1 21G<932.007 963.293>
LayerCount: 2
Fore
SplineSet
216 739 m 1
 960 1264 l 1
 1001 1015 l 1
 444 632 l 1
 1001 250 l 1
 960 1 l 1
 179 559 l 1
 216 739 l 1
EndSplineSet
EndChar

StartChar: equal
Encoding: 61 61 34
Width: 1112
GlyphClass: 2
Flags: W
HStem: 278 197<162 951> 601 196<162 951>
LayerCount: 2
Fore
SplineSet
162 278 m 1
 162 475 l 1
 951 475 l 1
 951 278 l 1
 162 278 l 1
162 601 m 1
 162 797 l 1
 951 797 l 1
 951 601 l 1
 162 601 l 1
EndSplineSet
EndChar

StartChar: greater
Encoding: 62 62 35
Width: 1217
GlyphClass: 2
Flags: W
HStem: 1 21G<285.784 316.993>
LayerCount: 2
Fore
SplineSet
289 1 m 1
 248 256 l 1
 800 632 l 1
 247 1009 l 1
 288 1264 l 1
 1026 745 l 1
 1070 559 l 1
 289 1 l 1
EndSplineSet
EndChar

StartChar: question
Encoding: 63 63 36
Width: 1148
GlyphClass: 2
Flags: W
HStem: -43 328<310.846 506.711> 1359 234<214.957 692.596>
VStem: 252 314<16.0579 223.046> 264 270<378 696.845> 758 285<1048.64 1299.32>
LayerCount: 2
Fore
SplineSet
369 -43 m 1xe8
 299 -13 252 66 252 165 c 1
 280 234 353 285 449 285 c 1
 518 255 566 176 566 77 c 1
 539 8 465 -43 369 -43 c 1xe8
264 823 m 1xd8
 445 883 758 952 758 1178 c 0
 758 1330 638 1359 486 1359 c 0
 428 1359 140 1313 140 1280 c 1
 65 1495 l 1
 180 1553 330 1593 505 1593 c 0
 799 1593 1043 1492 1043 1199 c 0
 1043 899 779 760 534 686 c 1
 534 378 l 1
 264 378 l 1
 264 823 l 1xd8
EndSplineSet
EndChar

StartChar: at
Encoding: 64 64 37
Width: 1982
GlyphClass: 2
Flags: W
HStem: -144 196<721.267 1255.56> 239 173<790.634 1057.05 1390.17 1513.06> 1013 158<898.295 1250.02> 1325 204<778.309 1317.31>
VStem: 134 237<387.92 893.571> 519 214<469.619 834.616> 1254 186<768.462 994.083> 1254 134<415.06 545> 1643 230<547.938 1018.8>
LayerCount: 2
Fore
SplineSet
1446 -19 m 1xfd80
 1341 -103 1177 -144 989 -144 c 0
 481 -144 134 126 134 628 c 0
 134 1170 503 1529 1049 1529 c 0
 1520 1529 1873 1268 1873 797 c 0
 1873 478 1723 247 1400 247 c 0
 1293 247 1254 314 1254 420 c 2
 1254 482 l 2xfd80
 1254 503 1255 524 1256 545 c 1
 1205 376 1114 239 895 239 c 0
 659 239 519 405 519 643 c 0
 519 950 758 1171 1065 1171 c 0
 1243 1171 1417 1140 1440 987 c 1xfe80
 1440 957 1439 931 1438 903 c 1
 1388 415 l 1
 1574 435 1643 557 1643 772 c 0
 1643 1147 1408 1325 1036 1325 c 0
 621 1325 371 1045 371 628 c 0
 371 235 623 52 1018 52 c 0
 1168 52 1269 100 1376 146 c 1
 1446 -19 l 1xfd80
1254 993 m 1xfe80
 1201 1002 1139 1013 1075 1013 c 0
 850 1013 733 851 733 622 c 0
 733 503 788 412 906 412 c 0
 1178 412 1236 733 1254 993 c 1xfe80
EndSplineSet
EndChar

StartChar: A
Encoding: 65 65 38
Width: 1513
GlyphClass: 2
Flags: W
HStem: 0 21G<43 357.341 1155.6 1469> 369 147<509 1004> 1587 20G<564.429 943.621>
LayerCount: 2
Fore
SplineSet
937 1607 m 1
 1469 0 l 1
 1162 0 l 1
 1044 369 l 1
 468 369 l 1
 351 0 l 1
 43 0 l 1
 571 1607 l 1
 937 1607 l 1
509 516 m 1
 1004 516 l 1
 760 1285 l 1
 509 516 l 1
EndSplineSet
EndChar

StartChar: B
Encoding: 66 66 39
Width: 1441
GlyphClass: 2
Flags: W
HStem: 0 202<462 944.512> 749 191<462 909.802> 1405 202<462 917.735>
VStem: 156 306<202 749 940 1405> 1023 268<1037.56 1312.91> 1060 298<309.024 636.101>
LayerCount: 2
Fore
SplineSet
1358 453 m 0xf4
 1358 68 1044 0 656 0 c 2
 156 0 l 1
 156 1607 l 1
 558 1607 l 2
 917 1607 1291 1557 1291 1205 c 0xf8
 1291 981 1149 883 949 859 c 1
 1192 827 1358 729 1358 453 c 0xf4
1060 470 m 0xf4
 1060 710 894 749 651 749 c 2
 462 749 l 1
 462 202 l 1
 625 202 l 2
 878 202 1060 220 1060 470 c 0xf4
1023 1186 m 0xf8
 1023 1387 826 1405 617 1405 c 2
 462 1405 l 1
 462 940 l 1
 651 940 l 2
 862 940 1023 980 1023 1186 c 0xf8
EndSplineSet
EndChar

StartChar: C
Encoding: 67 67 40
Width: 1319
GlyphClass: 2
Flags: W
HStem: -34 225<633.996 1059.42> 1411 225<632.771 1071.84>
VStem: 105 307<461.348 1132.58>
LayerCount: 2
Fore
SplineSet
823 1411 m 0
 494 1411 412 1126 412 790 c 0
 412 451 509 191 823 191 c 0
 970 191 1099 241 1186 302 c 1
 1270 86 l 1
 1174 7 978 -34 801 -34 c 0
 315 -34 105 305 105 796 c 0
 105 1279 321 1636 804 1636 c 0
 978 1636 1155 1603 1259 1531 c 1
 1179 1312 l 1
 1090 1370 970 1411 823 1411 c 0
EndSplineSet
EndChar

StartChar: D
Encoding: 68 68 41
Width: 1557
GlyphClass: 2
Flags: W
HStem: 0 202<462 887.605> 1405 202<462 901.109>
VStem: 157 305<202 1405> 1142 310<491.743 1132.62>
LayerCount: 2
Fore
SplineSet
661 202 m 2
 1021 202 1142 439 1142 801 c 0
 1142 1173 1042 1405 671 1405 c 2
 462 1405 l 1
 462 202 l 1
 661 202 l 2
676 1607 m 2
 1204 1607 1452 1337 1452 801 c 0
 1452 281 1207 0 683 0 c 2
 157 0 l 1
 157 1607 l 1
 676 1607 l 2
EndSplineSet
EndChar

StartChar: E
Encoding: 69 69 42
Width: 1281
GlyphClass: 2
Flags: W
HStem: 0 199<461 1216> 745 186<461 1110> 1405 202<461 1205>
VStem: 156 305<199 745 931 1405>
LayerCount: 2
Fore
SplineSet
156 0 m 1
 156 1607 l 1
 1205 1607 l 1
 1205 1405 l 1
 461 1405 l 1
 461 931 l 1
 1110 931 l 1
 1110 745 l 1
 461 745 l 1
 461 199 l 1
 1216 199 l 1
 1216 0 l 1
 156 0 l 1
EndSplineSet
EndChar

StartChar: F
Encoding: 70 70 43
Width: 1219
GlyphClass: 2
Flags: W
HStem: 0 21G<156 461> 739 186<461 1114> 1405 202<461 1192>
VStem: 156 305<0 739 925 1405>
LayerCount: 2
Fore
SplineSet
461 0 m 1
 156 0 l 1
 156 1607 l 1
 1192 1607 l 1
 1192 1405 l 1
 461 1405 l 1
 461 925 l 1
 1114 925 l 1
 1114 739 l 1
 461 739 l 1
 461 0 l 1
EndSplineSet
EndChar

StartChar: G
Encoding: 71 71 44
Width: 1561
GlyphClass: 2
Flags: W
HStem: -34 225<626.882 1026.53> 0 21G<1231.74 1420> 679 188<764 1150> 1411 225<653.89 1090.42>
VStem: 105 308<461.363 1118.15> 1150 270<282.209 679>
LayerCount: 2
Fore
SplineSet
804 191 m 0xbc
 967 191 1101 233 1150 347 c 1
 1150 679 l 1
 764 679 l 1
 764 867 l 1
 1420 867 l 1
 1420 0 l 1
 1238 0 l 1x7c
 1187 163 l 1
 1134 25 970 -34 777 -34 c 0
 307 -34 105 314 105 790 c 0
 105 1302 342 1636 850 1636 c 0
 1051 1636 1209 1587 1325 1504 c 1
 1233 1298 l 1
 1131 1357 1008 1411 850 1411 c 0
 527 1411 413 1145 413 791 c 0
 413 475 493 191 804 191 c 0xbc
EndSplineSet
EndChar

StartChar: H
Encoding: 72 72 45
Width: 1601
GlyphClass: 2
Flags: W
HStem: 0 21G<156 462 1139 1444> 741 185<462 1139> 1587 20G<156 462 1139 1444>
VStem: 156 306<0 741 926 1607> 1139 305<0 741 926 1607>
LayerCount: 2
Fore
SplineSet
1139 741 m 1
 462 741 l 1
 462 0 l 1
 156 0 l 1
 156 1607 l 1
 462 1607 l 1
 462 926 l 1
 1139 926 l 1
 1139 1607 l 1
 1444 1607 l 1
 1444 0 l 1
 1139 0 l 1
 1139 741 l 1
EndSplineSet
EndChar

StartChar: I
Encoding: 73 73 46
Width: 846
GlyphClass: 2
Flags: W
HStem: 0 150<87 273 574 763> 1454 153<87 273 574 763>
VStem: 273 301<150 1454>
LayerCount: 2
Fore
SplineSet
273 150 m 1
 273 1454 l 1
 87 1454 l 1
 87 1607 l 1
 763 1607 l 1
 763 1454 l 1
 574 1454 l 1
 574 150 l 1
 763 150 l 1
 763 0 l 1
 87 0 l 1
 87 150 l 1
 273 150 l 1
EndSplineSet
EndChar

StartChar: J
Encoding: 74 74 47
Width: 826
GlyphClass: 2
Flags: W
HStem: -89 198<111.352 198.498> 1587 20G<365 670>
VStem: 365 305<269.647 1607>
LayerCount: 2
Fore
SplineSet
39 109 m 1
 278 147 365 228 365 504 c 2
 365 1607 l 1
 670 1607 l 1
 670 519 l 2
 670 113 506 -69 117 -89 c 1
 39 109 l 1
EndSplineSet
EndChar

StartChar: K
Encoding: 75 75 48
Width: 1469
GlyphClass: 2
Flags: W
HStem: 0 21G<156 462 1092.58 1450> 713 182<462 593> 1587 20G<156 462 1053.91 1389>
VStem: 156 306<0 713 895 1607>
LayerCount: 2
Fore
SplineSet
462 0 m 1
 156 0 l 1
 156 1607 l 1
 462 1607 l 1
 462 895 l 1
 601 895 l 1
 1067 1607 l 1
 1389 1607 l 1
 843 809 l 1
 1450 0 l 1
 1107 0 l 1
 593 713 l 1
 462 713 l 1
 462 0 l 1
EndSplineSet
EndChar

StartChar: L
Encoding: 76 76 49
Width: 1216
GlyphClass: 2
Flags: W
HStem: 0 202<461 1181> 1587 20G<156 461>
VStem: 156 305<202 1607>
LayerCount: 2
Fore
SplineSet
156 0 m 1
 156 1607 l 1
 461 1607 l 1
 461 202 l 1
 1181 202 l 1
 1181 0 l 1
 156 0 l 1
EndSplineSet
EndChar

StartChar: M
Encoding: 77 77 50
Width: 1987
GlyphClass: 2
Flags: W
HStem: 0 21G<156 423 842.206 1146.76 1564 1831> 1587 20G<156 563.792 1423.07 1831>
VStem: 156 267<0 1254> 1564 267<0 1254>
LayerCount: 2
Fore
SplineSet
423 1254 m 1
 423 0 l 1
 156 0 l 1
 156 1607 l 1
 557 1607 l 1
 989 335 l 1
 1430 1607 l 1
 1831 1607 l 1
 1831 0 l 1
 1564 0 l 1
 1564 1254 l 1
 1140 0 l 1
 849 0 l 1
 423 1254 l 1
EndSplineSet
EndChar

StartChar: N
Encoding: 78 78 51
Width: 1651
GlyphClass: 2
Flags: W
HStem: 0 21G<156 436 1148.18 1495> 1587 20G<156 515.733 1215 1495>
VStem: 156 280<0 1225> 1215 280<395 1607>
LayerCount: 2
Fore
SplineSet
1160 0 m 1
 436 1225 l 1
 436 0 l 1
 156 0 l 1
 156 1607 l 1
 504 1607 l 1
 1215 395 l 1
 1215 1607 l 1
 1495 1607 l 1
 1495 0 l 1
 1160 0 l 1
EndSplineSet
EndChar

StartChar: O
Encoding: 79 79 52
Width: 1611
GlyphClass: 2
Flags: W
HStem: -35 227<624.577 985.502> 1411 224<627.709 984.928>
VStem: 104 309<452.535 1141.34> 1199 308<458.805 1147.35>
LayerCount: 2
Fore
SplineSet
805 1635 m 0
 1297 1635 1507 1305 1507 810 c 0
 1507 307 1310 -35 805 -35 c 0
 298 -35 104 312 104 819 c 0
 104 1309 318 1635 805 1635 c 0
808 1411 m 0
 486 1411 413 1126 413 798 c 0
 413 476 488 192 805 192 c 0
 1123 192 1199 474 1199 798 c 0
 1199 1123 1126 1411 808 1411 c 0
EndSplineSet
EndChar

StartChar: P
Encoding: 80 80 53
Width: 1391
GlyphClass: 2
Flags: W
HStem: 0 21G<156 462> 597 194<462 864.337> 1405 202<462 871.296>
VStem: 156 306<0 597 791 1405> 1030 307<923.981 1267.08>
LayerCount: 2
Fore
SplineSet
598 1607 m 2
 1013 1607 1333 1506 1337 1095 c 1
 1337 677 993 597 568 597 c 2
 462 597 l 1
 462 0 l 1
 156 0 l 1
 156 1607 l 1
 598 1607 l 2
1030 1083 m 0
 1030 1349 861 1405 596 1405 c 2
 462 1405 l 1
 462 791 l 1
 559 791 l 2
 812 791 1030 834 1030 1083 c 0
EndSplineSet
EndChar

StartChar: Q
Encoding: 81 81 54
Width: 1618
GlyphClass: 2
Flags: W
HStem: 1411 225<627.267 986.795>
VStem: 105 308<455.336 1144.83> 1205 308<457.365 1144.38>
LayerCount: 2
Fore
SplineSet
803 1636 m 0
 1305 1636 1513 1303 1513 797 c 0
 1513 358 1350 49 979 -18 c 1
 1309 -262 l 1
 1154 -429 l 1
 675 -24 l 1
 274 29 105 354 105 805 c 0
 105 1294 315 1636 803 1636 c 0
1205 801 m 256
 1205 1122 1129 1411 809 1411 c 0
 488 1411 413 1125 413 801 c 0
 413 476 487 191 809 191 c 0
 1130 191 1205 480 1205 801 c 256
EndSplineSet
EndChar

StartChar: R
Encoding: 82 82 55
Width: 1463
GlyphClass: 2
Flags: W
HStem: 0 21G<156 462 1046 1349> 711 189<462 884.416> 1405 202<462 923.707>
VStem: 156 306<0 711 900 1405> 1046 303<0 585.68 1040.19 1294.7>
LayerCount: 2
Fore
SplineSet
1034 1168 m 0
 1034 1395 827 1405 598 1405 c 2
 462 1405 l 1
 462 900 l 1
 608 900 l 2
 839 900 1034 943 1034 1168 c 0
1343 1201 m 0
 1343 924 1158 813 889 805 c 1
 1151 776 1349 683 1349 395 c 2
 1349 0 l 1
 1046 0 l 1
 1046 416 l 2
 1046 675 865 711 606 711 c 2
 462 711 l 1
 462 0 l 1
 156 0 l 1
 156 1607 l 1
 601 1607 l 2
 980 1607 1343 1564 1343 1201 c 0
EndSplineSet
EndChar

StartChar: S
Encoding: 83 83 56
Width: 1325
GlyphClass: 2
Flags: W
HStem: -34 225.216<423.108 872.122> 1411 225<454.547 949.628>
VStem: 85 287<1110.63 1339.29> 955 291<269.43 540.796>
LayerCount: 2
Fore
SplineSet
686 1411 m 0
 522 1411 372 1381 372 1218 c 0
 372 1117 445 1075 524 1047 c 1
 869 915 l 2
 1067 839 1246 714 1246 443 c 0
 1246 106 1003 -34 658 -34 c 0
 443 -34 268 28 127 104 c 1
 182 323 l 1
 273.593040742 279.763533563 511.151421772 191.216318477 698.951600521 191.216318477 c 0
 841.26196875 191.216318477 955 242.062224317 955 402 c 0
 955 535 875 597 767 637 c 1
 413 778 l 1
 242 845 85 962 85 1196 c 0
 85 1504 342 1636 650 1636 c 0
 861 1636 1045 1580 1175 1503 c 1
 1111 1295 l 1
 1009 1356 848 1411 686 1411 c 0
EndSplineSet
EndChar

StartChar: T
Encoding: 84 84 57
Width: 1214
GlyphClass: 2
Flags: W
HStem: 0 21G<455 761> 1405 202<19 455 761 1191>
VStem: 455 306<0 1405>
LayerCount: 2
Fore
SplineSet
761 1405 m 1
 761 0 l 1
 455 0 l 1
 455 1405 l 1
 19 1405 l 1
 19 1607 l 1
 1191 1607 l 1
 1191 1405 l 1
 761 1405 l 1
EndSplineSet
EndChar

StartChar: U
Encoding: 85 85 58
Width: 1589
GlyphClass: 2
Flags: W
HStem: -34 225<609.284 985.034> 1587 20G<140 446 1140 1446>
VStem: 140 306<373.712 1607> 1140 306<378.53 1607>
LayerCount: 2
Fore
SplineSet
446 729 m 2
 446 417 483 191 793 191 c 0
 1109 191 1140 412 1140 729 c 2
 1140 1607 l 1
 1446 1607 l 1
 1446 733 l 2
 1446 253 1275 -34 797 -34 c 0
 312 -34 140 248 140 733 c 2
 140 1607 l 1
 446 1607 l 1
 446 729 l 2
EndSplineSet
EndChar

StartChar: V
Encoding: 86 86 59
Width: 1413
GlyphClass: 2
Flags: W
HStem: 0 21G<538.752 874.248> 1587 20G<43 335.209 1075.91 1370>
LayerCount: 2
Fore
SplineSet
709 383 m 1
 1082 1607 l 1
 1370 1607 l 1
 868 0 l 1
 545 0 l 1
 43 1607 l 1
 329 1607 l 1
 709 383 l 1
EndSplineSet
EndChar

StartChar: W
Encoding: 87 87 60
Width: 2028
GlyphClass: 2
Flags: W
HStem: -2 21G<383.681 754.931 1257.31 1642.33> 1587 20G<41 339.997 833.144 1192.86 1686.99 1986>
LayerCount: 2
Fore
SplineSet
1189 1607 m 1
 1435 331 l 1
 1691 1607 l 1
 1986 1607 l 1
 1638 -2 l 1
 1261 -2 l 1
 1014 1338 l 1
 751 0 l 1
 388 0 l 1
 41 1607 l 1
 336 1607 l 1
 591 331 l 1
 837 1607 l 1
 1189 1607 l 1
EndSplineSet
EndChar

StartChar: X
Encoding: 88 88 61
Width: 1374
GlyphClass: 2
Flags: W
HStem: 0 21G<19 360.194 1013.81 1355> 1587 20G<20 347.18 1027.79 1354>
LayerCount: 2
Fore
SplineSet
1040 1607 m 1
 1354 1607 l 1
 858 805 l 1
 1355 0 l 1
 1026 0 l 1
 687 556 l 1
 348 0 l 1
 19 0 l 1
 516 805 l 1
 20 1607 l 1
 335 1607 l 1
 687 1029 l 1
 1040 1607 l 1
EndSplineSet
EndChar

StartChar: Y
Encoding: 89 89 62
Width: 1291
GlyphClass: 2
Flags: W
HStem: 0 21G<498 789> 1587 20G<-19 296.215 992.811 1310>
VStem: 498 291<0 514>
LayerCount: 2
Fore
SplineSet
1002 1607 m 1
 1310 1607 l 1
 789 514 l 1
 789 0 l 1
 498 0 l 1
 498 514 l 1
 -19 1607 l 1
 287 1607 l 1
 645 830 l 1
 1002 1607 l 1
EndSplineSet
EndChar

StartChar: Z
Encoding: 90 90 63
Width: 1250
GlyphClass: 2
Flags: W
HStem: 0 202<412 1176> 1405 202<78 843>
LayerCount: 2
Fore
SplineSet
1174 1405 m 1
 412 202 l 1
 1176 202 l 1
 1176 0 l 1
 78 0 l 1
 78 214 l 1
 843 1405 l 1
 78 1405 l 1
 78 1607 l 1
 1174 1607 l 1
 1174 1405 l 1
EndSplineSet
EndChar

StartChar: bracketleft
Encoding: 91 91 64
Width: 1137
GlyphClass: 2
Flags: W
HStem: 0 202<532 978> 1405 202<532 978>
VStem: 249 283<202 1405>
LayerCount: 2
Fore
SplineSet
978 1607 m 1
 978 1405 l 1
 532 1405 l 1
 532 202 l 1
 978 202 l 1
 978 0 l 1
 249 0 l 1
 249 1607 l 1
 978 1607 l 1
EndSplineSet
EndChar

StartChar: backslash
Encoding: 92 92 65
Width: 1142
GlyphClass: 2
Flags: W
LayerCount: 2
Fore
SplineSet
1013 -70 m 1
 751 -159 l 1
 149 1647 l 1
 411 1733 l 1
 1013 -70 l 1
EndSplineSet
EndChar

StartChar: bracketright
Encoding: 93 93 66
Width: 1161
GlyphClass: 2
Flags: W
HStem: 0 202<206 651> 1405 202<206 651>
VStem: 651 284<202 1405>
LayerCount: 2
Fore
SplineSet
935 1607 m 1
 935 0 l 1
 206 0 l 1
 206 202 l 1
 651 202 l 1
 651 1405 l 1
 206 1405 l 1
 206 1607 l 1
 935 1607 l 1
EndSplineSet
EndChar

StartChar: asciicircum
Encoding: 94 94 67
Width: 1331
GlyphClass: 2
Flags: W
HStem: 521 614
LayerCount: 2
Fore
SplineSet
763 1135 m 1
 1039 552 l 1
 819 521 l 1
 664 909 l 1
 510 521 l 1
 291 552 l 1
 568 1135 l 1
 763 1135 l 1
EndSplineSet
EndChar

StartChar: underscore
Encoding: 95 95 68
Width: 1204
GlyphClass: 2
Flags: W
HStem: -105 220<92 1084>
LayerCount: 2
Fore
SplineSet
92 -105 m 1
 92 115 l 1
 1084 115 l 1
 1084 -105 l 1
 92 -105 l 1
EndSplineSet
EndChar

StartChar: grave
Encoding: 96 96 69
Width: 844
GlyphClass: 2
Flags: W
VStem: 181 476
LayerCount: 2
Fore
SplineSet
181 776 m 1
 470 901 l 1
 657 275 l 1
 533 218 l 1
 181 776 l 1
EndSplineSet
EndChar

StartChar: a
Encoding: 97 97 70
Width: 1244
GlyphClass: 2
Flags: W
HStem: -24 201<435.48 697.601> 0 21G<881.122 1110> 561 148<706 819> 574 161<447.685 816.69> 1016 199<366.527 755.483>
VStem: 85 293<236.292 508.844> 819 291<258.081 561 709 956.216>
LayerCount: 2
Fore
SplineSet
819 709 m 1x2e
 819 897 806 1016 617 1016 c 0
 466 1016 340 971 239 912 c 1
 160 1094 l 1
 285 1168 425 1215 624 1215 c 0
 993 1215 1110 1035 1110 666 c 2
 1110 0 l 1
 886 0 l 1x6e
 846 164 l 1
 769 47 672 -24 494 -24 c 0
 239 -24 85 106 85 360 c 0
 85 615 280 725 528 735 c 1x9e
 634 735 741 724 819 709 c 1x2e
378 382 m 0
 378 248 441 177 569 177 c 0
 683 177 757 233 819 300 c 1
 819 561 l 1xae
 799 561 772 566 750 568 c 2
 706 572 l 2
 691 573 678 574 667 574 c 0x1e
 502 574 378 545 378 382 c 0
EndSplineSet
EndChar

StartChar: b
Encoding: 98 98 71
Width: 1325
GlyphClass: 2
Flags: W
HStem: -24 201<568.617 841.605> 0 21G<154 367.667> 1016 199<584.816 859.415> 1692 20G<313.273 446>
VStem: 154 292<252.993 927.622 1067 1668> 953 294.916<313.561 886.225>
LayerCount: 2
Fore
SplineSet
446 292 m 1xbc
 515 223 591 177 713 177 c 0
 910 177 953 376 953 608 c 0
 953 815 929 1016 732 1016 c 0
 607 1016 524 960 446 890 c 1
 446 292 l 1xbc
1247.91558863 616.138874812 m 0
 1247.91558863 269.695868141 1113.34500759 -24 759 -24 c 0xbc
 589 -24 479 56 419 174 c 1
 361 0 l 1
 154 0 l 1x7c
 154 1668 l 1
 446 1712 l 1
 446 1067 l 1
 521 1149 633 1215 773 1215 c 0
 1091.67424946 1215 1247.91558863 933.375705011 1247.91558863 616.138874812 c 0
EndSplineSet
EndChar

StartChar: c
Encoding: 99 99 72
Width: 1104
GlyphClass: 2
Flags: W
HStem: -24 201<523.556 885.753> 1016 199<525.304 882.385>
VStem: 85 294<346.87 853.602>
LayerCount: 2
Fore
SplineSet
1041 91 m 1
 945 22 821 -24 653 -24 c 0
 281 -24 85 217 85 585 c 0
 85 949 291 1215 656 1215 c 0
 822 1215 946 1174 1041 1105 c 1
 978 912 l 1
 909 969 810 1016 686 1016 c 1
 450 1005 379 840 379 591 c 0
 379 348 465 177 691 177 c 0
 822 177 905 225 978 283 c 1
 1041 91 l 1
EndSplineSet
EndChar

StartChar: d
Encoding: 100 100 73
Width: 1323
GlyphClass: 2
Flags: W
HStem: -24 201<484.297 750.426> 0 21G<960.333 1176> 1016 199<472.671 744.243> 1692 20G<1043.27 1176>
VStem: 85 290<316.469 899.422> 884 292<251.139 925.022 1057 1668>
LayerCount: 2
Fore
SplineSet
597 1016 m 0xbc
 398 1016 375 801 375 596 c 0
 375 383 415 177 619 177 c 0
 737 177 827 224 884 293 c 1
 884 890 l 1
 806 953 720 1016 597 1016 c 0xbc
85 629 m 0
 85 937 237 1215 541 1215 c 0
 702 1215 808 1153 884 1057 c 1
 884 1668 l 1
 1176 1712 l 1
 1176 0 l 1
 967 0 l 1x7c
 909 174 l 1
 853 65 726 -24 565 -24 c 0
 208 -24 85 271 85 629 c 0
EndSplineSet
EndChar

StartChar: e
Encoding: 101 101 74
Width: 1203
GlyphClass: 2
Flags: W
HStem: -24 201<522.328 899.621> 537 153<384 877> 1016 199<506.693 779.321>
VStem: 85 299<333.186 537 690 856.64> 877 243<690 902.812>
LayerCount: 2
Fore
SplineSet
693 177 m 0
 829 177 914 218 997 281 c 1
 1063 84 l 1
 961 23 826 -24 670 -24 c 0
 299 -24 85 198 85 568 c 0
 85 944 264 1215 638 1215 c 0
 957 1215 1120 1005 1120 685 c 0
 1120 634 1119 585 1117 537 c 1
 384 537 l 1
 386 316 482 177 693 177 c 0
877 704 m 2
 877 887 812 1013 645 1016 c 1
 466 1010 391 867 383 690 c 1
 877 690 l 1
 877 704 l 2
EndSplineSet
EndChar

StartChar: f
Encoding: 102 102 75
Width: 854
GlyphClass: 2
Flags: W
HStem: 0 21G<219 512> 1053 132<24 219 512 824> 1494 217<556.631 823.337>
VStem: 219 293<0 1053 1185 1447.02>
LayerCount: 2
Fore
SplineSet
820 1453 m 1
 774 1470 716 1494 656 1494 c 0
 512.972789116 1494 511.999814892 1338.32412421 511.999814892 1191.08731056 c 2
 512 1185 l 1
 824 1185 l 1
 824 1053 l 1
 512 1053 l 1
 512 0 l 1
 219 0 l 1
 219 1053 l 1
 24 1053 l 1
 24 1185 l 1
 219 1185 l 1
 219 1501 304 1711 597 1711 c 0
 697 1711 777 1691 845 1661 c 1
 820 1453 l 1
EndSplineSet
EndChar

StartChar: g
Encoding: 103 103 76
Width: 1280
GlyphClass: 2
Flags: W
HStem: -516 217<385.377 892.525> 1018 197<467.658 795.582 1021.78 1266>
VStem: 98 233.829<-249.388 -23.4541> 133 234<304.893 407.879> 152 257<680.932 964.197> 845 245<693.019 969.795> 967 254<-231.019 -9.22645>
LayerCount: 2
Fore
SplineSet
478 69 m 1xe2
 406.270255403 29.5486404716 331.829210397 -52.2593202302 331.829210397 -159.099312146 c 0
 331.829210397 -266.23926974 451.454483489 -299 582 -299 c 0
 779 -299 967 -298 967 -110 c 0
 967 89 675 57 478 69 c 1xe2
631 1018 m 0
 489 1018 409 971 409 828 c 0
 409 717 467 640 541 602 c 1
 663 615 l 1
 773 633 845 712 845 841 c 0xcc
 845 975 769 1018 631 1018 c 0
910 1148 m 1
 999 1190 1089 1207 1222 1207 c 2
 1266 1207 l 1
 1266 1008 l 1
 1018 1008 l 1
 1054 962 1090 916 1090 849 c 0
 1090 595 928 478 695 449 c 1
 367 406 l 1xd4
 386 272 l 1
 667 260 l 1
 965 245 1221 188 1221 -117 c 0
 1221 -448 920 -516 582 -516 c 0
 299 -516 98 -443 98 -164 c 0xe2
 98 -21 204 59 303 106 c 1
 175 124 140 214 133 356 c 1xd0
 133 502 255 528 374 556 c 1
 240 573 152 678 152 831 c 0
 152 1093 348 1215 613 1215 c 0
 737 1215 838 1197 910 1148 c 1
EndSplineSet
EndChar

StartChar: h
Encoding: 104 104 77
Width: 1350
GlyphClass: 2
Flags: W
HStem: 0 21G<154 446 922 1214> 1016 199<594.476 844.33> 1694 20G<333.692 446>
VStem: 154 292<0 939.352 1049 1662> 922 292<0 932.064>
LayerCount: 2
Fore
SplineSet
729 1016 m 0
 596 1016 511 967 446 902 c 1
 446 0 l 1
 154 0 l 1
 154 1662 l 1
 446 1714 l 1
 446 1049 l 1
 532 1150 628 1215 796 1215 c 0
 1108 1215 1214 1008 1214 696 c 2
 1214 0 l 1
 922 0 l 1
 922 711 l 2
 922 882 883 1016 729 1016 c 0
EndSplineSet
EndChar

StartChar: i
Encoding: 105 105 78
Width: 649
GlyphClass: 2
Flags: W
HStem: 0 21G<179 468> 1165 20G<179 468> 1412 332<212.18 439.95>
VStem: 161 329<1464.27 1693.43> 179 289<0 1185>
LayerCount: 2
Fore
SplineSet
179 0 m 1xe8
 179 1185 l 1
 468 1185 l 1
 468 0 l 1
 179 0 l 1xe8
325 1412 m 0
 228 1412 161 1481 161 1578 c 0
 161 1672 230 1744 325 1744 c 256
 420 1744 490 1673 490 1578 c 0xf0
 490 1483 419 1412 325 1412 c 0
EndSplineSet
EndChar

StartChar: j
Encoding: 106 106 79
Width: 656
GlyphClass: 2
Flags: W
HStem: 1165 20G<206 500> 1410 332<238.57 462.667>
VStem: 191 322<1459.8 1691.43> 206 294<7.73309 1185>
LayerCount: 2
Fore
SplineSet
352 1410 m 0xe0
 256 1410 191 1480 191 1576 c 0
 191 1672 257 1742 352 1742 c 256
 446 1742 513 1670 513 1576 c 0
 513 1481 447 1410 352 1410 c 0xe0
2 -173 m 1
 149 -83 206 36 206 274 c 2
 206 1185 l 1
 500 1185 l 1
 500 187 l 2xd0
 500 -107 328 -310 89 -364 c 1
 2 -173 l 1
EndSplineSet
EndChar

StartChar: k
Encoding: 107 107 80
Width: 1322
GlyphClass: 2
Flags: W
HStem: 0 21G<154 446 938.726 1287> 1165 20G<921.29 1267> 1693 20G<316.222 446>
VStem: 154 292<0 436 706 1668>
LayerCount: 2
Fore
SplineSet
446 0 m 1
 154 0 l 1
 154 1668 l 1
 446 1713 l 1
 446 706 l 1
 942 1185 l 1
 1267 1185 l 1
 729 660 l 1
 1287 0 l 1
 954 0 l 1
 550 529 l 1
 446 436 l 1
 446 0 l 1
EndSplineSet
EndChar

StartChar: l
Encoding: 108 108 81
Width: 621
GlyphClass: 2
Flags: W
HStem: 0 21G<163 457> 1692 20G<323.364 457>
VStem: 163 294<0 1668>
LayerCount: 2
Fore
SplineSet
457 0 m 1
 163 0 l 1
 163 1668 l 1
 457 1712 l 1
 457 0 l 1
EndSplineSet
EndChar

StartChar: m
Encoding: 109 109 82
Width: 1985
GlyphClass: 2
Flags: W
HStem: 0 21G<154 446 853 1145 1556 1849> 1011 204<582.239 809.406 1268.33 1510.41> 1165 20G<154 369.114>
VStem: 154 292<0 908.491> 853 292<0 918.311> 1556 293<0 960.869>
LayerCount: 2
Fore
SplineSet
697.666666667 1011 m 0xdc
 582.081851732 1011 505.419900074 928.886898334 446 858 c 1
 446 0 l 1
 154 0 l 1
 154 1185 l 1
 363 1185 l 1xbc
 422 992 l 1
 485 1126 592 1215 775 1215 c 0
 945 1215 1044 1142 1096 1019 c 1
 1177 1136 1295 1215 1484 1215 c 0
 1740 1215 1849 1031 1849 773 c 2
 1849 0 l 1
 1556 0 l 1
 1556 790 l 2
 1556 917.771960737 1522.20118224 1014.28001504 1408.77729999 1014.28001504 c 0
 1284.9591274 1014.28001504 1216.17337043 948.268345363 1145 876 c 1
 1145 0 l 1
 853 0 l 1
 853 797 l 2
 853 928.675222406 822.679285356 1011 697.666666667 1011 c 0xdc
EndSplineSet
EndChar

StartChar: n
Encoding: 110 110 83
Width: 1332
GlyphClass: 2
Flags: W
HStem: 0 21G<154 446 903 1196> 1016 199<594.72 842.889> 1165 20G<154 380.071>
VStem: 154 292<0 927.386> 903 293<0 949.189>
LayerCount: 2
Fore
SplineSet
715 1016 m 0xd8
 601 1016 495 948 446 881 c 1
 446 0 l 1
 154 0 l 1
 154 1185 l 1
 374 1185 l 1xb8
 425 1017 l 1
 491 1126 617 1215 788 1215 c 0
 1087 1215 1196 1037 1196 737 c 2
 1196 0 l 1
 903 0 l 1
 903 752 l 2
 903 914 865 1016 715 1016 c 0xd8
EndSplineSet
EndChar

StartChar: o
Encoding: 111 111 84
Width: 1299
GlyphClass: 2
Flags: W
HStem: -31 199<497.62 795.353> 1010 200<497.683 795.508>
VStem: 82 290<317.883 858.819> 922 287<317.058 859.022>
LayerCount: 2
Fore
SplineSet
372 588 m 0
 372 368 426 168 647 168 c 0
 868 168 922 365 922 588 c 0
 922 811 868 1010 647 1010 c 256
 427 1010 372 810 372 588 c 0
646 1210 m 256
 1026 1210 1209 965 1209 587 c 0
 1209 210 1025 -31 646 -31 c 256
 267 -31 82 211 82 587 c 0
 82 965 266 1210 646 1210 c 256
EndSplineSet
EndChar

StartChar: p
Encoding: 112 112 85
Width: 1332
GlyphClass: 2
Flags: W
HStem: -446 21G<154 446> -24 201<583.392 847.856> 1016 199<581.817 852.307> 1165 20G<154 381.243>
VStem: 154 292<-437 140 277.591 925.839> 956 291<306.714 892.118>
LayerCount: 2
Fore
SplineSet
956 577 m 0xec
 956 782 933 1016 736 1016 c 0
 615 1016 511 953 446 886 c 1
 446 314 l 1
 514 250 616 177 730 177 c 0
 917 177 956 389 956 577 c 0xec
1247 586 m 0
 1247 246 1093 -24 756 -24 c 0
 615 -24 511 53 446 140 c 1
 446 -437 l 1
 154 -446 l 1
 154 1185 l 1
 375 1185 l 1xdc
 429 1012 l 1
 487 1128 599 1215 768 1215 c 0
 1116 1215 1247 955 1247 586 c 0
EndSplineSet
EndChar

StartChar: q
Encoding: 113 113 86
Width: 1323
GlyphClass: 2
Flags: W
HStem: -452 21G<884 1176> -24 201<474.545 742.903> 1016 199<487.124 742.014> 1165 20G<930.114 1176>
VStem: 85 289<303.464 880.209> 884 292<-442 141 270.376 919.545>
LayerCount: 2
Fore
SplineSet
374 588 m 0xec
 374 386 405 177 605 177 c 0
 724 177 821 247 884 308 c 1
 884 870 l 1
 822 949 737 1016 614 1016 c 0
 406 1016 374 798 374 588 c 0xec
85 586 m 0
 85 950 210 1215 572 1215 c 0xec
 729 1215 831 1124 892 1009 c 1
 935 1185 l 1
 1176 1185 l 1xdc
 1176 -442 l 1
 884 -452 l 1
 884 141 l 1
 812 55 712 -24 566 -24 c 0
 227 -24 85 247 85 586 c 0
EndSplineSet
EndChar

StartChar: r
Encoding: 114 114 87
Width: 852
GlyphClass: 2
Flags: W
HStem: 0 21G<154 446> 956 234<577.805 819>
VStem: 154 292<0 874.084>
LayerCount: 2
Fore
SplineSet
708 956 m 0
 598 956 512 896 446 840 c 1
 446 0 l 1
 154 0 l 1
 154 1185 l 1
 397 1185 l 1
 433 994 l 1
 498 1101 584 1190 748 1190 c 0
 771 1190 795 1189 819 1188 c 1
 819 944 l 1
 793 955 747 956 708 956 c 0
EndSplineSet
EndChar

StartChar: s
Encoding: 115 115 88
Width: 1070
GlyphClass: 2
Flags: W
HStem: -24 201<282.074 675.521> 1016 199<384.964 788.705>
VStem: 91 259<807.715 977.357> 721 271<223.329 419.038>
LayerCount: 2
Fore
SplineSet
522 177 m 0
 638 177 721 216 721 332 c 0
 721 411 645 445 578 470 c 2
 345 560 l 1
 204 611 91 693 91 886 c 0
 91 1118 298 1215 534 1215 c 0
 686 1215 868 1176 957 1109 c 1
 891 921 l 1
 819 975 666 1016 545 1016 c 0
 433 1016 350 982 350 886 c 0
 350 811 415 791 471 769 c 1
 663 698 l 2
 823 638 992 558 992 345 c 0
 992 90 793 -24 536 -24 c 0
 369 -24 192 19 97 90 c 1
 163 281 l 1
 235 225 400 177 522 177 c 0
EndSplineSet
EndChar

StartChar: t
Encoding: 116 116 89
Width: 919
GlyphClass: 2
Flags: W
HStem: -24 201<539.025 762.189> 1054 131<16 219 510 845> 1647 20G<431.714 510>
VStem: 219 291<202.946 1054 1185 1532.44> 236 274<1185 1597>
LayerCount: 2
Fore
SplineSet
889 72 m 1xf0
 805 19 692 -24 553 -24 c 0
 281 -24 219 178 219 455 c 2
 219 1054 l 1xf0
 16 1054 l 1
 16 1185 l 1
 226 1185 l 1
 236 1597 l 1
 510 1667 l 1xe8
 510 1185 l 1
 845 1185 l 1
 845 1054 l 1
 510 1054 l 1
 510 377 l 2
 510 264 526 177 628 177 c 0
 697 177 758 219 812 251 c 1
 889 72 l 1xf0
EndSplineSet
EndChar

StartChar: u
Encoding: 117 117 90
Width: 1311
GlyphClass: 2
Flags: W
HStem: -24 207.831<484.936 747.503> 0 21G<942.556 1159> 1165 20G<134 424 866 1159>
VStem: 134 290<248.109 1185> 866 293<257.242 1185>
LayerCount: 2
Fore
SplineSet
609.077831042 183.830653421 m 0xb8
 726.768313391 183.830653421 800.230172171 232.3840288 866 297 c 1
 866 1185 l 1
 1159 1185 l 1
 1159 0 l 1
 949 0 l 1x78
 891 180 l 1
 840 64 733 -24 567 -24 c 0
 266 -24 134 143 134 454 c 2
 134 1185 l 1
 424 1185 l 1
 424 438 l 2
 424 288.301884813 463.577851005 183.830653421 609.077831042 183.830653421 c 0xb8
EndSplineSet
EndChar

StartChar: v
Encoding: 118 118 91
Width: 1178
GlyphClass: 2
Flags: W
HStem: 0 21G<414.232 763.802> 1165 20G<20 328.832 848.276 1160>
LayerCount: 2
Fore
SplineSet
421 0 m 1
 20 1185 l 1
 323 1185 l 1
 591 266 l 1
 854 1185 l 1
 1160 1185 l 1
 757 0 l 1
 421 0 l 1
EndSplineSet
EndChar

StartChar: w
Encoding: 119 119 92
Width: 1634
GlyphClass: 2
Flags: W
HStem: 0 21G<327.717 623.702 1010.25 1308.28> 1165 20G<20 299.105 678.587 958.325 1340.74 1616>
LayerCount: 2
Fore
SplineSet
816 838 m 1
 619 0 l 1
 333 0 l 1
 20 1185 l 1
 295 1185 l 1
 482 274 l 1
 683 1185 l 1
 954 1185 l 1
 1151 274 l 1
 1345 1185 l 1
 1616 1185 l 1
 1303 0 l 1
 1015 0 l 1
 816 838 l 1
EndSplineSet
EndChar

StartChar: x
Encoding: 120 120 93
Width: 1179
GlyphClass: 2
Flags: W
HStem: 0 21G<39 373.436 811.614 1141> 1165 20G<32 373.877 812.123 1148>
LayerCount: 2
Fore
SplineSet
362 0 m 1
 39 0 l 1
 446 595 l 1
 32 1185 l 1
 362 1185 l 1
 593 796 l 1
 824 1185 l 1
 1148 1185 l 1
 741 595 l 1
 1141 0 l 1
 823 0 l 1
 593 404 l 1
 362 0 l 1
EndSplineSet
EndChar

StartChar: y
Encoding: 121 121 94
Width: 1181
GlyphClass: 2
Flags: W
HStem: -473 197<226 305.265> 1165 20G<20 322.307 860.403 1163>
LayerCount: 2
Fore
SplineSet
20 1185 m 1
 315 1185 l 1
 627 331 l 1
 866 1185 l 1
 1163 1185 l 1
 744 -35 l 2
 664 -267 522 -473 226 -473 c 1
 145 -276 l 1
 364 -249 445 -157 499 36 c 1
 20 1185 l 1
EndSplineSet
EndChar

StartChar: z
Encoding: 122 122 95
Width: 1061
GlyphClass: 2
Flags: W
HStem: 0 199<407 962> 986 199<120 664>
LayerCount: 2
Fore
SplineSet
120 986 m 1
 120 1185 l 1
 955 1185 l 1
 955 977 l 1
 407 199 l 1
 962 199 l 1
 962 0 l 1
 101 0 l 1
 101 210 l 1
 664 986 l 1
 120 986 l 1
EndSplineSet
EndChar

StartChar: braceleft
Encoding: 123 123 96
Width: 856
GlyphClass: 2
Flags: W
HStem: -213 184<620.545 725> 568 192<127 220.256> 1357 185<615.987 725>
VStem: 127 598
LayerCount: 2
Fore
SplineSet
725 1357 m 1
 566 1357 562 1215 562 1045 c 1
 560 841 507 709 353 664 c 1
 506 614 561 485 563 283 c 1
 563 114 566 -29 725 -29 c 1
 725 -213 l 1
 376 -213 317 0 283 324 c 1
 274 449 255 568 127 568 c 1
 127 760 l 1
 341 760 271 1187 347 1338 c 0
 413 1471 531 1542 725 1542 c 1
 725 1357 l 1
EndSplineSet
EndChar

StartChar: bar
Encoding: 124 124 97
Width: 752
GlyphClass: 2
Flags: W
HStem: 1689 20G<246 507>
VStem: 246 261<-135 1709>
LayerCount: 2
Fore
SplineSet
246 1709 m 1
 507 1709 l 1
 507 -135 l 1
 246 -135 l 1
 246 1709 l 1
EndSplineSet
EndChar

StartChar: braceright
Encoding: 125 125 98
Width: 858
GlyphClass: 2
Flags: W
HStem: -213 184<149 249.266> 569 192<652.658 746> 1358 185<149 253.194>
VStem: 149 597
LayerCount: 2
Fore
SplineSet
521 665 m 1
 365 711 313 841 311 1046 c 1
 311 1208 309 1358 149 1358 c 1
 149 1543 l 1
 497 1543 557 1329 591 1006 c 1
 600 882 618 761 746 761 c 1
 746 569 l 1
 532 569 601 143 526 -8 c 0
 460 -141 343 -213 149 -213 c 1
 149 -29 l 1
 385 -29 280 387 362 538 c 0
 395 599 448 642 521 665 c 1
EndSplineSet
EndChar

StartChar: asciitilde
Encoding: 126 126 99
Width: 1106
GlyphClass: 2
Flags: W
HStem: 286 193<601.056 791.384> 427 190<346.56 506.744>
VStem: 146 192<304 423.771> 798 199<485.604 587>
LayerCount: 2
Fore
SplineSet
997 587 m 1xb0
 997 426 933 286 775 286 c 0xb0
 629 286 543 375 438 418 c 0
 424 424 412 427 401 427 c 0
 343 427 338 374 338 304 c 1
 146 304 l 1
 146 489 204 617 371 617 c 0x70
 530 617 594 479 740 479 c 0
 795 479 798 528 798 587 c 1
 997 587 l 1xb0
EndSplineSet
EndChar

StartChar: exclamdown
Encoding: 161 161 101
Width: 806
GlyphClass: 2
Flags: W
HStem: -1 21G<249 578> 1264 320<294.738 542.693>
VStem: 260 318<1296.71 1547.39> 318 194<895.014 1130>
LayerCount: 2
Fore
SplineSet
578 -1 m 1xe0
 249 -1 l 1
 318 1130 l 1
 512 1130 l 1xd0
 578 -1 l 1xe0
427 1264 m 0
 317 1264 260 1304 260 1415 c 0
 260 1535 310 1584 427 1584 c 0
 535 1584 578 1522 578 1415 c 0xe0
 578 1313 528 1264 427 1264 c 0
EndSplineSet
EndChar

StartChar: cent
Encoding: 162 162 102
Width: 1133
GlyphClass: 2
Flags: W
HStem: -11 203<771 925.958> 997 211<526.903 630 771 923.102>
VStem: 105 294<349.873 848.664> 630 141<-154 -17 198 996 1205.65 1382>
LayerCount: 2
Fore
SplineSet
630 997 m 1
 452 966 399 802 399 594 c 0
 399 383 461 232 630 198 c 1
 630 997 l 1
1056 81 m 1
 984 42 881 -11 771 -11 c 1
 771 -154 l 1
 630 -154 l 1
 630 -17 l 1
 293 0 105 237 105 594 c 256
 105 945 301 1190 630 1208 c 1
 630 1382 l 1
 771 1382 l 1
 771 1202 l 1
 884 1189 979 1150 1061 1102 c 1
 998 910 l 1
 947 951 856 986 771 996 c 1
 771 192 l 1
 860 195 937 241 997 273 c 1
 1056 81 l 1
EndSplineSet
EndChar

StartChar: sterling
Encoding: 163 163 103
Width: 1195
GlyphClass: 2
Flags: W
HStem: 0 199<447 1058> 595 133<188 320 584 994> 1128 218<533.231 898.965>
VStem: 205 272<815.454 1070.89> 345 239<369.625 595>
LayerCount: 2
Fore
SplineSet
584 595 m 1xe8
 584 422 514 299 447 199 c 1
 1058 199 l 1
 1058 0 l 1
 201 0 l 1
 201 193 l 1
 276 280 345 436 345 595 c 1xe8
 188 595 l 1
 188 724 l 1
 320 724 l 1
 260 779 205 872 205 988 c 0
 205 1246 415 1346 678 1346 c 0
 853 1346 984 1294 1088 1227 c 1
 991 1035 l 1
 914 1082 821 1128 697 1128 c 0
 563 1128 477 1082 477 953 c 0xf0
 477 848 524 789 573 728 c 1
 994 728 l 1
 994 595 l 1
 584 595 l 1xe8
EndSplineSet
EndChar

StartChar: currency
Encoding: 164 164 104
Width: 1409
GlyphClass: 2
Flags: W
HStem: 557 165<552.266 852.823> 1278 167<565.986 866.139>
VStem: 266 166<842.626 1141.28> 988 166<856.767 1155.66>
LayerCount: 2
Fore
SplineSet
696 557 m 0
 602 557 530 582 469 621 c 1
 271 424 l 1
 142 554 l 1
 337 749 l 1
 290 822 266 901 266 986 c 0
 266 1075 292 1158 344 1236 c 1
 142 1438 l 1
 271 1567 l 1
 474 1365 l 1
 551 1418 635 1445 726 1445 c 0
 811 1445 890 1422 962 1375 c 1
 1156 1567 l 1
 1285 1438 l 1
 1090 1243 l 1
 1133 1176 1154 1100 1154 1016 c 0
 1154 926 1127 842 1074 765 c 1
 1285 554 l 1
 1156 424 l 1
 944 636 l 1
 866 583 783 557 696 557 c 0
988 1008 m 0
 988 1159 870 1278 719 1278 c 0
 561 1278 432 1150 432 992 c 256
 432 838 552 722 706 722 c 0
 860 722 988 853 988 1008 c 0
EndSplineSet
EndChar

StartChar: yen
Encoding: 165 165 105
Width: 1300
GlyphClass: 2
Flags: W
HStem: 0 21G<512 802> 404 114<190 510 804 1121> 636 116<190 421 891 1121> 1586 20G<-9 310.937 999.063 1324>
VStem: 512 290<0 404>
LayerCount: 2
Fore
SplineSet
1008 1606 m 1
 1324 1606 l 1
 891 752 l 1
 1121 752 l 1
 1121 636 l 1
 842 636 l 1
 804 518 l 1
 1121 518 l 1
 1121 404 l 1
 802 404 l 1
 802 0 l 1
 512 0 l 1
 512 404 l 1
 190 404 l 1
 190 518 l 1
 510 518 l 1
 473 636 l 1
 190 636 l 1
 190 752 l 1
 421 752 l 1
 -9 1606 l 1
 302 1606 l 1
 655 816 l 1
 1008 1606 l 1
EndSplineSet
EndChar

StartChar: brokenbar
Encoding: 166 166 106
Width: 722
GlyphClass: 2
Flags: W
VStem: 239 266<-91 646 925 1662>
LayerCount: 2
Fore
SplineSet
239 1662 m 1
 505 1662 l 1
 505 925 l 1
 239 925 l 1
 239 1662 l 1
239 646 m 1
 505 646 l 1
 505 -91 l 1
 239 -91 l 1
 239 646 l 1
EndSplineSet
EndChar

StartChar: section
Encoding: 167 167 107
Width: 1171
GlyphClass: 2
Flags: W
HStem: -107 206<368.601 741.63> 1397 206<406.163 775.286>
VStem: 157 219<676.251 854.182 1212.71 1364.36> 789 234<143.451 342.141 670.786 857.487>
LayerCount: 2
Fore
SplineSet
376 764 m 0
 376 662 467 640 584 640 c 0
 690 640 796 658 796 762 c 0
 796 868 704 889 584 889 c 0
 473 889 376 870 376 764 c 0
157 1306 m 0
 157 1514 359 1603 574 1603 c 0
 725 1603 899 1539 978 1460 c 1
 898 1281 l 1
 827 1336 706 1397 582 1397 c 0
 473 1397 378 1384 378 1282 c 0
 378 1223 439 1199 486 1181 c 1
 546 1156 608 1136 674 1112 c 0
 849 1050 1021 986 1021 761 c 0
 1021 619 924 547 808 521 c 1
 935 472 1023 387 1023 216 c 0
 1023 -21 815 -107 578 -107 c 0
 417 -107 248 -40 159 34 c 1
 243 223 l 1
 301 165 442 99 554 99 c 0
 684 99 789 126 789 243 c 0
 789 349 706 370 625 398 c 2
 463 454 l 1
 300 509 157 564 157 775 c 0
 157 917 252 995 376 1019 c 1
 247 1064 157 1135 157 1306 c 0
EndSplineSet
EndChar

StartChar: dieresis
Encoding: 168 168 108
Width: 1151
GlyphClass: 2
Flags: W
HStem: 248 332<157.754 389.199 767.754 998.813>
VStem: 109 330<297.801 530.199> 719 330<300.274 529.813>
LayerCount: 2
Fore
SplineSet
273 248 m 0
 176 248 109 317 109 414 c 256
 109 510 177 580 273 580 c 256
 369 580 439 510 439 414 c 0
 439 318 369 248 273 248 c 0
883 248 m 0
 785 248 719 317 719 414 c 256
 719 510 787 580 883 580 c 256
 978 580 1049 509 1049 414 c 0
 1049 319 978 248 883 248 c 0
EndSplineSet
EndChar

StartChar: copyright
Encoding: 169 169 109
Width: 2126
GlyphClass: 2
Flags: W
HStem: -91 194<800.463 1318.01> 301 180<920.207 1300.02> 1152 181<917.773 1307.56> 1532 195<824.128 1311.2>
VStem: 149 218<539.149 1073.16> 597 211<598.818 1029.46> 1769 217<557.041 1072.21>
LayerCount: 2
Fore
SplineSet
367 815 m 0
 367 394 633 103 1056 103 c 256
 1480 103 1769 394 1769 815 c 0
 1769 1229 1475 1532 1068 1532 c 0
 657 1532 367 1224 367 815 c 0
1087 1152 m 0
 880 1152 808 1024 808 817 c 0
 808 600 879 481 1092 481 c 0
 1216 481 1304 525 1393 570 c 1
 1393 385 l 1
 1301 339 1219 301 1105 301 c 0
 769 301 597 491 597 823 c 0
 597 1143 772 1333 1095 1333 c 0
 1210 1333 1310 1293 1388 1252 c 1
 1388 1071 l 1
 1298 1117 1205 1152 1087 1152 c 0
1061 -91 m 0
 522 -91 149 284 149 818 c 256
 149 1356 538 1727 1068 1727 c 0
 1599 1727 1986 1345 1986 818 c 0
 1986 276 1596 -91 1061 -91 c 0
EndSplineSet
EndChar

StartChar: ordfeminine
Encoding: 170 170 110
Width: 1246
GlyphClass: 2
Flags: W
HStem: 446 129<270 954> 668 113<412.753 702.397> 1158 100<436.701 797.055> 1443 109<316 419.43> 1513 125<410.272 745.994>
VStem: 206 161<824.847 1092.42> 799 161<856.041 1147.45 1218 1459.34> 844 116<686 761.397>
LayerCount: 2
Fore
SplineSet
263 1552 m 1xf6
 349.929796087 1552 467.619251179 1638 599 1638 c 0
 874 1638 960 1511 960 1235 c 2xee
 960 686 l 1
 844 686 l 1xed
 817 828 l 1
 813 828 767 762 752 748 c 0
 701 703 625 668 523 668 c 0
 329 668 206 767 206 960 c 0
 206 1164 359 1258 565 1258 c 0
 625 1258 776 1253 799 1218 c 1
 799 1276 l 2
 799 1434 766 1513 607 1513 c 0xee
 505 1513 408 1486 340 1454 c 0
 324 1447 317 1443 316 1443 c 2
 263 1552 l 1xf6
367 971 m 0
 367 831 421 781 561 781 c 256
 658 781 738 831 782 882 c 0
 793 895 799 902 799 903 c 2
 799 1141 l 1
 741 1150 684 1158 623 1158 c 0
 452 1158 367 1096 367 971 c 0
270 575 m 1
 954 575 l 1
 954 446 l 1
 270 446 l 1
 270 575 l 1
EndSplineSet
EndChar

StartChar: guillemotleft
Encoding: 171 171 111
Width: 1754
GlyphClass: 2
Flags: W
LayerCount: 2
Fore
SplineSet
1135 588 m 1
 1602 299 l 1
 1602 8 l 1
 861 473 l 1
 861 697 l 1
 1602 1161 l 1
 1602 870 l 1
 1135 588 l 1
396 588 m 1
 862 299 l 1
 862 8 l 1
 121 473 l 1
 121 697 l 1
 862 1161 l 1
 862 870 l 1
 396 588 l 1
EndSplineSet
EndChar

StartChar: logicalnot
Encoding: 172 172 112
Width: 1388
GlyphClass: 2
Flags: W
HStem: 768 222<77 1045>
VStem: 1045 189<277 768>
LayerCount: 2
Fore
SplineSet
77 768 m 1
 77 990 l 1
 1234 990 l 1
 1234 277 l 1
 1045 277 l 1
 1045 768 l 1
 77 768 l 1
EndSplineSet
EndChar

StartChar: uni00AD
Encoding: 173 173 113
Width: 1038
GlyphClass: 2
Flags: W
HStem: 558 214<158 836>
VStem: 158 678<558 772>
LayerCount: 2
Fore
SplineSet
158 558 m 1
 158 772 l 1
 836 772 l 1
 836 558 l 1
 158 558 l 1
EndSplineSet
EndChar

StartChar: registered
Encoding: 174 174 114
Width: 1378
GlyphClass: 2
Flags: W
HStem: 573 123<486.126 916.091> 1145 102<627 662> 1426.02 100.98<627 811.837> 1696 126<486.513 916.113>
VStem: 50 145<975.335 1407.49> 500 124<873 1145 1247 1426> 821.184 127.816<1294.71 1410.83> 1209 146<984.561 1408.1>
LayerCount: 2
Fore
SplineSet
702 573 m 0
 329 573 50 825 50 1197 c 0
 50 1564 331 1822 702 1822 c 0
 1071 1822 1355 1565 1355 1197 c 0
 1355 829 1072 573 702 573 c 0
195 1194 m 256
 195 896 402 696 701 696 c 256
 998 696 1209 900 1209 1195 c 0
 1209 1492 999 1696 701 1696 c 256
 402 1696 195 1491 195 1194 c 256
821.183649868 1354.44259747 m 0
 821.183649868 1424.27979666 724.692221515 1426.01972243 647.673365842 1426.01972243 c 0
 640.720233747 1426.01972243 633.810810811 1426 627 1426 c 1
 627 1247 l 1
 691 1247 l 2
 722 1247 737 1254 737 1285 c 1
 787.829734591 1290.75430958 821.183649868 1304.78663883 821.183649868 1354.44259747 c 0
949 1347 m 0
 949 1227 884 1187 780 1168 c 1
 958 912 l 1
 841 853 l 1
 662 1145 l 1
 624 1145 l 1
 624 873 l 1
 500 873 l 1
 500 1527 l 1
 639 1527 l 2
 795 1527 949 1501 949 1347 c 0
EndSplineSet
EndChar

StartChar: macron
Encoding: 175 175 115
Width: 1003
GlyphClass: 2
Flags: W
HStem: 98 117<98 780>
LayerCount: 2
Fore
SplineSet
98 215 m 1
 780 215 l 1
 780 98 l 1
 98 98 l 1
 98 215 l 1
EndSplineSet
EndChar

StartChar: degree
Encoding: 176 176 116
Width: 819
GlyphClass: 2
Flags: W
HStem: 720 65<291.754 520.579> 1195 64<294.507 519.675>
VStem: 123 76<870.153 1112.17> 613 76<866.642 1110.62>
LayerCount: 2
Fore
SplineSet
407 1195 m 0
 287 1195 199 1110 199 990 c 0
 199 870 286 785 407 785 c 256
 528 785 613 869 613 990 c 256
 613 1110 527 1195 407 1195 c 0
123 993 m 256
 123 1150 250 1259 407 1259 c 0
 567 1259 689 1148 689 987 c 256
 689 826 561 720 401 720 c 256
 244 720 123 836 123 993 c 256
EndSplineSet
EndChar

StartChar: plusminus
Encoding: 177 177 117
Width: 1158
GlyphClass: 2
Flags: W
HStem: -22 197<222 993> 707 219<193 490 724 1022>
VStem: 490 234<351 707 926 1280>
LayerCount: 2
Fore
SplineSet
222 -22 m 1
 222 175 l 1
 993 175 l 1
 993 -22 l 1
 222 -22 l 1
724 707 m 1
 724 351 l 1
 490 351 l 1
 490 707 l 1
 193 707 l 1
 193 926 l 1
 490 926 l 1
 490 1280 l 1
 724 1280 l 1
 724 926 l 1
 1022 926 l 1
 1022 707 l 1
 724 707 l 1
EndSplineSet
EndChar

StartChar: uni00B2
Encoding: 178 178 118
Width: 1126
GlyphClass: 2
Flags: W
HStem: 668 152<485 891> 1500 138<296.138 704.143>
VStem: 747 172<1213.48 1458.23>
LayerCount: 2
Fore
SplineSet
576 1638 m 0
 771 1638 919 1543 919 1357 c 0
 919 1169 786 1075 676 982 c 2
 485 820 l 1
 891 820 l 1
 891 668 l 1
 253 668 l 1
 253 805 l 1
 524 1045 l 2
 618 1128 747 1199 747 1354 c 0
 747 1454 670 1500 566 1500 c 0
 456 1500 357 1474 270 1448 c 1
 270 1586 l 1
 351 1620 458 1638 576 1638 c 0
EndSplineSet
EndChar

StartChar: uni00B3
Encoding: 179 179 119
Width: 1208
GlyphClass: 2
Flags: W
HStem: 540 132<414.344 782.775> 1541 136<402.26 779.61>
VStem: 832 154<1272.06 1488.8> 851 166<738.082 982.834>
LayerCount: 2
Fore
SplineSet
1017 835 m 0xd0
 1017 632 830 540 628 540 c 0
 495 540 391 569 300 618 c 1
 351 745 l 1
 428 708 517 672 631 672 c 0
 753 672 851 733 851 853 c 0xd0
 851 1002 740 1055 589 1072 c 1
 589 1207 l 1
 715 1207 832 1258 832 1383 c 0
 832 1500 738 1541 608 1541 c 0
 517 1541 438 1513 374 1484 c 1
 327 1611 l 1
 398 1647 503 1677 613 1677 c 0
 812 1677 986 1595 986 1394 c 0xe0
 986 1250 878 1142 741 1142 c 1
 895 1111 1017 1021 1017 835 c 0xd0
EndSplineSet
EndChar

StartChar: acute
Encoding: 180 180 120
Width: 1117
GlyphClass: 2
Flags: W
HStem: 213 679
VStem: 449 475
LayerCount: 2
Fore
SplineSet
449 269 m 1
 638 892 l 1
 924 766 l 1
 569 213 l 1
 449 269 l 1
EndSplineSet
EndChar

StartChar: uni00B5
Encoding: 181 181 121
Width: 1320
GlyphClass: 2
Flags: W
HStem: -20 143<457.514 804.72>
VStem: 185 174<-291 113 229.478 1169> 958 208<230.358 1169> 1020 146<16 107.989>
LayerCount: 2
Fore
SplineSet
599 -20 m 0xd0
 483 -20 408 47 359 113 c 1
 359 -291 l 1
 185 -291 l 1
 185 1169 l 1
 359 1169 l 1
 359 442 l 2
 359 229 443 123 611 123 c 0
 760 123 892 194 958 274 c 1
 958 1169 l 1
 1166 1169 l 1xe0
 1166 16 l 1
 1020 16 l 1
 996 170 l 1
 882 43 750 -20 599 -20 c 0xd0
EndSplineSet
EndChar

StartChar: paragraph
Encoding: 182 182 122
Width: 1417
GlyphClass: 2
Flags: W
HStem: 0 21G<641 877 1015 1247> 1457 149<877 1015>
VStem: 100 777<1019.11 1400.81> 641 236<0 801> 1015 232<0 1457>
LayerCount: 2
Fore
SplineSet
100 1214 m 0xe8
 100 1535 366 1606 686 1606 c 2
 1247 1606 l 1
 1247 0 l 1
 1015 0 l 1
 1015 1457 l 1
 877 1457 l 1
 877 0 l 1
 641 0 l 1
 641 801 l 1xd8
 332 801 100 905 100 1214 c 0xe8
EndSplineSet
EndChar

StartChar: periodcentered
Encoding: 183 183 123
Width: 591
GlyphClass: 2
Flags: W
HStem: 519 353<173.137 409.299>
VStem: 115 351<575.701 815.449>
LayerCount: 2
Fore
SplineSet
289 519 m 256
 188 519 115 595 115 696 c 256
 115 796 189 872 289 872 c 256
 390 872 466 797 466 696 c 256
 466 595 391 519 289 519 c 256
EndSplineSet
EndChar

StartChar: cedilla
Encoding: 184 184 124
Width: 637
GlyphClass: 2
Flags: W
HStem: -642 137<112.781 398.947> -482 20G<102 122> -241 105<281 370.807>
VStem: 154 127<-136 45> 416 172<-485.459 -287.173>
LayerCount: 2
Fore
SplineSet
309 -642 m 0
 223 -642 160 -615 102 -593 c 1
 102 -462 l 1
 122 -468 l 1
 166 -483 226 -505 283 -505 c 0
 372 -505 416 -476 416 -386 c 0
 416 -261 297 -241 154 -241 c 1
 166 45 l 1
 288 45 l 1
 281 -136 l 1
 448 -136 588 -215 588 -385 c 0
 588 -553 482 -642 309 -642 c 0
EndSplineSet
EndChar

StartChar: uni00B9
Encoding: 185 185 125
Width: 740
GlyphClass: 2
Flags: W
VStem: 327 169<478 1304>
LayerCount: 2
Fore
SplineSet
327 1304 m 1
 156 1232 l 1
 119 1345 l 1
 356 1440 l 1
 496 1414 l 1
 496 478 l 1
 327 478 l 1
 327 1304 l 1
EndSplineSet
EndChar

StartChar: ordmasculine
Encoding: 186 186 126
Width: 1265
GlyphClass: 2
Flags: W
HStem: 446 129<300 984> 670 127<490.874 785.394> 1512 126<490.838 784.986>
VStem: 214 157<930.932 1380.74> 905 158<925.455 1380.54>
LayerCount: 2
Fore
SplineSet
1063 1152 m 0
 1063 869 922 670 638 670 c 0
 354 670 214 869 214 1152 c 0
 214 1434 355 1638 638 1638 c 256
 921 1638 1063 1434 1063 1152 c 0
371 1154 m 256
 371 955 440 797 638 797 c 256
 837 797 905 954 905 1154 c 0
 905 1352 836 1512 638 1512 c 256
 439 1512 371 1353 371 1154 c 256
300 575 m 1
 984 575 l 1
 984 446 l 1
 300 446 l 1
 300 575 l 1
EndSplineSet
EndChar

StartChar: guillemotright
Encoding: 187 187 127
Width: 1780
GlyphClass: 2
Flags: W
LayerCount: 2
Fore
SplineSet
172 1161 m 1
 913 697 l 1
 913 473 l 1
 172 8 l 1
 172 299 l 1
 648 588 l 1
 172 870 l 1
 172 1161 l 1
911 1161 m 1
 1653 697 l 1
 1653 473 l 1
 911 8 l 1
 911 299 l 1
 1388 588 l 1
 911 870 l 1
 911 1161 l 1
EndSplineSet
EndChar

StartChar: onequarter
Encoding: 188 188 128
Width: 1947
GlyphClass: 2
Flags: W
HStem: 73 171<1210 1474 1683 1829> 1198 21G<144.129 198.349>
VStem: 298 227<481 1261> 1478 205<-168 73 245 648>
LayerCount: 2
Fore
SplineSet
1478 244 m 1
 1478 648 l 1
 1210 244 l 1
 1478 244 l 1
1683 965 m 1
 1683 245 l 1
 1829 245 l 1
 1829 73 l 1
 1683 73 l 1
 1683 -168 l 1
 1474 -177 l 1
 1474 73 l 1
 987 73 l 1
 957 217 l 1
 1504 1011 l 1
 1683 965 l 1
1222 1498 m 1
 1410 1410 l 1
 553 -115 l 1
 369 -30 l 1
 1222 1498 l 1
298 1261 m 1
 152 1198 l 1
 91 1353 l 1
 362 1460 l 1
 525 1425 l 1
 525 481 l 1
 298 481 l 1
 298 1261 l 1
EndSplineSet
EndChar

StartChar: onehalf
Encoding: 189 189 129
Width: 2119
GlyphClass: 2
Flags: W
HStem: -9 192<1607 1954> 781 186<1380.36 1717.01> 1198 21G<167 221.032>
VStem: 320 227<481 1261> 1747 233<541.371 750.059>
LayerCount: 2
Fore
SplineSet
1613 967 m 0
 1814 967 1980 875 1980 678 c 0
 1980 495 1861 403 1755 312 c 1
 1607 183 l 1
 1954 183 l 1
 1954 -9 l 1
 1274 -9 l 1
 1274 153 l 1
 1411 272 1570 385 1688 521 c 0
 1718 556 1747 596 1747 654 c 0
 1747 744 1687 781 1594 781 c 0
 1493 781 1387 742 1312 709 c 1
 1267 884 l 1
 1368 925 1473 967 1613 967 c 0
320 1261 m 1
 175 1198 l 1
 113 1353 l 1
 385 1460 l 1
 547 1425 l 1
 547 481 l 1
 320 481 l 1
 320 1261 l 1
1234 1498 m 1
 1422 1410 l 1
 565 -115 l 1
 381 -30 l 1
 1234 1498 l 1
EndSplineSet
EndChar

StartChar: threequarters
Encoding: 190 190 130
Width: 2178
GlyphClass: 2
Flags: W
HStem: 73 171<1428 1710 1907 2053> 469 180<230.535 594.737> 978 176<386 557.027> 1363 21G<203.909 245.5> 1421 183<245.759 592.42>
VStem: 619 215<1208.21 1390.5> 638 226<691.5 905.734> 1714 193<-168 73 244 654>
LayerCount: 2
Fore
SplineSet
1714 244 m 1xf9
 1714 654 l 1
 1428 244 l 1
 1714 244 l 1xf9
1907 965 m 1
 1907 244 l 1
 2053 244 l 1
 2053 73 l 1
 1907 73 l 1
 1907 -168 l 1
 1710 -177 l 1
 1710 73 l 1
 1210 73 l 1
 1181 217 l 1
 1728 1011 l 1
 1907 965 l 1
1441 1498 m 1
 1633 1410 l 1
 777 -115 l 1
 593 -30 l 1
 1441 1498 l 1
386 1154 m 1
 503 1154 616 1190 619 1303 c 1
 619 1391 543 1421 447 1421 c 0
 358 1421 278 1391 213 1363 c 1
 138 1528 l 1
 209 1572 321 1604 437 1604 c 0
 659 1604 834 1527 834 1304 c 0xfd
 834 1175 744 1086 636 1067 c 1
 758 1040 864 942 864 792 c 0
 864 558 671 469 437 469 c 0
 323 469 216 496 136 533 c 1
 198 709 l 1
 260 675 354 649 449 649 c 0
 559 649 638 691 638 797 c 0xfb
 638 926 512 971 386 978 c 1
 386 1154 l 1
EndSplineSet
EndChar

StartChar: questiondown
Encoding: 191 191 131
Width: 1209
GlyphClass: 2
Flags: W
HStem: -65 233<472.443 957.297> 1243 328<658.732 853.711>
VStem: 122 285<228.458 478.689> 599 314<1305.38 1509.05> 631 270<830.149 1150>
LayerCount: 2
Fore
SplineSet
796 1571 m 1xf0
 865 1541 913 1462 913 1363 c 1
 885 1294 813 1243 716 1243 c 1
 648 1274 599 1352 599 1451 c 1
 627 1520 700 1571 796 1571 c 1xf0
901 705 m 1xe8
 724 644 407 575 407 350 c 0
 407 197 526 168 679 168 c 256
 742 168 1026 211 1026 247 c 1
 1100 33 l 1
 985 -25 835 -65 660 -65 c 0
 367 -65 122 37 122 329 c 0
 122 627 386 767 631 841 c 1
 631 1150 l 1
 901 1150 l 1
 901 705 l 1xe8
EndSplineSet
EndChar

StartChar: AE
Encoding: 198 198 138
Width: 1989
GlyphClass: 2
Flags: W
HStem: 0 199<1221 1911> 364 155<554 932> 764 173<1221 1821> 1408 199<1220 1893>
VStem: 932 289<199 364 519 764 937 1408>
LayerCount: 2
Fore
SplineSet
932 1413 m 1
 554 519 l 1
 932 519 l 1
 932 1413 l 1
1893 1408 m 1
 1220 1408 l 1
 1220 937 l 1
 1821 937 l 1
 1821 764 l 1
 1221 764 l 1
 1221 199 l 1
 1911 199 l 1
 1911 0 l 1
 933 0 l 1
 933 364 l 1
 501 364 l 1
 349 0 l 1
 43 0 l 1
 756 1607 l 1
 1893 1607 l 1
 1893 1408 l 1
EndSplineSet
EndChar

StartChar: Eth
Encoding: 208 208 148
Width: 1559
GlyphClass: 2
Flags: W
HStem: 0 199<466 888.113> 729 195<-2 161 466 723> 1414 193<466 873.369>
VStem: 161 305<199 729 924 1414> 1145 309<472.147 1131.4>
LayerCount: 2
Fore
SplineSet
619 199 m 2
 1032 199 1145 392 1145 800 c 0
 1145 1211 1034 1414 619 1414 c 2
 466 1414 l 1
 466 924 l 1
 723 924 l 1
 723 729 l 1
 466 729 l 1
 466 199 l 1
 619 199 l 2
691 1607 m 2
 1212 1607 1454 1319 1454 798 c 0
 1454 289 1203 0 691 0 c 2
 161 0 l 1
 161 729 l 1
 -2 729 l 1
 -2 924 l 1
 161 924 l 1
 161 1607 l 1
 691 1607 l 2
EndSplineSet
EndChar

StartChar: multiply
Encoding: 215 215 155
Width: 1361
GlyphClass: 2
Flags: W
LayerCount: 2
Fore
SplineSet
393 1011 m 1
 699 715 l 1
 1005 1011 l 1
 1159 847 l 1
 861 560 l 1
 1159 272 l 1
 1005 108 l 1
 699 404 l 1
 393 108 l 1
 240 272 l 1
 537 560 l 1
 240 847 l 1
 393 1011 l 1
EndSplineSet
EndChar

StartChar: Oslash
Encoding: 216 216 156
Width: 1612
GlyphClass: 2
Flags: W
HStem: -34 225<668.147 986.102> 1411 225<625.088 992.689>
VStem: 105 308<558.929 1146.33> 1199 308<456.753 1148.8>
LayerCount: 2
Fore
SplineSet
805 -34 m 0
 719 -34 642 -25 575 -4 c 1
 506 -167 l 1
 382 -121 l 1
 452 44 l 1
 212 168 105 433 105 801 c 0
 105 1301 314 1636 800 1636 c 0
 913 1636 1014 1618 1104 1582 c 1
 1179 1759 l 1
 1301 1714 l 1
 1219 1521 l 1
 1415 1386 1507 1132 1507 801 c 0
 1507 302 1304 -34 805 -34 c 0
806 191 m 0
 1129 191 1199 477 1199 801 c 0
 1199 991 1177 1135 1108 1252 c 1
 666 215 l 1
 702 205 752 191 806 191 c 0
809 1411 m 0
 483 1411 413 1129 413 801 c 0
 413 689 428 589 477 526 c 1
 481 426 499 338 554 287 c 1
 1010 1356 l 1
 956 1391 893 1411 809 1411 c 0
EndSplineSet
EndChar

StartChar: Thorn
Encoding: 222 222 162
Width: 1410
GlyphClass: 2
Flags: W
HStem: 304 215.885<497.196 880.557> 1204.67 207.897<537.535 867.122> 1587 20G<156 439>
VStem: 156 294<-136 382 554.547 1176.66 1320 1607> 987 287.603<636.288 1075.23>
LayerCount: 2
Fore
SplineSet
719.384533363 519.885425035 m 0
 904.519432575 519.885425035 987 626.007866824 987 859 c 0
 987 1112.78523923 877.527308163 1204.67424406 696.164753 1204.67424406 c 0
 624.548274705 1204.67424406 541.721984429 1190.34595883 450 1166 c 1
 450 566 l 1
 539.534532586 540.746670296 634.632372134 519.885425035 719.384533363 519.885425035 c 0
1274.60349726 872.785269587 m 0
 1274.60349726 490.440498511 1067.6496882 304 684 304 c 0
 587 304 509 330 450 382 c 1
 450 -136 l 1
 156 -136 l 1
 156 1607 l 1
 439 1607 l 1
 439 1320 l 1
 524.180702424 1372.4188938 641.780536163 1412.57108926 777.036590972 1412.57108926 c 0
 1110.47805699 1412.57108926 1274.60349726 1201.30020187 1274.60349726 872.785269587 c 0
EndSplineSet
EndChar

StartChar: germandbls
Encoding: 223 223 163
Width: 1535
GlyphClass: 2
Flags: W
HStem: -173 236<607 909.296> 0 21G<156 463> 736 186<613 911.817> 1401 206<571.341 935.194>
VStem: 156 307<0 1278.43> 1017 268<1020.12 1321.3> 1158 299<243.417 567.179>
LayerCount: 2
Fore
SplineSet
1158 398 m 0xba
 1158 676 902 736 613 736 c 1
 613 755 612 766 612 789 c 2
 612 922 l 1
 854 922 1017 941 1017 1181 c 0
 1017 1353 905 1401 729 1401 c 256
 494 1401 463 1237 463 999 c 2
 463 0 l 1
 156 0 l 1
 156 1002 l 2
 156 1400 329 1607 729 1607 c 0
 1044 1607 1285 1494 1285 1186 c 0x7c
 1285 981 1165 864 977 843 c 1
 1257 813 1457 686 1457 379 c 0
 1457 -48 1031 -173 607 -173 c 1
 607 63 l 1
 873 80 1158 116 1158 398 c 0xba
EndSplineSet
EndChar

StartChar: ae
Encoding: 230 230 170
Width: 1899
GlyphClass: 2
Flags: W
HStem: -19 207<421.544 728.613 1219.4 1606.03> 537 153<1092 1573> 574.097 161.903<439.491 811.257> 997 212<326.994 755.442 1191.15 1494.38>
VStem: 91 279<241.216 505.902> 814 278<321.634 537 709 881.147> 1573 243<690 906.061>
LayerCount: 2
Fore
SplineSet
1573 690 m 1xde
 1573 869 1519 1010 1346 1010 c 0
 1171 1010 1096 866 1092 690 c 1
 1573 690 l 1xde
1384 188 m 0
 1504 188 1628 228 1693 284 c 1
 1758 89 l 1
 1674 28 1511 -19 1369 -19 c 0
 1149 -19 1025 60 942 199 c 1
 857 67 706 -21 494 -21 c 0
 235 -21 91 108 91 366 c 0
 91 639 300 736 574 736 c 0xbe
 662 736 746 727 814 709 c 1
 814 891 797 997 614 997 c 0
 482 997 299 961 221 902 c 1
 165 1091 l 1
 252 1167 463 1209 618 1209 c 0
 806 1209 924 1158 982 1029 c 1
 1046 1142 1174 1209 1349 1209 c 0
 1658 1209 1816 992 1816 682 c 0
 1816 635 1815 587 1813 537 c 1
 1092 537 l 1
 1095 329 1174 188 1384 188 c 0
661.735859831 574.096923752 m 0
 496.551689476 574.096923752 370 544.610913778 370 381 c 0
 370 248 435 182 566 182 c 0
 674 182 748 240 814 300 c 1
 814 561 l 1
 765.250339368 567.548461876 713.853619912 574.096923752 661.735859831 574.096923752 c 0
EndSplineSet
EndChar

StartChar: igrave
Encoding: 236 236 176
Width: 667
GlyphClass: 2
Flags: W
HStem: 0 21G<203 493> 1165 20G<203 493> 1355 21G<300.325 357.286>
VStem: 203 290<0 1185>
LayerCount: 2
Fore
SplineSet
-40 1912 m 1
 250 2038 l 1
 437 1411 l 1
 313 1355 l 1
 -40 1912 l 1
203 0 m 1
 203 1185 l 1
 493 1185 l 1
 493 0 l 1
 203 0 l 1
EndSplineSet
EndChar

StartChar: iacute
Encoding: 237 237 177
Width: 667
GlyphClass: 2
Flags: W
HStem: 0 21G<203 493> 1165 20G<203 493>
VStem: 203 290<0 1185>
LayerCount: 2
Fore
SplineSet
155 1387 m 1
 344 2010 l 1
 630 1885 l 1
 275 1331 l 1
 155 1387 l 1
203 0 m 1
 203 1185 l 1
 493 1185 l 1
 493 0 l 1
 203 0 l 1
EndSplineSet
EndChar

StartChar: icircumflex
Encoding: 238 238 178
Width: 667
GlyphClass: 2
Flags: W
HStem: 0 21G<203 493> 1165 20G<203 493>
VStem: 203 290<0 1185>
LayerCount: 2
Fore
SplineSet
433 1954 m 1
 708 1372 l 1
 488 1341 l 1
 334 1728 l 1
 180 1341 l 1
 -39 1372 l 1
 237 1954 l 1
 433 1954 l 1
203 0 m 1
 203 1185 l 1
 493 1185 l 1
 493 0 l 1
 203 0 l 1
EndSplineSet
EndChar

StartChar: idieresis
Encoding: 239 239 179
Width: 667
GlyphClass: 2
Flags: W
HStem: 0 21G<203 493> 1165 20G<203 493> 1325 332<-101.246 130.199 508.754 739.813>
VStem: -150 330<1374.8 1607.2> 203 290<0 1185> 460 330<1377.27 1606.81>
LayerCount: 2
Fore
SplineSet
14 1325 m 0xf0
 -83 1325 -150 1394 -150 1491 c 256
 -150 1587 -82 1657 14 1657 c 256
 110 1657 180 1587 180 1491 c 0
 180 1395 110 1325 14 1325 c 0xf0
624 1325 m 0
 527 1325 460 1394 460 1491 c 256
 460 1587 528 1657 624 1657 c 256
 719 1657 790 1586 790 1491 c 0xf4
 790 1396 719 1325 624 1325 c 0
203 0 m 1xf8
 203 1185 l 1
 493 1185 l 1
 493 0 l 1
 203 0 l 1xf8
EndSplineSet
EndChar

StartChar: eth
Encoding: 240 240 180
Width: 1272
GlyphClass: 2
Flags: W
HStem: -18 203<485.052 754.768> 1007 202<485.257 746.322>
VStem: 85 290<324.554 875.424> 886 290<343.976 885.775>
LayerCount: 2
Fore
SplineSet
919 1451 m 1
 1071 1250 1176 1009 1176 654 c 0
 1176 240 1020 -18 611 -18 c 0
 252 -18 85 246 85 603 c 0
 85 928 227 1209 547 1209 c 0
 698 1209 818 1143 884 1057 c 1
 853 1174 770 1290 692 1379 c 1
 453 1305 l 1
 410 1433 l 1
 586 1488 l 1
 527 1543 470 1588 402 1630 c 1
 528 1780 l 1
 638 1715 727 1648 817 1560 c 1
 1113 1653 l 1
 1156 1525 l 1
 919 1451 l 1
610 1007 m 0
 419 1007 375 814 375 597 c 0
 375 392 419 185 619 185 c 0
 810 185 871 356 882 537 c 1
 885 622 886 708 886 796 c 1
 855 921 761 1007 610 1007 c 0
EndSplineSet
EndChar

StartChar: divide
Encoding: 247 247 187
Width: 1163
GlyphClass: 2
Flags: W
HStem: 143 332<481.707 709.34> 570 214<148 1041> 875 332<480.707 708.34>
VStem: 434 322<190.375 427.625 924.801 1157.2>
LayerCount: 2
Fore
SplineSet
595 875 m 0
 498 875 433 945 433 1041 c 256
 433 1137 499 1207 595 1207 c 256
 691 1207 755 1136 755 1041 c 256
 755 946 691 875 595 875 c 0
596 143 m 0
 499 143 434 213 434 309 c 256
 434 405 500 475 596 475 c 256
 692 475 756 404 756 309 c 0
 756 214 692 143 596 143 c 0
148 570 m 1
 148 784 l 1
 1041 784 l 1
 1041 570 l 1
 148 570 l 1
EndSplineSet
EndChar

StartChar: oslash
Encoding: 248 248 188
Width: 1299
GlyphClass: 2
Flags: W
HStem: -18 181<563.448 809.514> 1026 183<489.769 735.275>
VStem: 85 259<337.507 858.861> 960 253<339.016 844.531>
LayerCount: 2
Fore
SplineSet
649 1026 m 0
 423 1026 344 841 344 607 c 0
 344 450 376 290 468 229 c 1
 736 1015 l 1
 712 1024 683 1026 649 1026 c 0
1213 592 m 0
 1213 221 1020 -18 649 -18 c 0
 596 -18 548 -13 503 -3 c 1
 440 -188 l 1
 340 -154 l 1
 402 27 l 1
 197 113 85 306 85 592 c 0
 85 963 277 1209 649 1209 c 0
 702 1209 749 1203 794 1194 c 1
 860 1389 l 1
 957 1355 l 1
 892 1164 l 1
 1097 1078 1213 882 1213 592 c 0
649 163 m 0
 879 163 960 360 960 594 c 0
 960 763 920 891 826 960 c 1
 562 173 l 1
 582 166 611 163 649 163 c 0
EndSplineSet
EndChar

StartChar: thorn
Encoding: 254 254 194
Width: 1331
GlyphClass: 2
Flags: W
HStem: -446 21G<154 445> -18 202<549.11 860.275> 1001 203<575.567 842.126>
VStem: 154 292<-437 115 258.474 924.055 1045 1601> 954 292<302.619 866.833>
LayerCount: 2
Fore
SplineSet
737 184 m 0
 924 184 954 393 954 581 c 0
 954 785 915 1001 715 1001 c 0
 588 1001 514 946 446 891 c 1
 446 291 l 1
 513 230 616 184 737 184 c 0
1246 583 m 0
 1246 246 1091 -18 757 -18 c 0
 616 -18 512 26 445 115 c 1
 445 -437 l 1
 154 -446 l 1
 154 1601 l 1
 441 1601 l 1
 441 1045 l 1
 502 1136 619 1204 765 1204 c 0
 1108 1204 1246 927 1246 583 c 0
EndSplineSet
EndChar

StartChar: OE
Encoding: 338 338 196
Width: 2325
GlyphClass: 2
Flags: W
HStem: -35 227<624.577 985.502> 0 199<1505 2260> 745 186<1505 2154> 1405 202<1505 2249> 1411 224<627.709 984.928>
VStem: 104 309<452.535 1141.34> 1200 305<199 931>
LayerCount: 2
Fore
SplineSet
1200 0 m 1x76
 1200 1607 l 1
 2249 1607 l 1
 2249 1405 l 1
 1505 1405 l 1
 1505 931 l 1
 2154 931 l 1
 2154 745 l 1
 1505 745 l 1
 1505 199 l 1
 2260 199 l 1
 2260 0 l 1
 1200 0 l 1x76
805 1635 m 0xae
 1297 1635 1507 1305 1507 810 c 0
 1507 307 1310 -35 805 -35 c 0
 298 -35 104 312 104 819 c 0
 104 1309 318 1635 805 1635 c 0xae
808 1411 m 0
 486 1411 413 1126 413 798 c 0
 413 476 488 192 805 192 c 0
 1123 192 1199 474 1199 798 c 0
 1199 1123 1126 1411 808 1411 c 0
EndSplineSet
EndChar

StartChar: oe
Encoding: 339 339 197
Width: 2045
GlyphClass: 2
Flags: W
HStem: -32 201<501.902 800.676 1377.39 1729.13> 537 153<1226 1719> 1016 199<512.338 791.5 1349.57 1621.17>
VStem: 86 290<317.796 858.592> 926 300<328.172 537 690 856.549> 1719 243<690 903.234>
LayerCount: 2
Fore
SplineSet
1719 690 m 1
 1719 905 1642 1014 1487 1016 c 1
 1308 1013 1232 866 1225 690 c 1
 1719 690 l 1
376 588 m 0
 376 368 430 169 650 169 c 0
 871 169 926 364 926 588 c 256
 926 812 871 1010 650 1010 c 256
 430 1010 376 811 376 588 c 0
1535 177 m 0
 1672 177 1756 217 1839 281 c 1
 1905 84 l 1
 1801 24 1670 -24 1512 -24 c 0
 1292 -24 1158 51 1076 194 c 1
 1014 50 853 -32 650 -32 c 0
 274 -32 86 210 86 587 c 0
 86 963 271 1210 650 1210 c 0
 868 1210 1004 1124 1072 970 c 1
 1152 1113 1260 1215 1480 1215 c 0
 1800 1215 1962 1006 1962 685 c 0
 1962 634 1961 585 1959 537 c 1
 1226 537 l 1
 1228 321 1320 177 1535 177 c 0
EndSplineSet
EndChar

StartChar: Scaron
Encoding: 352 352 198
Width: 1325
GlyphClass: 2
Flags: W
HStem: -34 225.216<423.108 872.122> 1411 225<454.547 949.628>
VStem: 85 287<1110.63 1339.29> 955 291<269.43 540.796>
LayerCount: 2
Fore
SplineSet
578 1821 m 1
 302 2404 l 1
 522 2435 l 1
 677 2047 l 1
 830 2435 l 1
 1050 2404 l 1
 773 1821 l 1
 578 1821 l 1
686 1411 m 0
 522 1411 372 1381 372 1218 c 0
 372 1117 445 1075 524 1047 c 1
 869 915 l 2
 1067 839 1246 714 1246 443 c 0
 1246 106 1003 -34 658 -34 c 0
 443 -34 268 28 127 104 c 1
 182 323 l 1
 273.593040742 279.763533563 511.151421772 191.216318477 698.951600521 191.216318477 c 0
 841.26196875 191.216318477 955 242.062224317 955 402 c 0
 955 535 875 597 767 637 c 1
 413 778 l 1
 242 845 85 962 85 1196 c 0
 85 1504 342 1636 650 1636 c 0
 861 1636 1045 1580 1175 1503 c 1
 1111 1295 l 1
 1009 1356 848 1411 686 1411 c 0
EndSplineSet
EndChar

StartChar: scaron
Encoding: 353 353 199
Width: 1092
GlyphClass: 2
Flags: W
HStem: -24 201<294.074 687.521> 1016 199<396.964 800.705>
VStem: 103 259<807.715 977.357> 733 271<223.329 419.038>
LayerCount: 2
Fore
SplineSet
450 1393 m 1
 174 1976 l 1
 394 2007 l 1
 549 1619 l 1
 702 2007 l 1
 922 1976 l 1
 645 1393 l 1
 450 1393 l 1
534 177 m 0
 650 177 733 216 733 332 c 0
 733 411 657 445 590 470 c 2
 357 560 l 1
 216 611 103 693 103 886 c 0
 103 1118 310 1215 546 1215 c 0
 698 1215 880 1176 969 1109 c 1
 903 921 l 1
 831 975 678 1016 557 1016 c 0
 445 1016 362 982 362 886 c 0
 362 811 427 791 483 769 c 1
 675 698 l 2
 835 638 1004 558 1004 345 c 0
 1004 90 805 -24 548 -24 c 0
 381 -24 204 19 109 90 c 1
 175 281 l 1
 247 225 412 177 534 177 c 0
EndSplineSet
EndChar

StartChar: florin
Encoding: 402 402 201
Width: 835
GlyphClass: 2
Flags: W
HStem: 1010 132<50 256 554 845> 1494 217<613.737 879.319>
VStem: 226 297<134.052 648.684> 256 293<778.395 1010 1142 1413.55>
LayerCount: 2
Fore
SplineSet
878 1455 m 1xd0
 833 1473 776 1494 713 1494 c 0
 555 1494 560 1302 554 1142 c 1
 849 1142 l 1
 845 1010 l 1
 549 1010 l 1xd0
 523 365 l 1
 512 161 476 9 381 -98 c 1
 264 -98 169 -66 61 -66 c 1
 91 54 l 1
 91 78 145 87 160 99 c 1
 203 153 221 220 226 318 c 2xe0
 256 1010 l 1
 46 1010 l 1
 50 1142 l 1
 260 1142 l 1
 273 1457 340 1711 660 1711 c 0
 758 1711 828 1678 904 1661 c 1
 878 1455 l 1xd0
EndSplineSet
EndChar

StartChar: circumflex
Encoding: 710 710 202
Width: 1331
GlyphClass: 2
Flags: W
HStem: 223 614
LayerCount: 2
Fore
SplineSet
787 837 m 1
 1064 254 l 1
 843 223 l 1
 689 611 l 1
 535 223 l 1
 316 254 l 1
 592 837 l 1
 787 837 l 1
EndSplineSet
EndChar

StartChar: ring
Encoding: 730 730 203
Width: 1256
GlyphClass: 2
Flags: W
HStem: 213 138<510.577 744.58> 688 137<509.955 742.434>
VStem: 306 153<403.167 634.126> 797 154<403.511 634.238>
LayerCount: 2
Fore
SplineSet
628 688 m 0
 530 688 459 617 459 519 c 0
 459 421 530 351 628 351 c 0
 726 351 797 421 797 519 c 256
 797 616 725 688 628 688 c 0
306 522 m 0
 306 701 450 825 629 825 c 0
 812 825 951 699 951 516 c 256
 951 334 804 213 622 213 c 0
 443 213 306 343 306 522 c 0
EndSplineSet
EndChar

StartChar: tilde
Encoding: 732 732 204
Width: 1438
GlyphClass: 2
Flags: W
HStem: 228 198<790.44 951.484> 364 195<505.642 671.394>
VStem: 305 191<246 360.371> 957 198<432.166 529>
LayerCount: 2
Fore
SplineSet
1155 529 m 1xb0
 1155 362 1096 228 942 228 c 0xb0
 818 228 716 298 630 342 c 0
 601 357 577 364 558 364 c 0
 506 364 496 313 496 246 c 1
 305 246 l 1
 305 455 379 559 528 559 c 0x70
 619 559 680 527 743 494 c 1
 791 470 l 2
 826 452 867 426 913 426 c 0
 955 426 957 472 957 529 c 1
 1155 529 l 1xb0
EndSplineSet
EndChar

StartChar: uni0306
Encoding: 774 774 205
Width: 1103
GlyphClass: 2
Flags: W
HStem: 1367 138<440.731 657.101> 1648 20G<233 410 687 863>
VStem: 233 177<1535.33 1668> 687 176<1534.48 1668>
LayerCount: 2
Fore
SplineSet
549 1505 m 256
 652 1505 687 1561 687 1668 c 1
 863 1668 l 1
 863 1463 758 1367 549 1367 c 256
 341 1367 233 1465 233 1668 c 1
 410 1668 l 1
 410 1561 446 1505 549 1505 c 256
EndSplineSet
EndChar

StartChar: uni0E81
Encoding: 3713 3713 206
Width: 1515
VWidth: 2170
GlyphClass: 2
Flags: W
HStem: 0 147<259.276 375.308> 301 131<260.122 382.938> 740 136<262.774 383.828> 992 178<793.909 1085.73> 1026 144<257.139 371.589>
VStem: 76.8281 177<152.345 296.713 882.858 1022.49> 383.828 283<155.638 301 408 744> 1144.83 284<0 925.502>
LayerCount: 2
Fore
SplineSet
1144.828125 747 m 2xf7
 1144.828125 916 1100.828125 992 935.828125 992 c 1xf7
 874.828125 991 783.828125 951 663.828125 871 c 1
 664.828125 853 666.828125 842 666.828125 829 c 2
 666.828125 353 l 2
 666.828125 142 563.828125 0 354.828125 0 c 0
 168.828125 0 76.828125 75 76.828125 226 c 0
 76.828125 339 162.828125 432 275.828125 432 c 1
 293.828125 430 311.828125 431 326.828125 426 c 2
 383.828125 408 l 1
 383.828125 744 l 1
 365.828125 742 347.828125 740 328.828125 740 c 0
 184.828125 740 72.828125 813 72.828125 956 c 0
 72.828125 1109 187.828125 1170 353.828125 1170 c 0xef
 473.828125 1170 561.828125 1122 618.828125 1028 c 1
 730.828125 1102 833.828125 1170 980.828125 1170 c 0
 1278.828125 1170 1428.828125 1012 1428.828125 697 c 2
 1428.828125 0 l 1
 1144.828125 0 l 1
 1144.828125 747 l 2xf7
251.828125 957 m 1
 257.828125 906 283.828125 879 326.828125 876 c 1
 346.828125 876 366.828125 879 383.828125 885 c 1
 383.828125 931 l 1
 378.828125 989 356.828125 1021 318.828125 1026 c 1xef
 275.828125 1026 251.828125 1002 251.828125 957 c 1
326.828125 301 m 2
 279.828125 301 253.828125 276 253.828125 228 c 0
 253.828125 175 275.828125 148 317.828125 147 c 1
 360.828125 148 383.828125 181 383.828125 241 c 2
 383.828125 301 l 1
 326.828125 301 l 2
EndSplineSet
EndChar

StartChar: uni0E82
Encoding: 3714 3714 207
Width: 1317
VWidth: 2170
GlyphClass: 2
Flags: W
HStem: 0 224<337.461 647.459> 127 224<771.183 1074.56> 583 138<350.523 449.737> 1007 163<437.395 920.545>
VStem: 140.454 186<735.079 882.652> 461.454 177<726.165 877.66> 976.454 280<729.405 954.782>
LayerCount: 2
Fore
SplineSet
686.454101562 1170 m 0xbe
 1001.45410156 1170 1256.45410156 1109 1256.45410156 829 c 0
 1256.45410156 570 1010.45410156 491 813.454101562 430 c 2
 675.454101562 387 l 2
 600.454101562 364 431.454101562 343 431.454101562 266 c 0
 431.454101562 231 451.454101562 224 487.454101562 224 c 0xbe
 654.454101562 224 782.454101562 351 971.454101562 351 c 0
 1154.45410156 351 1253.45410156 223 1341.45410156 88 c 1
 1178.45410156 -55 l 1
 1121.45410156 30 1080.45410156 127 953.454101562 127 c 0x7e
 751.454101562 127 642.454101562 0 437.454101562 0 c 0
 243.454101562 0 147.454101562 81 147.454101562 241 c 0
 147.454101562 453 378.454101562 509 549.454101562 566 c 2
 647.454101562 599 l 1
 793.454101562 646 976.454101562 668 976.454101562 860 c 0
 976.454101562 983 834.454101562 1007 693.454101562 1007 c 0
 591.454101562 1007 498.454101562 1007 431.454101562 982 c 1
 442.454101562 984 452.454101562 985 464.454101562 985 c 0
 562.454101562 985 638.454101562 896 638.454101562 797 c 0
 638.454101562 663 534.454101562 583 399.454101562 583 c 0
 226.454101562 583 140.454101562 666 140.454101562 835 c 0
 140.454101562 1096 416.454101562 1170 686.454101562 1170 c 0xbe
399.454101562 721 m 0
 434.454101562 721 459.454101562 767 461.454101562 812 c 1
 461.454101562 860 434.454101562 884 381.454101562 884 c 2
 329.454101562 884 l 1
 327.454101562 874 326.454101562 864 326.454101562 853 c 0
 327.454101562 797 358.454101562 721 399.454101562 721 c 0
EndSplineSet
EndChar

StartChar: uni0E84
Encoding: 3716 3716 208
Width: 1345
VWidth: 2170
GlyphClass: 2
Flags: W
HStem: 0 147<407.577 525.427> 301 129<399.9 523.779> 552 167<432.008 706.525> 991 179<445.084 885.019>
VStem: 116.525 283<151.221 301 409 511.243 750.989 949.547> 530.525 177<151.438 293.812> 975.525 283<0 897.993>
LayerCount: 2
Fore
SplineSet
685.525390625 1170 m 0
 1045.52539062 1170 1258.52539062 1054 1258.52539062 697 c 2
 1258.52539062 0 l 1
 975.525390625 0 l 1
 975.525390625 693 l 2
 975.525390625 912 903.525390625 991 685.525390625 991 c 0
 538.525390625 991 399.525390625 979 399.525390625 862 c 0
 399.525390625 768 454.525390625 719 549.525390625 719 c 2
 706.525390625 719 l 1
 706.525390625 552 l 1
 549.525390625 552 l 2
 447.525390625 552 399.525390625 513 399.525390625 414 c 2
 399.525390625 409 l 1
 423.525390625 416 l 2
 455.525390625 424 470.525390625 430 501.525390625 430 c 0
 622.525390625 430 707.525390625 350 707.525390625 229 c 0
 707.525390625 65 602.525390625 0 427.525390625 0 c 0
 223.525390625 0 116.525390625 148 116.525390625 353 c 0
 116.525390625 520 233.525390625 619 385.525390625 638 c 1
 239.525390625 638 116.525390625 718 116.525390625 862 c 0
 116.525390625 1122 425.525390625 1170 685.525390625 1170 c 0
464.525390625 147 m 0
 510.525390625 147 530.525390625 180 530.525390625 229 c 0
 530.525390625 272 499.525390625 301 453.525390625 301 c 2
 399.525390625 301 l 1
 399.525390625 252 l 2
 399.525390625 192 410.525390625 147 464.525390625 147 c 0
EndSplineSet
EndChar

StartChar: uni0E87
Encoding: 3719 3719 209
Width: 1051
VWidth: 2170
GlyphClass: 2
Flags: W
HStem: -520 157<324.197 636.69> 739 131<241.235 359.657> 1022 147<251.709 366.383 497.383 621.074>
VStem: 61.3828 177<873.209 1000.89> 83.3828 190<-308.833 -190> 366.383 150<877.957 1021.36> 711.383 284<-263.554 888.114>
LayerCount: 2
Fore
SplineSet
995.3828125 21 m 2xf6
 995.3828125 -338 856.3828125 -520 500.3828125 -520 c 0
 246.3828125 -520 84.3828125 -428 83.3828125 -190 c 1
 273.3828125 -190 l 1xee
 273.3828125 -324 352.3828125 -363 490.3828125 -363 c 0
 691.3828125 -363 711.3828125 -224 711.3828125 -18 c 2
 711.3828125 619 l 2
 711.3828125 824 688.3828125 1016 497.3828125 1023 c 1
 510.3828125 988 516.3828125 959 516.3828125 937 c 0
 516.3828125 799 427.3828125 739 284.3828125 739 c 0
 149.3828125 739 61.3828125 815 61.3828125 950 c 0
 61.3828125 1115 256.3828125 1169 428.3828125 1169 c 0
 806.3828125 1169 995.3828125 988 995.3828125 625 c 2
 995.3828125 21 l 2xf6
296.3828125 870 m 0
 347.3828125 870 366.3828125 905 366.3828125 956 c 2
 366.3828125 1022 l 1
 281.3828125 1015 238.3828125 986 238.3828125 937 c 0xf6
 238.3828125 897 256.3828125 870 296.3828125 870 c 0
EndSplineSet
EndChar

StartChar: uni0E88
Encoding: 3720 3720 210
Width: 1421
VWidth: 2170
GlyphClass: 2
Flags: W
HStem: 405 132<563.366 684.339> 695 145<559.491 668.12> 991 179<444.719 927.549>
VStem: 38.4951 252<719 862.98> 375.495 177<547.069 690.883> 1068.5 263<140 859.469>
LayerCount: 2
Fore
SplineSet
642.495117188 840 m 0
 1055.49511719 840 866.495117188 342 1068.49511719 140 c 1
 1068.49511719 676 l 2
 1068.49511719 910 935.495117188 991 694.495117188 991 c 0
 480.495117188 991 290.495117188 929 290.495117188 719 c 1
 38.4951171875 719 l 1
 41.4951171875 1062 346.495117188 1170 700.495117188 1170 c 0
 1098.49511719 1170 1331.49511719 1018 1331.49511719 625 c 2
 1331.49511719 18 l 1
 1055.49511719 -82 l 1
 1010.49511719 -56 l 2
 837.495117188 42 736.495117188 206 694.495117188 431 c 1
 644.495117188 416 l 2
 623.495117188 410 598.495117188 405 574.495117188 405 c 0
 454.495117188 405 375.495117188 493 375.495117188 613 c 0
 375.495117188 765 487.495117188 840 642.495117188 840 c 0
683.495117188 573 m 2
 683.495117188 642 673.495117188 695 618.495117188 695 c 0
 576.495117188 695 552.495117188 659 552.495117188 613 c 0
 552.495117188 561 589.495117188 537 643.495117188 537 c 2
 684.495117188 537 l 1
 683.495117188 540 683.495117188 545 683.495117188 551 c 2
 683.495117188 573 l 2
EndSplineSet
EndChar

StartChar: uni0E8A
Encoding: 3722 3722 211
Width: 1305
VWidth: 2170
GlyphClass: 2
Flags: W
HStem: 0 223<342.983 631.827> 145 218<811.479 1109.45> 580 147<339.423 455.476> 884 93<428.454 454.815> 1017 153<430.12 911.629>
VStem: 140.454 186<733.111 882.478> 461.454 177<732.572 877.39> 979.454 279<712.256 953.265> 1024.45 249<-353 139.532>
LayerCount: 2
Fore
SplineSet
330.454101562 884 m 1x3e
 328.454101562 870 326.454101562 860 326.454101562 849 c 0
 328.454101562 768 350.454101562 728 390.454101562 727 c 1
 438.454101562 727 461.454101562 756 461.454101562 812 c 1
 458.454101562 859 428.454101562 884 376.454101562 884 c 2
 330.454101562 884 l 1x3e
147.454101562 241 m 0
 148.454101562 597 979.454101562 482 979.454101562 833 c 0
 979.454101562 988 851.454101562 1017 687.454101562 1017 c 0
 566.454101562 1017 484.454101562 1009 428.454101562 977 c 1
 434.454101562 977 444.454101562 977 450.454101562 977 c 0
 543.454101562 977 638.454101562 910 638.454101562 798 c 0
 638.454101562 667 534.454101562 580 400.454101562 580 c 0
 229.454101562 580 140.454101562 664 140.454101562 835 c 0
 140.454101562 1095 417.454101562 1170 686.454101562 1170 c 0
 1068.45410156 1170 1258.45410156 1052 1258.45410156 817 c 0
 1258.45410156 594 1084.45410156 520 911.454101562 463 c 2
 681.454101562 387 l 2
 601.454101562 361 435.454101562 341 428.454101562 264 c 1
 429.454101562 238 446.454101562 223 475.454101562 223 c 0xbf
 627.454101562 223 839.454101562 363 1027.45410156 363 c 0
 1191.45410156 363 1273.45410156 272 1273.45410156 91 c 2
 1273.45410156 -353 l 5
 1024.45410156 -353 l 5
 1024.45410156 72 l 2
 1024.45410156 128 1005.45410156 145 953.454101562 145 c 0x7e80
 807.454101562 145 615.454101562 0 432.454101562 0 c 0xbe80
 257.454101562 0 147.454101562 75 147.454101562 241 c 0
EndSplineSet
EndChar

StartChar: uni0E8D
Encoding: 3725 3725 212
Width: 1334
VWidth: 2170
GlyphClass: 2
Flags: W
HStem: 0 178<453.106 894.633> 450 167<443.545 716.969> 739 130<398.767 545.528> 1034 136<402.013 543.403>
VStem: 127.969 283<221.771 417.463> 127.969 262<669.312 793 869 1011.26> 551.969 166<876.861 1028.04> 986.969 283<278.819 1170>
LayerCount: 2
Fore
SplineSet
695.96875 178 m 0xfb
 914.96875 178 986.96875 258 986.96875 477 c 2
 986.96875 1170 l 1
 1269.96875 1170 l 1
 1269.96875 473 l 2
 1269.96875 102 1045.96875 0 669.96875 0 c 0
 389.96875 0 127.96875 63 127.96875 307 c 0xfb
 127.96875 454 261.96875 518 427.96875 531 c 1
 259.96875 549 127.96875 651 127.96875 817 c 0
 127.96875 1021 237.96875 1170 438.96875 1170 c 0
 613.96875 1170 717.96875 1104 717.96875 940 c 0
 717.96875 824 634.96875 739 518.96875 739 c 0
 470.96875 739 426.96875 749 389.96875 793 c 1xf7
 389.96875 669 438.96875 617 559.96875 617 c 2
 716.96875 617 l 1
 716.96875 450 l 1
 559.96875 450 l 2
 464.96875 450 410.96875 401 410.96875 307 c 0
 410.96875 190 548.96875 178 695.96875 178 c 0xfb
464.96875 869 m 2
 520.96875 869 551.96875 893 551.96875 941 c 0
 551.96875 996 528.96875 1034 475.96875 1034 c 0
 406.96875 1034 389.96875 983 389.96875 918 c 2
 389.96875 869 l 1xf7
 464.96875 869 l 2
EndSplineSet
EndChar

StartChar: uni0E94
Encoding: 3732 3732 213
Width: 1360
VWidth: 2170
GlyphClass: 2
Flags: W
HStem: 0 147<417.341 535.226> 300 130<410.578 532.831> 991 179<498.452 898.825>
VStem: 127.969 282<155.225 300 408 897.592> 539.969 176<149.375 294.515> 989.969 285<0 897.192>
LayerCount: 2
Fore
SplineSet
989.96875 693 m 2
 989.96875 913 917.96875 991 698.96875 991 c 0
 485.96875 991 409.96875 917 409.96875 704 c 2
 409.96875 408 l 1
 448.96875 421 l 2
 467.96875 427 492.96875 430 515.96875 430 c 0
 637.96875 430 715.96875 342 715.96875 219 c 0
 715.96875 55 605.96875 0 427.96875 0 c 0
 230.96875 0 127.96875 156 127.96875 355 c 2
 127.96875 697 l 2
 127.96875 1053 339.96875 1170 698.96875 1170 c 0
 1057.96875 1170 1274.96875 1052 1274.96875 697 c 2
 1274.96875 0 l 1
 989.96875 0 l 1
 989.96875 693 l 2
478.96875 147 m 0
 520.96875 147 539.96875 179 539.96875 225 c 0
 539.96875 272 510.96875 300 462.96875 300 c 2
 409.96875 300 l 1
 409.96875 241 l 2
 409.96875 184 425.96875 147 478.96875 147 c 0
EndSplineSet
EndChar

StartChar: uni0E95
Encoding: 3733 3733 214
Width: 1660
VWidth: 2170
GlyphClass: 2
Flags: W
HStem: 0 147<417.926 534.706> 299 135<411.594 535.442> 991 179<454.336 668.871 1038.28 1241.09>
VStem: 127.969 283<156.977 299 410 944.513> 540.969 177<150.235 293.949> 712.969 284<558 948.943> 1291.97 284<0 934.178>
LayerCount: 2
Fore
SplineSet
854.96875 994 m 1xfa
 896.96875 1104 1009.96875 1170 1163.96875 1170 c 0
 1438.96875 1170 1575.96875 1011 1575.96875 693 c 2
 1575.96875 0 l 1
 1291.96875 0 l 1
 1291.96875 713 l 2
 1291.96875 862 1280.96875 991 1129.96875 991 c 0
 1010.96875 991 996.96875 867 996.96875 748 c 2
 996.96875 558 l 1
 712.96875 558 l 1
 712.96875 709 l 2xf6
 712.96875 844 708.96875 991 573.96875 991 c 0
 425.96875 991 410.96875 900 410.96875 748 c 2
 410.96875 410 l 1
 450.96875 423 l 2
 473.96875 430 487.96875 434 518.96875 434 c 0
 637.96875 434 717.96875 339 717.96875 219 c 0
 717.96875 60 607.96875 0 436.96875 0 c 0
 239.96875 0 127.96875 139 127.96875 337 c 2
 127.96875 697 l 2
 127.96875 1008 249.96875 1170 548.96875 1170 c 0
 703.96875 1170 814.96875 1108 854.96875 994 c 1xfa
479.96875 147 m 0
 520.96875 147 540.96875 180 540.96875 225 c 0xfa
 539.96875 275 514.96875 299 462.96875 299 c 2
 410.96875 299 l 1
 410.96875 235 l 2
 410.96875 182 430.96875 147 479.96875 147 c 0
EndSplineSet
EndChar

StartChar: uni0E96
Encoding: 3734 3734 215
Width: 1434
VWidth: 2170
GlyphClass: 2
Flags: W
HStem: 0 147<491.526 700.586> 300 129<578.377 694.566> 761 154<175.876 292.695> 991 179<645.177 993.935> 1040 130<173.95 282.804>
VStem: -5.20117 177<917.806 1038.49> 293.799 284<156.641 300 409 767 917.162 932.948> 706.799 176<150.12 290.349> 1092.8 284<-330 894.356>
LayerCount: 2
Fore
SplineSet
848.798828125 1170 m 0xf780
 1163.79882812 1170 1376.79882812 1015 1376.79882812 702 c 2
 1376.79882812 -330 l 1
 1092.79882812 -330 l 1
 1092.79882812 701 l 2
 1092.79882812 895 1016.79882812 991 825.798828125 991 c 0xf780
 720.798828125 991 655.798828125 956 577.798828125 907 c 1
 577.798828125 409 l 1
 614.798828125 422 l 2
 632.798828125 428 654.798828125 429 677.798828125 429 c 0
 798.798828125 429 882.798828125 340 882.798828125 219 c 0
 882.798828125 73 786.798828125 0 592.798828125 0 c 0
 392.798828125 0 293.798828125 157 293.798828125 359 c 2
 293.798828125 767 l 1
 271.798828125 763 243.798828125 761 212.798828125 761 c 256
 86.798828125 761 -5.201171875 839 -5.201171875 965 c 0
 -5.201171875 1111 93.798828125 1170 248.798828125 1170 c 0xef80
 352.798828125 1170 439.798828125 1137 508.798828125 1070 c 1
 619.798828125 1137 732.798828125 1170 848.798828125 1170 c 0xf780
641.798828125 147 m 1
 681.798828125 147 706.798828125 177 706.798828125 220 c 1
 702.798828125 271 675.798828125 298 625.798828125 300 c 1
 577.798828125 300 l 1
 577.798828125 240 l 1
 584.798828125 184 606.798828125 152 641.798828125 147 c 1
229.798828125 1040 m 0xef80
 190.798828125 1040 172.798828125 1015 171.798828125 978 c 1
 172.798828125 936 189.798828125 915 224.798828125 915 c 0
 244.798828125 915 268.798828125 920 293.798828125 931 c 1
 290.798828125 1004 268.798828125 1040 229.798828125 1040 c 0xef80
EndSplineSet
EndChar

StartChar: uni0E97
Encoding: 3735 3735 216
Width: 1543
VWidth: 2170
GlyphClass: 2
Flags: W
HStem: 0 177<464.883 642.977> 739 131<202.523 281.527> 991 179<997.56 1153.86> 1023 147<199.092 331.449>
VStem: 16.6465 177<878.802 1016.91> 172.646 267<201.306 505.656> 337.646 248<871.828 1018.02> 691.646 283<229.348 972.728> 1179.65 284<0 972.446>
LayerCount: 2
Fore
SplineSet
974.646484375 491 m 2xe580
 974.646484375 181 856.646484375 0 560.646484375 0 c 0
 327.646484375 0 172.646484375 90 172.646484375 313 c 0xe580
 172.646484375 353 182.646484375 385 192.646484375 422 c 2
 282.646484375 747 l 1
 258.646484375 740 241.646484375 739 213.646484375 739 c 0
 93.646484375 739 16.646484375 834 16.646484375 955 c 0
 16.646484375 1108 135.646484375 1170 301.646484375 1170 c 0
 446.646484375 1170 585.646484375 1099 585.646484375 956 c 0xdb80
 585.646484375 932 582.646484375 909 576.646484375 889 c 1
 444.646484375 367 l 1
 442.646484375 351 439.646484375 334 439.646484375 317 c 2
 439.646484375 305 l 1
 444.646484375 219 483.646484375 177 556.646484375 177 c 0
 682.646484375 177 691.646484375 328 691.646484375 484 c 2
 691.646484375 781 l 2
 691.646484375 1050 823.646484375 1170 1091.64648438 1170 c 0
 1367.64648438 1170 1463.64648438 1009 1463.64648438 724 c 2
 1463.64648438 0 l 1
 1179.64648438 0 l 1
 1179.64648438 726 l 2
 1179.64648438 744 1179.64648438 762 1179.64648438 781 c 0
 1179.64648438 884 1172.64648438 991 1082.64648438 991 c 0
 983.646484375 991 974.646484375 908 974.646484375 806 c 2
 974.646484375 491 l 2xe580
263.646484375 1023 m 0xdb80
 216.646484375 1023 193.646484375 995 193.646484375 946 c 0
 194.646484375 896 225.646484375 870 284.646484375 870 c 2
 315.646484375 870 l 1
 333.646484375 932 l 1
 336.646484375 937 337.646484375 944 337.646484375 955 c 0
 337.646484375 997 308.646484375 1023 263.646484375 1023 c 0xdb80
EndSplineSet
EndChar

StartChar: uni0E99
Encoding: 3737 3737 217
Width: 1506
VWidth: 2170
GlyphClass: 2
Flags: W
HStem: 0 177<133.828 275.719 747.312 1078.63> 740 130<256.739 376.728> 1023 147<254.001 369.824>
VStem: 72.8281 177<878.942 1020.57> 378.828 283<285.823 762 870 1013.99> 1155.83 283<255.847 1170>
LayerCount: 2
Fore
SplineSet
72.828125 953 m 0
 72.828125 1110 186.828125 1170 358.828125 1170 c 0
 555.828125 1170 661.828125 1023 661.828125 824 c 2
 661.828125 495 l 2
 661.828125 289 708.828125 177 910.828125 177 c 0
 1103.828125 177 1155.828125 268 1155.828125 462 c 2
 1155.828125 1170 l 1
 1438.828125 1170 l 1
 1438.828125 498 l 2
 1438.828125 162 1257.828125 0 918.828125 0 c 0
 705.828125 0 553.828125 80 511.828125 249 c 1
 473.828125 84 342.828125 0 133.828125 0 c 1
 133.828125 180 l 1
 296.828125 181 378.828125 285 378.828125 493 c 2
 378.828125 762 l 1
 333.828125 747 301.828125 740 279.828125 740 c 0
 153.828125 740 72.828125 826 72.828125 953 c 0
249.828125 946 m 0
 249.828125 896 282.828125 870 333.828125 870 c 2
 378.828125 870 l 1
 378.828125 930 l 2
 378.828125 989 356.828125 1020 310.828125 1023 c 1
 269.828125 1023 249.828125 998 249.828125 946 c 0
EndSplineSet
EndChar

StartChar: uni0E9A
Encoding: 3738 3738 218
Width: 1425
VWidth: 2170
GlyphClass: 2
Flags: W
HStem: 0 177<528.341 955.619> 739 129<200.295 281.661> 1023 147<201.001 329.721>
VStem: 16.6465 177<876.3 1018.22> 187.646 266<244.231 563.414> 335.646 240<871.282 948 951 1015.77> 1061.65 284<282.356 1170>
LayerCount: 2
Fore
SplineSet
16.646484375 950 m 0xf2
 16.646484375 1104 124.646484375 1170 290.646484375 1170 c 0
 447.646484375 1170 575.646484375 1079 575.646484375 923 c 0xf6
 575.646484375 843 547.646484375 771 523.646484375 672 c 2
 473.646484375 475 l 2
 459.646484375 423 453.646484375 379 453.646484375 344 c 0
 453.646484375 219 597.646484375 177 728.646484375 177 c 0
 951.646484375 177 1061.64648438 234 1061.64648438 454 c 2
 1061.64648438 1170 l 1
 1345.64648438 1170 l 1
 1345.64648438 507 l 2
 1345.64648438 133 1121.64648438 0 732.646484375 0 c 0
 451.646484375 0 187.646484375 88 187.646484375 360 c 0xea
 187.646484375 399 196.646484375 437 206.646484375 472 c 2
 282.646484375 748 l 1
 261.646484375 742 238.646484375 739 216.646484375 739 c 0
 98.646484375 739 16.646484375 832 16.646484375 950 c 0xf2
336.646484375 951 m 1
 336.646484375 998 307.646484375 1023 258.646484375 1023 c 0
 215.646484375 1023 193.646484375 996 193.646484375 942 c 0
 193.646484375 893 224.646484375 869 288.646484375 868 c 1
 295.646484375 868 l 1
 296.646484375 869 299.646484375 869 305.646484375 869 c 2
 314.646484375 869 l 1
 323.646484375 898 l 2
 326.646484375 908 335.646484375 935 335.646484375 948 c 1
 336.646484375 951 l 1
EndSplineSet
EndChar

StartChar: uni0E9B
Encoding: 3739 3739 219
Width: 1435
VWidth: 2170
GlyphClass: 2
Flags: W
HStem: 0 177<530.496 955.398> 739 129<199.429 282.661> 1023 147<200.461 330.538>
VStem: 16.6465 177<875.631 1016.52> 187.646 266<243.158 566.055> 336.646 239<868.445 1017.23> 1070.65 284<296.612 1513>
LayerCount: 2
Fore
SplineSet
16.646484375 950 m 0xf2
 16.646484375 1102 143.646484375 1170 298.646484375 1170 c 0
 454.646484375 1170 575.646484375 1077 575.646484375 922 c 0xf6
 575.646484375 870 562.646484375 827 547.646484375 768 c 2
 473.646484375 475 l 2
 459.646484375 423 453.646484375 381 453.646484375 346 c 0
 453.646484375 215 593.646484375 177 748.646484375 177 c 0
 968.646484375 177 1070.64648438 259 1070.64648438 478 c 2
 1070.64648438 1513 l 1
 1354.64648438 1513 l 1
 1354.64648438 512 l 2
 1354.64648438 131 1120.64648438 0 736.646484375 0 c 0
 456.646484375 0 187.646484375 87 187.646484375 359 c 0xea
 187.646484375 413 203.646484375 461 216.646484375 510 c 2
 283.646484375 747 l 1
 262.646484375 742 239.646484375 739 215.646484375 739 c 0
 98.646484375 739 16.646484375 832 16.646484375 950 c 0xf2
336.646484375 956 m 1
 336.646484375 998 311.646484375 1023 268.646484375 1023 c 0
 218.646484375 1022 193.646484375 994 193.646484375 942 c 0
 193.646484375 892 223.646484375 868 282.646484375 868 c 2
 315.646484375 868 l 1
 326.646484375 908 l 2
 331.646484375 926 333.646484375 940 336.646484375 956 c 1
EndSplineSet
EndChar

StartChar: uni0E9C
Encoding: 3740 3740 220
Width: 1671
VWidth: 2170
GlyphClass: 2
Flags: W
HStem: 0 177<469.91 649.265 1024.24 1203.3> 740 130<435.359 556.794 1125.58 1245.86> 1023 147<442.136 559.726 1120.86 1237.15>
VStem: 150.858 283<218.359 760 870 1015.75> 564.858 177<880.328 1020.92> 696.858 284<229.467 588> 939.858 176<879.221 1017.52> 1245.86 283<220.77 747> 1487.86 175<1039.19 1305>
LayerCount: 2
Fore
SplineSet
1245.85839844 930 m 2xf3
 1245.85839844 985 1227.85839844 1021 1178.85839844 1023 c 1
 1139.85839844 1023 1115.85839844 990 1115.85839844 948 c 0
 1115.85839844 896 1145.85839844 870 1205.85839844 870 c 2
 1226.85839844 870 l 2
 1232.85839844 870 1240.85839844 870 1245.85839844 871 c 1
 1245.85839844 930 l 2xf3
564.858398438 950 m 0xf8
 564.858398438 993 544.858398438 1023 501.858398438 1023 c 1
 455.858398438 1020 433.858398438 989 433.858398438 930 c 2
 433.858398438 870 l 1
 478.858398438 870 l 1
 530.858398438 873 564.858398438 897 564.858398438 950 c 0xf8
1245.85839844 747 m 1xf5
 1216.85839844 741 1184.85839844 740 1148.85839844 740 c 0
 1021.85839844 740 939.858398438 826 939.858398438 954 c 0
 939.858398438 1112 1053.85839844 1170 1223.85839844 1170 c 0
 1347.85839844 1170 1426.85839844 1118 1473.85839844 1035 c 1
 1483.85839844 1060 1487.85839844 1096 1487.85839844 1142 c 2
 1487.85839844 1305 l 1
 1662.85839844 1305 l 1
 1662.85839844 1142 l 2xf280
 1662.85839844 1014 1600.85839844 931 1523.85839844 866 c 1
 1525.85839844 835 1528.85839844 808 1528.85839844 778 c 2
 1528.85839844 511 l 2
 1528.85839844 171 1403.85839844 0 1153.85839844 0 c 0
 971.858398438 0 864.858398438 76 835.858398438 228 c 1
 807.858398438 76 702.858398438 0 519.858398438 0 c 0
 240.858398438 0 150.858398438 213 150.858398438 511 c 2
 150.858398438 810 l 2
 150.858398438 1019 245.858398438 1170 452.858398438 1170 c 0
 627.858398438 1170 741.858398438 1114 741.858398438 953 c 0xf9
 741.858398438 829 658.858398438 740 533.858398438 740 c 0
 498.858398438 740 465.858398438 746 433.858398438 760 c 1
 433.858398438 429 l 2
 433.858398438 304 440.858398438 177 559.858398438 177 c 0
 670.858398438 177 696.858398438 298 696.858398438 429 c 2
 696.858398438 588 l 1
 980.858398438 588 l 1
 980.858398438 431 l 2
 980.858398438 297 1002.85839844 177 1116.85839844 177 c 256
 1229.85839844 177 1245.85839844 293 1245.85839844 427 c 2
 1245.85839844 747 l 1xf5
EndSplineSet
EndChar

StartChar: uni0E9D
Encoding: 3741 3741 221
Width: 1649
VWidth: 2170
GlyphClass: 2
Flags: W
HStem: 0 177<477.152 686.705 1063.37 1266.92> 740 130<435.103 551.485> 1023 147<346.687 556.874>
VStem: 149.817 283<230.136 761 870 1016.44> 563.817 176<882.557 1019.26> 732.817 284<230.185 588> 1311.82 284<222.841 1513>
LayerCount: 2
Fore
SplineSet
432.817382812 429 m 2xfa
 432.817382812 289 445.817382812 177 581.817382812 177 c 0
 711.817382812 177 732.817382812 283 732.817382812 429 c 2
 732.817382812 588 l 1
 1016.81738281 588 l 1
 1016.81738281 429 l 2xf6
 1016.81738281 288 1039.81738281 177 1159.81738281 177 c 0
 1288.81738281 177 1311.81738281 284 1311.81738281 429 c 2
 1311.81738281 1513 l 1
 1595.81738281 1513 l 1
 1595.81738281 511 l 2
 1595.81738281 200 1491.81738281 0 1201.81738281 0 c 0
 1002.81738281 0 910.817382812 77 872.817382812 228 c 1
 846.817382812 82 745.817382812 0 575.817382812 0 c 0
 259.817382812 0 149.817382812 193 149.817382812 511 c 2
 149.817382812 820 l 2
 149.817382812 1015 253.817382812 1170 446.817382812 1170 c 0
 641.817382812 1170 739.817382812 1099 739.817382812 956 c 0
 739.817382812 828 661.817382812 740 533.817382812 740 c 0
 515.817382812 740 481.817382812 747 432.817382812 761 c 1
 432.817382812 429 l 2xfa
563.817382812 953 m 1xfa
 563.817382812 991 540.817382812 1023 501.817382812 1023 c 0
 455.817382812 1023 432.817382812 993 432.817382812 930 c 2
 432.817382812 870 l 1
 476.817382812 870 l 1
 531.817382812 877 560.817382812 905 563.817382812 953 c 1xfa
EndSplineSet
EndChar

StartChar: uni0E9E
Encoding: 3742 3742 222
Width: 1607
VWidth: 2170
GlyphClass: 2
Flags: W
HStem: 0 177<477.017 665.209 1029 1218.26> 739 130<199.173 280.663> 1023 147<199.855 330.778>
VStem: 16.6465 177<875.517 1016.59> 186.646 267<200.294 562.383> 335.646 240<883.597 1018.46> 703.646 284<247.551 1169> 1255.65 283<215.967 1170>
LayerCount: 2
Fore
SplineSet
285.646484375 1170 m 0xf3
 440.646484375 1170 575.646484375 1087 575.646484375 934 c 0xf7
 575.646484375 915 570.646484375 883 562.646484375 837 c 1
 467.646484375 457 l 1
 460.646484375 410 453.646484375 371 453.646484375 326 c 0
 453.646484375 227 489.646484375 178 562.646484375 177 c 1
 689.646484375 177 703.646484375 278 703.646484375 407 c 2
 703.646484375 1169 l 1
 987.646484375 1169 l 1
 987.646484375 407 l 2
 987.646484375 273 1012.64648438 177 1126.64648438 177 c 0
 1240.64648438 177 1255.64648438 276 1255.64648438 406 c 2
 1255.64648438 1170 l 1
 1538.64648438 1170 l 1
 1538.64648438 512 l 2
 1538.64648438 207 1445.64648438 0 1163.64648438 0 c 0
 985.646484375 0 879.646484375 82 844.646484375 245 c 1
 819.646484375 88 712.646484375 0 526.646484375 0 c 0
 312.646484375 0 186.646484375 116 186.646484375 330 c 0xeb
 186.646484375 382 192.646484375 427 205.646484375 470 c 2
 281.646484375 747 l 1
 260.646484375 742 240.646484375 739 215.646484375 739 c 0
 96.646484375 739 16.646484375 830 16.646484375 950 c 0
 16.646484375 1104 121.646484375 1170 285.646484375 1170 c 0xf3
335.646484375 955 m 0
 335.646484375 1003 309.646484375 1023 262.646484375 1023 c 1
 220.646484375 1019 196.646484375 994 193.646484375 948 c 1
 193.646484375 890 223.646484375 869 283.646484375 869 c 2
 314.646484375 869 l 1
 326.646484375 915 l 2
 328.646484375 925 335.646484375 943 335.646484375 955 c 0
EndSplineSet
EndChar

StartChar: uni0E9F
Encoding: 3743 3743 223
Width: 1603
VWidth: 2170
GlyphClass: 2
Flags: W
HStem: 0 177<469.596 649.959 1012.81 1205.75> 765 115<184.434 274.656> 1037 133<188.593 320.047>
VStem: 16.6465 162<889.268 1027.11> 171.646 266<202.28 560.062> 325.646 243<904 1029.11> 688.646 283<248.71 1169> 1239.65 283<220.836 1514>
LayerCount: 2
Fore
SplineSet
189.646484375 765 m 0xeb
 77.646484375 765 16.646484375 845 16.646484375 962 c 0
 16.646484375 1111 133.646484375 1170 297.646484375 1170 c 0
 435.646484375 1170 568.646484375 1106 568.646484375 971 c 256xf7
 568.646484375 942 561.646484375 897 546.646484375 834 c 2
 459.646484375 478 l 2
 446.646484375 426 437.646484375 389 437.646484375 344 c 0
 437.646484375 233 475.646484375 177 550.646484375 177 c 0
 674.646484375 177 688.646484375 281 688.646484375 407 c 2
 688.646484375 1169 l 1
 971.646484375 1169 l 1
 971.646484375 406 l 2
 971.646484375 272 994.646484375 177 1111.64648438 177 c 0
 1230.64648438 177 1239.64648438 285 1239.64648438 407 c 2
 1239.64648438 1514 l 1
 1522.64648438 1514 l 1
 1522.64648438 512 l 2
 1522.64648438 171 1397.64648438 0 1148.64648438 0 c 0
 970.646484375 0 860.646484375 82 827.646484375 245 c 1
 796.646484375 87 693.646484375 5 520.646484375 0 c 1
 510.646484375 0 l 1
 284.646484375 1 171.646484375 109 171.646484375 336 c 0
 171.646484375 386 179.646484375 430 193.646484375 479 c 2
 275.646484375 779 l 1
 254.646484375 769 225.646484375 765 189.646484375 765 c 0xeb
252.646484375 1037 m 1
 205.646484375 1030 181.646484375 1003 178.646484375 962 c 1
 178.646484375 887 221.646484375 880 303.646484375 880 c 1
 311.646484375 904 l 1
 325.646484375 968 l 1
 325.646484375 974 l 1
 324.646484375 1014 300.646484375 1036 252.646484375 1037 c 1
EndSplineSet
EndChar

StartChar: uni0EA1
Encoding: 3745 3745 224
Width: 1764
VWidth: 2170
GlyphClass: 2
Flags: W
HStem: 0 177<983.774 1303.83> 0 148<225.78 343.495> 300 131<220.807 336.719>
VStem: 38.4951 178<163.679 295.517> 343.495 150<176.66 295.714> 606.495 284<281.629 1170> 1391.5 283<273.428 1170>
LayerCount: 2
Fore
SplineSet
890.495117188 506 m 2x7e
 890.495117188 302 947.495117188 177 1134.49511719 177 c 0
 1324.49511719 177 1391.49511719 272 1391.49511719 464 c 2
 1391.49511719 1170 l 1
 1674.49511719 1170 l 1
 1674.49511719 507 l 2
 1674.49511719 169 1500.49511719 0 1153.49511719 0 c 0xbe
 944.495117188 0 787.495117188 84 746.495117188 250 c 1
 707.495117188 88 537.495117188 0 335.495117188 0 c 0
 169.495117188 0 38.4951171875 65 38.4951171875 228 c 0
 38.4951171875 353 130.495117188 431 256.495117188 431 c 0
 397.495117188 431 493.495117188 373 493.495117188 238 c 0
 493.495117188 209 489.495117188 190 482.495117188 176 c 1
 565.495117188 228 606.495117188 335 606.495117188 498 c 2
 606.495117188 1170 l 1
 890.495117188 1170 l 1
 890.495117188 506 l 2x7e
278.495117188 300 m 0
 238.495117188 300 216.495117188 270 216.495117188 231 c 0
 216.495117188 163 271.495117188 152 343.495117188 148 c 1x7e
 343.495117188 225 l 1
 338.495117188 267 323.495117188 300 278.495117188 300 c 0
EndSplineSet
EndChar

StartChar: uni0EA2
Encoding: 3746 3746 225
Width: 1353
VWidth: 2170
GlyphClass: 2
Flags: W
HStem: 0 178<468.54 910.533> 450 167<453.373 729.454> 738 131<425.314 548.2> 1023 147<431.715 547.188>
VStem: 140.454 283<221.309 419.578 656.459 761 869 1018.78> 553.454 177<875.409 1019.24> 998.454 283<261.585 1511.22>
LayerCount: 2
Fore
SplineSet
423.454101562 311 m 0
 423.454101562 185 574.454101562 178 708.454101562 178 c 0
 915.454101562 178 998.454101562 241 998.454101562 448 c 2
 998.454101562 1137 l 2
 998.454101562 1318 1020.45410156 1466 1066.45410156 1578 c 1
 1333.45410156 1578 l 1
 1299.45410156 1439 1281.45410156 1291 1281.45410156 1113 c 2
 1281.45410156 473 l 2
 1281.45410156 116 1067.45410156 0 708.454101562 0 c 0
 414.454101562 0 140.454101562 54 140.454101562 307 c 0
 140.454101562 454 259.454101562 531 408.454101562 531 c 1
 255.454101562 547 140.454101562 648 140.454101562 817 c 0
 140.454101562 1022 248.454101562 1170 450.454101562 1170 c 0
 637.454101562 1170 730.454101562 1094 730.454101562 940 c 0
 730.454101562 819 641.454101562 738 520.454101562 738 c 0
 482.454101562 738 463.454101562 748 423.454101562 761 c 1
 423.454101562 755 l 2
 423.454101562 657 473.454101562 617 572.454101562 617 c 2
 729.454101562 617 l 1
 729.454101562 450 l 1
 572.454101562 450 l 2
 477.454101562 450 423.454101562 405 423.454101562 311 c 0
477.454101562 869 m 2
 522.454101562 869 553.454101562 895 553.454101562 941 c 0
 553.454101562 995 530.454101562 1023 487.454101562 1023 c 0
 444.454101562 1022 423.454101562 987 423.454101562 918 c 2
 423.454101562 869 l 1
 477.454101562 869 l 2
EndSplineSet
EndChar

StartChar: uni0EA3
Encoding: 3747 3747 226
Width: 1348
VWidth: 2170
GlyphClass: 2
Flags: W
HStem: 0 174<385.156 915.146> 201 98<378.677 410.34> 455 145<294.853 407.94> 991 179<410.966 930.331>
VStem: 94.6768 186<299.85 447.326> 109.677 284<861.953 972.214> 415.677 176<308.86 451.169> 988.677 256<810 933.805> 1017.68 263<260.278 464.813>
LayerCount: 2
Fore
SplineSet
94.6767578125 348 m 0xfa80
 94.6767578125 513 182.676757812 600 349.676757812 600 c 0
 485.676757812 600 591.676757812 521 591.676757812 386 c 0
 591.676757812 284 514.676757812 201 412.676757812 201 c 1
 378.676757812 207 l 1
 428.676757812 185 528.676757812 174 676.676757812 174 c 0
 834.676757812 174 1017.67675781 215 1017.67675781 366 c 0xfa80
 1017.67675781 614 422.676757812 605 253.676757812 693 c 0
 169.676757812 736 109.676757812 802 109.676757812 925 c 0
 109.676757812 1139 390.676757812 1170 653.676757812 1170 c 0
 968.676757812 1170 1244.67675781 1136 1244.67675781 832 c 2
 1244.67675781 810 l 1
 988.676757812 810 l 1
 988.676757812 836 l 2
 988.676757812 990 825.676757812 991 665.676757812 991 c 2
 658.676757812 991 l 2
 640.676757812 991 619.676757812 991 597.676757812 991 c 0
 505.676757812 991 393.676757812 985 393.676757812 921 c 1xf7
 397.676757812 827 610.676757812 818 712.676757812 799 c 0
 990.676757812 749 1280.67675781 698 1280.67675781 383 c 0
 1280.67675781 95 983.676757812 0 686.676757812 0 c 0
 408.676757812 0 94.6767578125 81 94.6767578125 348 c 0xfa80
415.676757812 373 m 0
 415.676757812 422 395.676757812 454 350.676757812 455 c 1
 304.676757812 454 281.676757812 415 280.676757812 335 c 0
 280.676757812 323 283.676757812 312 285.676757812 299 c 1
 323.676757812 299 l 1
 376.676757812 301 415.676757812 320 415.676757812 373 c 0
EndSplineSet
EndChar

StartChar: uni0EA5
Encoding: 3749 3749 227
Width: 1373
VWidth: 2170
GlyphClass: 2
Flags: W
HStem: 0 220<942.723 1031.21> 0 137<334.405 464.809> 300 109<343.201 467.629> 477 123<368.265 598.475> 991 179<494.502 920.729>
VStem: 116.525 209<144.658 300> 158.525 229<780 893.191> 474.525 155<148.254 289.347> 1035.53 284<224.896 883.02>
LayerCount: 2
Back
SplineSet
973 0 m 4
 649.105012273 0 723.33957772 445 451 445 c 4
 390.233870968 445 337.201612903 416.222222222 314 371 c 5
 352.657534247 381 379.945205479 386 397 386 c 4
 512.790575916 386 591 309.5 591 206 c 4
 591 68 481 0 341 0 c 4
 188 0 106 126 106 281 c 4
 106 457.186440678 245 556 434 556 c 4
 668 556 759 423.759450172 851 285 c 4
 875 246 894 204 931 204 c 4
 966 204 973 252 973 296 c 6
 973 660 l 5
 913.700012207 635.799987793 739 621 663 621 c 4
 399 621 118 650.366255144 118 844 c 4
 118 1017 300 1104 663 1104 c 4
 904 1104 1056 1055 1118 958 c 5
 1132 1005 1139 1050 1139 1093 c 6
 1139 1172 l 5
 1332 1172 l 5
 1332 1101 l 6
 1332 970 1300 864 1234 804 c 5
 1239 768.603174603 1241 694.26984127 1241 581 c 6
 1241 401 l 6
 1241 191 1177 0 973 0 c 4
359 129 m 4
 417.636363636 129 443.696969697 163.263157895 445 213 c 5
 442.534883721 258.294117647 406.790697674 281.970588235 339 283 c 5
 303 283 l 5
 303 276.538311687 302.991675338 270.191047002 302.991675338 263.691920379 c 4
 302.991675338 198.953195687 304.741935484 129 359 129 c 4
663 773 m 4
 797 773 901 784 988 828 c 5
 982 923 802 935 663 935 c 4
 540 935 386 932 386 844 c 4
 386 765.075417272 560.153030488 773 663 773 c 4
EndSplineSet
Fore
SplineSet
385.525390625 137 m 0x7d80
 446.525390625 137 473.525390625 174 474.525390625 225 c 0
 474.525390625 271 444.525390625 296 386.525390625 300 c 1
 325.525390625 300 l 1
 325.525390625 295 l 2
 325.525390625 289 325.525390625 282 325.525390625 276 c 0
 325.525390625 209 328.525390625 137 385.525390625 137 c 0x7d80
1035.52539062 660 m 2
 1035.52539062 910 958.525390625 980 717.525390625 991 c 1
 527.525390625 991 407.525390625 937 387.525390625 780 c 1
 158.525390625 780 l 1
 158.525390625 1076 420.525390625 1170 723.525390625 1170 c 0
 1097.52539062 1170 1319.52539062 1044 1319.52539062 674 c 2
 1319.52539062 448 l 2
 1319.52539062 179 1253.52539062 0 1019.52539062 0 c 0xbb80
 711.525390625 0 760.525390625 477 471.525390625 477 c 0
 404.525390625 477 364.525390625 446 341.525390625 392 c 1
 377.525390625 408 397.525390625 409 436.525390625 409 c 1
 550.525390625 399 629.525390625 326 629.525390625 218 c 0
 629.525390625 75 525.525390625 0 369.525390625 0 c 0x7b80
 216.525390625 0 116.525390625 116 116.525390625 307 c 0
 116.525390625 480 262.525390625 600 471.525390625 600 c 256
 828.525390625 600 932.525390625 220 982.525390625 220 c 0xbd80
 1051.52539062 220 1035.52539062 319 1035.52539062 387 c 2
 1035.52539062 660 l 2
EndSplineSet
EndChar

StartChar: uni0EA7
Encoding: 3751 3751 228
Width: 1310
VWidth: 2170
GlyphClass: 2
Flags: W
HStem: 0 161<370.421 849.052> 189 97<364.677 417.482> 442 145<298.022 414.896> 991 179<461.93 882.304>
VStem: 94.6768 192<290.65 435.363> 130.677 230<782 892.591> 422.677 177<295.259 435.94> 981.677 284<288.134 884.622>
LayerCount: 2
Fore
SplineSet
349.676757812 587 m 0xfb
 489.676757812 587 599.676757812 512 599.676757812 373 c 0
 599.676757812 267 525.676757812 189 420.676757812 189 c 1
 364.676757812 198 l 1
 428.676757812 174 521.676757812 161 645.676757812 161 c 0
 876.676757812 161 981.676757812 257 981.676757812 483 c 2
 981.676757812 660 l 2
 981.676757812 904 914.676757812 991 668.676757812 991 c 0
 485.676757812 991 384.676757812 939 360.676757812 782 c 1
 130.676757812 782 l 1xf7
 130.676757812 1070 377.676757812 1170 673.676757812 1170 c 0
 1050.67675781 1170 1265.67675781 1048 1265.67675781 674 c 2
 1265.67675781 477 l 2
 1265.67675781 143 1025.67675781 0 673.676757812 0 c 0
 406.676757812 0 94.6767578125 73 94.6767578125 330 c 0
 94.6767578125 496 183.676757812 587 349.676757812 587 c 0xfb
422.676757812 359 m 0
 422.676757812 407 401.676757812 442 354.676757812 442 c 1
 301.676757812 440 286.676757812 386 286.676757812 322 c 0xfb
 286.676757812 303 287.676757812 291 290.676757812 286 c 1
 320.676757812 286 l 2
 378.676757812 286 422.676757812 306 422.676757812 359 c 0
EndSplineSet
EndChar

StartChar: uni0EAA
Encoding: 3754 3754 229
Width: 1423
VWidth: 2170
GlyphClass: 2
Flags: W
HStem: 0 216<934.436 1143.53> 0 137<335.278 465.418> 300 109<339.438 464.36> 472 117<365.037 609.275> 658 161<425.655 1019.66> 991 179<439.695 1003.66>
VStem: 116.525 209<143.734 300> 129.525 284<841.843 958.916> 476.525 154<147.644 286.691> 1035.53 284<218.662 698.156> 1211.53 205<1017.72 1242>
LayerCount: 2
Fore
SplineSet
1035.52539062 0 m 4xbcc0
 692.525390625 0 771.525390625 472 482.525390625 472 c 4
 418.525390625 472 362.525390625 441 337.525390625 393 c 5
 378.525390625 404 407.525390625 409 425.525390625 409 c 4
 548.525390625 409 630.525390625 328 630.525390625 218 c 4
 630.525390625 72 513.525390625 0 365.525390625 0 c 4x7cc0
 203.525390625 0 116.525390625 134 116.525390625 298 c 4
 116.525390625 485 264.525390625 589 464.525390625 589 c 4
 712.525390625 589 808.525390625 449 906.525390625 302 c 4
 931.525390625 261 952.525390625 216 991.525390625 216 c 4
 1028.52539062 216 1035.52539062 267 1035.52539062 314 c 6
 1035.52539062 700 l 5xbec0
 972.525390625 674 788.525390625 658 707.525390625 658 c 4
 427.525390625 658 129.525390625 690 129.525390625 895 c 4
 129.525390625 1078 322.525390625 1170 707.525390625 1170 c 4
 962.525390625 1170 1123.52539062 1118 1189.52539062 1015 c 5
 1204.52539062 1065 1211.52539062 1113 1211.52539062 1159 c 6
 1211.52539062 1242 l 5
 1416.52539062 1242 l 5
 1416.52539062 1167 l 6xbda0
 1416.52539062 1028 1382.52539062 916 1312.52539062 852 c 5
 1317.52539062 814 1319.52539062 736 1319.52539062 616 c 6
 1319.52539062 425 l 6
 1319.52539062 202 1251.52539062 0 1035.52539062 0 c 4xbcc0
385.525390625 137 m 4
 447.525390625 137 475.525390625 173 476.525390625 226 c 5
 473.525390625 274 435.525390625 299 363.525390625 300 c 5
 325.525390625 300 l 5
 325.525390625 293 325.525390625 287 325.525390625 280 c 4x7e80
 325.525390625 211 327.525390625 137 385.525390625 137 c 4
707.525390625 819 m 4
 849.525390625 819 959.525390625 831 1051.52539062 878 c 5
 1045.52539062 979 854.525390625 991 707.525390625 991 c 4
 577.525390625 991 413.525390625 988 413.525390625 895 c 4x3d80
 413.525390625 811 598.525390625 819 707.525390625 819 c 4
EndSplineSet
EndChar

StartChar: uni0EAB
Encoding: 3755 3755 230
Width: 1966
VWidth: 2170
GlyphClass: 2
Flags: W
HStem: 0 177<519.028 860.428> 740 154<822.854 942.646> 740 130<202.381 283.646> 991 179<1308.13 1564.05> 1023 147<198.665 331.269 820.888 937.569>
VStem: 16.6465 177<878.248 1017.44> 180.646 267<241.938 471.374> 641.646 177<897.113 1028.85> 942.646 284<258.904 754 894.38 936.03> 1612.65 284<0 939.068>
LayerCount: 2
Fore
SplineSet
219.646484375 740 m 1xb5c0
 94.646484375 740 16.646484375 829 16.646484375 955 c 0xb5c0
 16.646484375 1112 130.646484375 1170 302.646484375 1170 c 0
 448.646484375 1170 584.646484375 1098 584.646484375 955 c 0
 584.646484375 917 576.646484375 873 559.646484375 822 c 1
 458.646484375 426 l 2
 451.646484375 400 447.646484375 376 447.646484375 354 c 0
 447.646484375 229 556.646484375 177 691.646484375 177 c 0
 871.646484375 177 942.646484375 259 942.646484375 439 c 2
 942.646484375 754 l 1
 921.646484375 744 894.646484375 740 861.646484375 740 c 0
 721.646484375 740 641.646484375 818 641.646484375 960 c 0
 641.646484375 1107 752.646484375 1170 912.646484375 1170 c 0xcbc0
 1036.64648438 1170 1127.64648438 1129 1183.64648438 1047 c 1
 1277.64648438 1111 1358.64648438 1170 1474.64648438 1170 c 0
 1755.64648438 1170 1896.64648438 1015 1896.64648438 702 c 2
 1896.64648438 0 l 1
 1612.64648438 0 l 1
 1612.64648438 697 l 2
 1612.64648438 872 1610.64648438 991 1439.64648438 991 c 0
 1359.64648438 991 1292.64648438 949 1226.64648438 911 c 1
 1226.64648438 443 l 2
 1226.64648438 119 1005.64648438 0 664.646484375 0 c 0
 427.646484375 0 200.646484375 103 181.646484375 317 c 0
 181.646484375 320 181.646484375 322 180.646484375 323 c 1
 180.646484375 339 l 2x93c0
 180.646484375 365 185.646484375 395 193.646484375 426 c 2
 283.646484375 752 l 1
 260.646484375 748 240.646484375 744 219.646484375 740 c 1xb5c0
336.646484375 956 m 1
 336.646484375 995 302.646484375 1023 261.646484375 1023 c 0xadc0
 218.646484375 1022 194.646484375 997 193.646484375 946 c 1
 196.646484375 896 228.646484375 870 286.646484375 870 c 2
 315.646484375 870 l 1
 328.646484375 927 335.646484375 956 336.646484375 956 c 1
883.646484375 1032 m 256
 842.646484375 1032 819.646484375 1005 818.646484375 965 c 1
 819.646484375 917 841.646484375 894 882.646484375 894 c 0xc1c0
 908.646484375 894 928.646484375 897 942.646484375 904 c 1
 942.646484375 937 l 2
 942.646484375 993 932.646484375 1032 883.646484375 1032 c 256
EndSplineSet
EndChar

StartChar: uni0EAD
Encoding: 3757 3757 231
Width: 1313
VWidth: 2170
GlyphClass: 2
Flags: W
HStem: 0 156<376.068 864.911> 442 124<273.09 406.246> 611 198<397.891 916.375> 991 179<404.584 964.699>
VStem: 87.3936 171<290.882 429.793> 94.3936 283<834.085 959.732> 413.394 167<301.235 439.831> 1005.39 285<305.508 717 846.185 936.166>
LayerCount: 2
Fore
SplineSet
377.393554688 895 m 0xf7
 377.393554688 798 555.393554688 809 675.393554688 809 c 0
 890.393554688 809 998.393554688 838 1000.39355469 895 c 1
 1000.39355469 982 789.393554688 991 654.393554688 991 c 0
 525.393554688 991 377.393554688 987 377.393554688 895 c 0xf7
337.393554688 566 m 0
 471.393554688 566 580.393554688 505 580.393554688 389 c 0
 580.393554688 291 529.393554688 221 374.393554688 190 c 1
 429.393554688 167 521.393554688 156 649.393554688 156 c 0
 977.393554688 156 1005.39355469 323 1005.39355469 655 c 2
 1005.39355469 717 l 1
 932.393554688 626 739.393554688 611 668.393554688 611 c 0
 285.393554688 611 94.3935546875 705 94.3935546875 895 c 0xf7
 94.3935546875 1078 281.393554688 1170 654.393554688 1170 c 0
 1020.39355469 1170 1290.39355469 1081 1290.39355469 723 c 2
 1290.39355469 515 l 2
 1290.39355469 172 1089.39355469 0 686.393554688 0 c 0
 409.393554688 0 87.3935546875 73 87.3935546875 330 c 0xfb
 87.3935546875 479 175.393554688 566 337.393554688 566 c 0
353.393554688 442 m 0
 285.393554688 442 258.393554688 392 258.393554688 333 c 0xfb
 258.393554688 317 262.393554688 301 264.393554688 286 c 1
 347.393554688 286 408.393554688 298 413.393554688 358 c 1
 413.393554688 414 393.393554688 442 353.393554688 442 c 0
EndSplineSet
EndChar

StartChar: uni0EAE
Encoding: 3758 3758 232
Width: 1285
VWidth: 2170
GlyphClass: 2
Flags: W
HStem: 0 161<363.055 860.612> 190 98<360.677 417.994> 441 146<300.009 415.763> 858 191<767.769 1019.47> 982 188<305.684 614.187>
VStem: 94.6768 193<293.889 433.331> 422.677 177<294.205 435.481> 940.677 284<230.768 450.541> 1021.68 203<1054.1 1170>
LayerCount: 2
Fore
SplineSet
422.676757812 358 m 0xe6
 422.676757812 405 402.676757812 441 357.676757812 441 c 0
 310.676757812 440 287.676757812 399 287.676757812 322 c 0
 287.676757812 310 288.676757812 299 290.676757812 288 c 1
 334.676757812 288 l 2
 387.676757812 288 422.676757812 308 422.676757812 358 c 0xe6
958.676757812 1049 m 0xf7
 992.676757812 1049 1021.67675781 1070 1021.67675781 1105 c 2
 1021.67675781 1170 l 1
 1224.67675781 1170 l 1xee80
 1224.67675781 1105 l 2
 1224.67675781 941 1153.67675781 858 1011.67675781 858 c 0xf680
 848.676757812 858 550.676757812 982 423.676757812 982 c 0
 397.676757812 982 376.676757812 970 376.676757812 946 c 0
 376.676757812 874 542.676757812 831 637.676757812 800 c 2
 831.676757812 738 l 2
 1021.67675781 678 1224.67675781 595 1224.67675781 359 c 0
 1224.67675781 75 964.676757812 0 645.676757812 0 c 0
 372.676757812 0 94.6767578125 72 94.6767578125 335 c 0
 94.6767578125 498 186.676757812 587 352.676757812 587 c 0
 488.676757812 587 599.676757812 509 599.676757812 374 c 0
 599.676757812 263 518.676757812 190 407.676757812 190 c 1
 360.676757812 198 l 1
 421.676757812 174 519.676757812 161 653.676757812 161 c 0
 811.676757812 161 934.676757812 205 940.676757812 340 c 1
 936.676757812 503 737.676757812 543 599.676757812 590 c 2
 539.676757812 611 l 2
 355.676757812 674 124.676757812 721 124.676757812 950 c 0
 124.676757812 1081 234.676757812 1170 366.676757812 1170 c 0xef
 583.676757812 1170 761.676757812 1049 958.676757812 1049 c 0xf7
EndSplineSet
EndChar

StartChar: uni0EAF
Encoding: 3759 3759 233
Width: 1426
VWidth: 2170
GlyphClass: 2
Flags: W
HStem: 401 195<389.763 710.57> 710 149<503.891 611.146>
VStem: 49.9395 264<672.003 970.494> 373.939 127<860.458 1001.44> 616.939 165<862.618 999.854>
LayerCount: 2
Fore
SplineSet
781.939453125 977 m 0
 781.939453125 837 692.939453125 710 552.939453125 710 c 0
 446.939453125 710 373.939453125 773 373.939453125 880 c 1
 379.939453125 915 384.939453125 949 394.939453125 1004 c 1
 340.939453125 976 313.939453125 913 313.939453125 812 c 0
 313.939453125 677 400.939453125 596 537.939453125 596 c 0
 798.939453125 596 991.939453125 883 1094.93945312 1058 c 1
 1144.93945312 1144 l 1
 1445.93945312 1021 l 1
 826.939453125 -432 l 1
 592.939453125 -334 l 1
 1048.93945312 744 l 1
 1014.93945312 691 l 2
 911.939453125 530 768.939453125 401 532.939453125 401 c 0
 266.939453125 401 49.939453125 533 49.939453125 796 c 0
 49.939453125 1043 226.939453125 1222 472.939453125 1222 c 0
 636.939453125 1222 781.939453125 1139 781.939453125 977 c 0
500.939453125 916 m 2
 500.939453125 879 522.939453125 859 561.939453125 859 c 1
 597.939453125 862 615.939453125 886 616.939453125 932 c 1
 614.939453125 982 575.939453125 1012 502.939453125 1019 c 1
 501.939453125 981 500.939453125 959 500.939453125 930 c 2
 500.939453125 916 l 2
EndSplineSet
EndChar

StartChar: uni0EB1
Encoding: 3761 3761 235
Width: 2
VWidth: 2170
GlyphClass: 2
Flags: W
HStem: 1247 189<-1065.12 -917.914 -840.914 -420.502> 1567 157<-1069.56 -921.135>
VStem: -1233.91 161<1443.88 1560.09> -917.914 116<1436.91 1561.8> -360.914 213<1491.44 1649>
LayerCount: 2
Fore
SplineSet
-998.9140625 1567 m 0
 -1041.9140625 1567 -1072.9140625 1545 -1072.9140625 1503 c 0
 -1071.9140625 1455 -1035.9140625 1436 -982.9140625 1436 c 2
 -917.9140625 1436 l 1
 -917.9140625 1502 l 2
 -917.9140625 1545 -950.9140625 1567 -998.9140625 1567 c 0
-1001.9140625 1724 m 0
 -895.9140625 1724 -801.9140625 1667 -801.9140625 1562 c 0
 -801.9140625 1538 -804.9140625 1515 -814.9140625 1494 c 2
 -840.9140625 1436 l 1
 -620.9140625 1436 l 2
 -430.9140625 1436 -365.9140625 1461 -360.9140625 1649 c 1
 -147.9140625 1649 l 1
 -147.9140625 1353 -349.9140625 1247 -644.9140625 1247 c 2
 -817.9140625 1247 l 2
 -1024.9140625 1247 -1233.9140625 1274 -1233.9140625 1472 c 0
 -1233.9140625 1639 -1156.9140625 1724 -1001.9140625 1724 c 0
EndSplineSet
EndChar

StartChar: uni0EB2
Encoding: 3762 3762 236
Width: 957
VWidth: 2170
GlyphClass: 2
Flags: W
HStem: 0 21G<590.263 873.263> 708 150<242.891 376.398> 1021 151<242.475 388.263>
VStem: 58.2627 176<866.428 1005.11> 388.263 112<864.943 995.136> 388.263 95<916.864 1013> 590.263 283<0 980.382>
LayerCount: 2
Fore
SplineSet
303.262695312 708 m 0xfa
 161.262695312 708 58.2626953125 777 58.2626953125 918 c 0
 58.2626953125 1100 204.262695312 1172 403.262695312 1172 c 0
 702.262695312 1172 873.262695312 1057 873.262695312 768 c 2
 873.262695312 0 l 1
 590.262695312 0 l 1
 590.262695312 818 l 2
 590.262695312 929 570.262695312 991 483.262695312 1013 c 1xf6
 500.262695312 899 l 1
 500.262695312 772 434.262695312 708 303.262695312 708 c 0xfa
318.262695312 858 m 0
 371.262695312 858 388.262695312 912 388.262695312 971 c 2xfa
 388.262695312 1021 l 1
 304.262695312 1021 234.262695312 1017 234.262695312 937 c 0
 234.262695312 885 265.262695312 858 318.262695312 858 c 0
EndSplineSet
EndChar

StartChar: uni0EB3
Encoding: 3763 3763 237
Width: 1020
VWidth: 2170
GlyphClass: 2
Flags: W
HStem: 0 21G<613.508 896.508> 728 152<263.594 399.912> 1042 150<265.932 410.508> 1289 139<-497.841 -336.705> 1613 135<-498.151 -339.943>
VStem: -656.492 143<1442.04 1599.41> -324.492 141<1441.26 1596.8> 82.5078 175<887.541 1029.7> 411.508 113<886.663 1011> 411.508 95<944.002 1034> 613.508 283<0 993.851>
LayerCount: 2
Fore
SplineSet
327.5078125 728 m 0xffa0
 184.5078125 728 82.5078125 796 82.5078125 938 c 0
 82.5078125 1120 227.5078125 1192 426.5078125 1192 c 0
 725.5078125 1192 896.5078125 1079 896.5078125 791 c 2
 896.5078125 0 l 1
 613.5078125 0 l 1
 613.5078125 838 l 2
 613.5078125 949 593.5078125 1012 506.5078125 1034 c 1xff60
 524.5078125 921 l 1
 524.5078125 793 458.5078125 728 327.5078125 728 c 0xffa0
342.5078125 880 m 0
 395.5078125 880 409.5078125 935 411.5078125 992 c 1xffa0
 410.5078125 1042 l 1
 326.5078125 1042 257.5078125 1039 257.5078125 958 c 0
 257.5078125 906 290.5078125 880 342.5078125 880 c 0
-183.4921875 1518 m 0
 -183.4921875 1386 -285.4921875 1289 -419.4921875 1289 c 0
 -550.4921875 1289 -656.4921875 1387 -656.4921875 1518 c 0
 -656.4921875 1649 -551.4921875 1748 -419.4921875 1748 c 256
 -284.4921875 1748 -183.4921875 1653 -183.4921875 1518 c 0
-419.4921875 1428 m 0
 -364.4921875 1428 -324.4921875 1464 -324.4921875 1520 c 0
 -324.4921875 1573 -365.4921875 1613 -419.4921875 1613 c 0
 -473.4921875 1613 -513.4921875 1574 -513.4921875 1520 c 0
 -513.4921875 1469 -472.4921875 1428 -419.4921875 1428 c 0
EndSplineSet
MultipleSubs2: "ccmpGlyphCompositionDecompositi subtable" uni0ECD uni0EB2
Substitution2: "'liga' Standard Ligatures lookup 0 subtable" uni0ECD_uni0EB2
EndChar

StartChar: uni0EB4
Encoding: 3764 3764 238
Width: 3
VWidth: 2170
GlyphClass: 2
Flags: W
HStem: 1247 157<-917.547 -752.683 -575.683 -418.115> 1619 163<-898.551 -430.471>
VStem: -1150.68 213<1422.47 1577.81> -395.683 214<1429.12 1580.56>
LayerCount: 2
Fore
SplineSet
-665.682617188 1782 m 0
 -434.682617188 1782 -181.682617188 1717 -181.682617188 1494 c 0
 -181.682617188 1314 -333.682617188 1247 -532.682617188 1247 c 2
 -575.682617188 1247 l 1
 -575.682617188 1404 l 1
 -529.682617188 1404 l 1
 -443.682617188 1409 -399.682617188 1440 -395.682617188 1494 c 1
 -395.682617188 1610 -525.682617188 1619 -665.682617188 1619 c 0
 -809.682617188 1619 -934.682617188 1606 -937.682617188 1494 c 1
 -936.682617188 1435 -890.682617188 1404 -800.682617188 1404 c 2
 -752.682617188 1404 l 1
 -752.682617188 1247 l 1
 -798.682617188 1247 l 2
 -987.682617188 1247 -1150.68261719 1310 -1150.68261719 1494 c 0
 -1150.68261719 1713 -890.682617188 1782 -665.682617188 1782 c 0
EndSplineSet
EndChar

StartChar: uni0EB5
Encoding: 3765 3765 239
Width: 3
VWidth: 2170
GlyphClass: 2
Flags: W
HStem: 1247 157<-1093.03 -922.187 -742.187 -576.059 -404.187 -189.187> 1619 163<-1066.12 -609.647>
VStem: -1318.19 213<1422.47 1579.34> -564.187 215<1420.74 1571.34>
LayerCount: 2
Fore
SplineSet
-832.186523438 1782 m 0
 -607.186523438 1782 -352.186523438 1715 -349.186523438 1503 c 1
 -350.186523438 1462 -369.186523438 1428 -404.186523438 1404 c 1
 -189.186523438 1404 l 1
 -189.186523438 1247 l 1
 -742.186523438 1247 l 1
 -742.186523438 1404 l 1
 -698.186523438 1404 l 2
 -609.186523438 1404 -564.186523438 1435 -564.186523438 1494 c 0
 -564.186523438 1578 -653.186523438 1619 -832.186523438 1619 c 0
 -975.186523438 1619 -1105.18652344 1608 -1105.18652344 1494 c 0
 -1105.18652344 1435 -1059.18652344 1404 -969.186523438 1404 c 2
 -922.186523438 1404 l 1
 -922.186523438 1247 l 1
 -966.186523438 1247 l 2
 -1155.18652344 1247 -1318.18652344 1310 -1318.18652344 1494 c 0
 -1318.18652344 1712 -1057.18652344 1782 -832.186523438 1782 c 0
EndSplineSet
EndChar

StartChar: uni0EB6
Encoding: 3766 3766 240
Width: 3
VWidth: 2170
GlyphClass: 2
Flags: W
HStem: 1247 156<-917.547 -788.683 -539.683 -418.115> 1394 153<-747.548 -576.128> 1619 163<-898.551 -437.725>
VStem: -1150.68 213<1422.54 1577.81> -755.683 188<1405.11 1536.24> -395.683 214<1424.11 1578.87>
LayerCount: 2
Fore
SplineSet
-665.682617188 1619 m 0xbc
 -809.682617188 1619 -934.682617188 1606 -937.682617188 1494 c 1
 -936.682617188 1436 -890.682617188 1404 -800.682617188 1403 c 1
 -788.682617188 1403 l 1
 -788.682617188 1247 l 1
 -798.682617188 1247 l 2
 -987.682617188 1247 -1150.68261719 1310 -1150.68261719 1494 c 0
 -1150.68261719 1713 -890.682617188 1782 -665.682617188 1782 c 0
 -434.682617188 1782 -181.682617188 1717 -181.682617188 1494 c 0
 -181.682617188 1314 -333.682617188 1247 -532.682617188 1247 c 2
 -539.682617188 1247 l 1
 -539.682617188 1403 l 1
 -529.682617188 1403 l 1
 -442.682617188 1407 -398.682617188 1438 -395.682617188 1494 c 1
 -398.682617188 1608 -524.682617188 1619 -665.682617188 1619 c 0xbc
-661.682617188 1394 m 0x7c
 -610.682617188 1394 -567.682617188 1423 -567.682617188 1473 c 0
 -567.682617188 1519 -612.682617188 1547 -661.682617188 1547 c 0
 -710.682617188 1547 -755.682617188 1521 -755.682617188 1473 c 0
 -755.682617188 1424 -714.682617188 1394 -661.682617188 1394 c 0x7c
EndSplineSet
EndChar

StartChar: uni0EB7
Encoding: 3767 3767 241
Width: 3
VWidth: 2170
GlyphClass: 2
Flags: W
HStem: 1247 157<-1093.03 -957.187 -707.187 -574.781 -403.187 -188.187> 1394 153<-915.28 -747.041> 1619 163<-1065.4 -609.64>
VStem: -1318.19 213<1422.47 1577.69> -924.187 187<1404.62 1536.51> -564.187 216<1418.37 1571.34>
LayerCount: 2
Fore
SplineSet
-832.186523438 1619 m 0xbc
 -960.186523438 1619 -1101.18652344 1612 -1105.18652344 1494 c 1
 -1105.18652344 1435 -1059.18652344 1404 -969.186523438 1404 c 2
 -957.186523438 1404 l 1
 -957.186523438 1247 l 1
 -966.186523438 1247 l 2
 -1155.18652344 1247 -1318.18652344 1310 -1318.18652344 1494 c 0
 -1318.18652344 1712 -1057.18652344 1782 -832.186523438 1782 c 0
 -609.186523438 1782 -348.186523438 1715 -348.186523438 1503 c 0
 -348.186523438 1460 -366.186523438 1425 -403.186523438 1403 c 1
 -188.186523438 1403 l 1
 -188.186523438 1247 l 1
 -707.186523438 1247 l 1
 -707.186523438 1404 l 1
 -698.186523438 1404 l 2
 -616.186523438 1404 -564.186523438 1423 -564.186523438 1494 c 0
 -564.186523438 1578 -653.186523438 1619 -832.186523438 1619 c 0xbc
-831.186523438 1394 m 0x7c
 -778.186523438 1394 -741.186523438 1422 -737.186523438 1473 c 1
 -737.186523438 1519 -781.186523438 1547 -831.186523438 1547 c 0
 -883.186523438 1547 -920.186523438 1522 -924.186523438 1473 c 1
 -924.186523438 1425 -882.186523438 1394 -831.186523438 1394 c 0x7c
EndSplineSet
EndChar

StartChar: uni0EB8
Encoding: 3768 3768 242
Width: 2
VWidth: 2170
GlyphClass: 2
Flags: W
HStem: -394 79<-419.631 -346.986> -193 102<-422.577 -301.07>
VStem: -554.533 129<-312.931 -195.819> -299.533 177<-313.659 -196.218>
LayerCount: 2
Fore
SplineSet
-554.533203125 -255 m 0
 -554.533203125 -141 -469.533203125 -91 -346.533203125 -91 c 0
 -224.533203125 -91 -122.533203125 -146 -122.533203125 -267 c 0
 -122.533203125 -436 -256.533203125 -562 -358.533203125 -643 c 1
 -471.533203125 -544 l 1
 -422.533203125 -489 -384.533203125 -446 -346.533203125 -386 c 1
 -375.533203125 -390 l 2
 -391.533203125 -392 -402.533203125 -394 -415.533203125 -394 c 0
 -503.533203125 -393 -554.533203125 -346 -554.533203125 -255 c 0
-425.533203125 -255 m 0
 -425.533203125 -291 -405.533203125 -315 -369.533203125 -315 c 2
 -311.533203125 -315 l 1
 -303.533203125 -292 -299.533203125 -269 -299.533203125 -248 c 0
 -299.533203125 -210 -327.533203125 -193 -368.533203125 -193 c 0
 -406.533203125 -193 -425.533203125 -217 -425.533203125 -255 c 0
EndSplineSet
EndChar

StartChar: uni0EB9
Encoding: 3769 3769 243
Width: 2
VWidth: 2170
GlyphClass: 2
Flags: W
HStem: -710 130<-470.165 -308.739> -488 100<-729.856 -623.753> -271 128<-731.11 -606.037>
VStem: -870.815 135<-383.495 -276.413> -632.815 153<-566.365 -459.161> -599.815 156<-386.632 -282.258> -299.815 161<-570.803 -151>
LayerCount: 2
Fore
SplineSet
-735.815429688 -324 m 0xf6
 -735.815429688 -364 -703.815429688 -388 -663.815429688 -388 c 2
 -599.815429688 -388 l 1
 -602.815429688 -324 l 2
 -603.815429688 -295 -641.815429688 -276 -666.815429688 -271 c 1
 -702.815429688 -271 -735.815429688 -291 -735.815429688 -324 c 0xf6
-388.815429688 -710 m 0
 -528.815429688 -710 -632.815429688 -664 -632.815429688 -536 c 0xfa
 -632.815429688 -529 -631.815429688 -516 -629.815429688 -500 c 2
 -622.815429688 -458 l 1
 -642.815429688 -478 -662.815429688 -488 -682.815429688 -488 c 0
 -786.815429688 -488 -870.815429688 -433 -870.815429688 -331 c 0
 -870.815429688 -211 -787.815429688 -143 -667.815429688 -143 c 0
 -542.815429688 -143 -443.815429688 -207 -443.815429688 -331 c 0xf6
 -443.815429688 -399 -479.815429688 -432 -479.815429688 -500 c 0xfa
 -479.815429688 -551 -440.815429688 -574 -392.815429688 -580 c 1
 -300.815429688 -580 -299.815429688 -529 -299.815429688 -436 c 0
 -299.815429688 -434 -299.815429688 -431 -299.815429688 -429 c 2
 -299.815429688 -151 l 1
 -138.815429688 -151 l 1
 -138.815429688 -418 l 2
 -138.815429688 -610 -197.815429688 -710 -388.815429688 -710 c 0
EndSplineSet
EndChar

StartChar: uni0EBB
Encoding: 3771 3771 244
Width: 2
VWidth: 2170
GlyphClass: 2
Flags: HW
HStem: 1247 156<-1054.57 -907.526> 1533 171<-1045.33 -902.35 -810.35 -410.679>
VStem: -1219.35 162<1408.17 1522.52> -902.35 120<1408.11 1532.11> -355.35 212<1247 1478.96>
LayerCount: 2
Fore
SplineSet
-1185.34960938 1469 m 4
 -1185.34960938 1669.6097561 -994.99560421 1704 -778.349609375 1704 c 6
 -578.349609375 1704 l 6
 -246.349609375 1704 -112.349609375 1577 -109.349609375 1247 c 5
 -321.349609375 1247 l 5
 -321.349609375 1443 -336.349609375 1533 -531.349609375 1533 c 6
 -776.349609375 1533 l 5
 -758.349609375 1476 l 6
 -751.349609375 1455 -748.349609375 1433 -748.349609375 1413 c 4
 -748.349609375 1308 -845.349609375 1247 -952.349609375 1247 c 4
 -1110.34960938 1247 -1185.34960938 1325.4047619 -1185.34960938 1469 c 4
-1023.34960938 1467 m 5
 -1023.34960938 1427 -993.349609377 1403 -950.349609375 1403 c 4
 -901.349609375 1403 -868.349609375 1423 -868.349609375 1471 c 6
 -868.349609375 1533 l 5
 -931.349609375 1533 l 5
 -989.349609377 1528 -1020.34960938 1505 -1023.34960938 1467 c 5
EndSplineSet
EndChar

StartChar: uni0EBC
Encoding: 3772 3772 245
Width: 3
VWidth: 2170
GlyphClass: 2
Flags: W
HStem: -564 181<-547.908 -385.544>
VStem: -1339 158<-398.358 -269.346> -1060 127<-397.885 -248.719> -367.995 196<-369.652 -83>
LayerCount: 2
Fore
SplineSet
-1127.99511719 -402 m 1
 -1085.99511719 -399 -1059.99511719 -378 -1059.99511719 -332 c 2
 -1059.99511719 -245 l 1
 -1139.99511719 -256 -1179.99511719 -284 -1180.99511719 -331 c 1
 -1176.99511719 -377 -1158.99511719 -400 -1127.99511719 -402 c 1
-1116.99511719 -568 m 0
 -1260.99511719 -568 -1338.99511719 -473 -1338.99511719 -324 c 0
 -1338.99511719 -154 -1199.99511719 -83 -1025.99511719 -83 c 0
 -812.995117188 -83 -646.995117188 -276 -507.995117188 -366 c 0
 -487.995117188 -380 -482.995117188 -383 -459.995117188 -383 c 0
 -377.995117188 -383 -364.995117188 -307 -364.995117188 -217 c 0
 -364.995117188 -176 -367.995117188 -131 -367.995117188 -90 c 0
 -367.995117188 -88 -367.995117188 -85 -367.995117188 -83 c 1
 -171.995117188 -83 l 1
 -171.995117188 -346 -179.995117188 -564 -443.995117188 -564 c 0
 -685.995117188 -564 -787.995117188 -316 -964.995117188 -247 c 1
 -937.995117188 -357 l 2
 -934.995117188 -374 -932.995117188 -392 -932.995117188 -411 c 0
 -932.995117188 -514 -1009.99511719 -568 -1116.99511719 -568 c 0
EndSplineSet
EndChar

StartChar: uni0EBD
Encoding: 3773 3773 246
Width: 1262
VWidth: 2170
GlyphClass: 2
Flags: W
HStem: -401 177<447.851 794.62> 36 120<344.383 456.423> 288 129<350.831 456.035> 1062 186<831.253 1050> 1213 202<454.932 627.821>
VStem: 61.3828 283<-119.188 46 156 273.507> 209.383 234<1063.7 1202.1> 459.383 162<159.251 285.753> 886.383 283<-129.256 606.498> 1075.38 210<1264.38 1415>
LayerCount: 2
Fore
SplineSet
459.3828125 220 m 0xe5
 459.3828125 260 440.3828125 287 404.3828125 288 c 1
 353.3828125 288 344.3828125 240 344.3828125 182 c 2
 344.3828125 156 l 1
 395.3828125 156 l 2
 442.3828125 156 459.3828125 174 459.3828125 220 c 0xe5
209.3828125 1135 m 0xeb80
 209.3828125 1316 330.3828125 1415 512.3828125 1415 c 0xeb80
 667.3828125 1415 836.3828125 1248 981.3828125 1248 c 0xf380
 1044.3828125 1248 1075.3828125 1304 1075.3828125 1415 c 1
 1285.3828125 1415 l 1xeb40
 1285.3828125 1188 1208.3828125 1062 988.3828125 1062 c 0xf340
 830.3828125 1062 657.3828125 1158 533.3828125 1213 c 1
 481.3828125 1212 443.3828125 1191 443.3828125 1140 c 0xeb40
 443.3828125 1101 473.3828125 1065 532.3828125 1032 c 1
 952.3828125 829 l 2
 1096.3828125 758 1169.3828125 692 1169.3828125 479 c 2
 1169.3828125 90 l 2
 1169.3828125 -259 953.3828125 -401 592.3828125 -401 c 0
 276.3828125 -401 61.3828125 -224 61.3828125 90 c 0
 61.3828125 287 181.3828125 417 378.3828125 417 c 0
 525.3828125 417 621.3828125 361 621.3828125 219 c 0
 621.3828125 96 560.3828125 36 433.3828125 36 c 0
 413.3828125 36 383.3828125 40 344.3828125 46 c 1xed80
 347.3828125 -141 436.3828125 -224 625.3828125 -224 c 0
 824.3828125 -224 886.3828125 -124 886.3828125 75 c 2
 886.3828125 370 l 2
 886.3828125 543 862.3828125 630 748.3828125 685 c 2
 448.3828125 832 l 2
 319.3828125 895 209.3828125 953 209.3828125 1135 c 0xeb80
EndSplineSet
EndChar

StartChar: uni0EC0
Encoding: 3776 3776 247
Width: 744
VWidth: 2170
GlyphClass: 2
Flags: W
HStem: 0 128<400.09 496.994> 261 121<390.872 498.979> 977 192<427.684 668.296>
VStem: 106.121 282<151.244 261 363 941.484> 501.121 176<131.379 257.765>
LayerCount: 2
Fore
SplineSet
504.12109375 382 m 0
 610.12109375 382 677.12109375 302 677.12109375 195 c 0
 677.12109375 65 592.12109375 0 421.12109375 0 c 0
 233.12109375 0 106.12109375 135 106.12109375 323 c 2
 106.12109375 652 l 2
 106.12109375 962 183.12109375 1169 486.12109375 1169 c 0
 555.12109375 1169 599.12109375 1159 671.12109375 1145 c 1
 671.12109375 954 l 1
 622.12109375 962 574.12109375 977 519.12109375 977 c 0
 390.12109375 977 388.12109375 856 388.12109375 723 c 0
 388.12109375 719 388.12109375 714 388.12109375 710 c 2
 388.12109375 363 l 1
 447.12109375 376 486.12109375 382 504.12109375 382 c 0
389.12109375 246 m 2
 389.12109375 190 396.12109375 128 443.12109375 128 c 0
 481.12109375 128 500.12109375 150 501.12109375 193 c 1
 501.12109375 240 481.12109375 261 436.12109375 261 c 2
 389.12109375 261 l 1
 389.12109375 246 l 2
EndSplineSet
EndChar

StartChar: uni0EC2
Encoding: 3778 3778 249
Width: 815
VWidth: 2170
GlyphClass: 2
Flags: W
HStem: 0 147<422.773 538.357> 300 131<420.344 540.733> 1749 225<41.4453 273.25>
VStem: -140.454 243<1593.8 1743.92> 134.546 283<150.514 300 407 1341.34> 545.546 193<151.247 294.481>
LayerCount: 2
Fore
SplineSet
479.545898438 147 m 0
 521.545898438 147 545.545898438 179 545.545898438 225 c 0
 545.545898438 272 519.545898438 300 471.545898438 300 c 2
 417.545898438 300 l 1
 417.545898438 244 l 2
 417.545898438 186 428.545898438 147 479.545898438 147 c 0
442.545898438 0 m 0
 229.545898438 0 134.545898438 154 134.545898438 369 c 2
 134.545898438 1037 l 2
 134.545898438 1045 134.545898438 1052 134.545898438 1059 c 0
 134.545898438 1235 132.545898438 1324 34.5458984375 1410 c 2
 -2.4541015625 1443 l 2
 -82.4541015625 1513 -140.454101562 1555 -140.454101562 1697 c 0
 -140.454101562 1839 -26.4541015625 1974 114.545898438 1974 c 0
 340.545898438 1974 441.545898438 1851 564.545898438 1733 c 2
 795.545898438 1513 l 1
 665.545898438 1343 l 1
 527.545898438 1480 l 1
 469.545898438 1536 405.545898438 1591 334.545898438 1651 c 1
 293.545898438 1691 239.545898438 1749 170.545898438 1749 c 0
 129.545898438 1749 102.545898438 1712 102.545898438 1667 c 0
 102.545898438 1628 146.545898438 1594 176.545898438 1566 c 1
 255.545898438 1499 l 2
 373.545898438 1398 417.545898438 1303 417.545898438 1081 c 2
 417.545898438 407 l 1
 477.545898438 423 517.545898438 431 535.545898438 431 c 0
 656.545898438 431 738.545898438 340 738.545898438 219 c 0
 738.545898438 62 602.545898438 0 442.545898438 0 c 0
EndSplineSet
EndChar

StartChar: uni0EC3
Encoding: 3779 3779 250
Width: 937
VWidth: 2170
GlyphClass: 2
Flags: W
HStem: 0 147<501.446 612.883> 301 129<493.024 614.918> 1336 148<71.6464 311.355> 1850 196<131.021 594.928>
VStem: -196.636 226<1524.14 1763.85> 206.364 284<156.401 301 406 1020.88> 327.364 178<1500.73 1693.97> 620.364 194<150.901 293.967> 698.364 237<1480.44 1762.45>
LayerCount: 2
Fore
SplineSet
557.364257812 147 m 0xfd
 598.364257812 147 620.364257812 181 620.364257812 226 c 0
 620.364257812 274 590.364257812 301 541.364257812 301 c 2
 490.364257812 301 l 1
 490.364257812 247 l 2
 490.364257812 187 503.364257812 147 557.364257812 147 c 0xfd
327.364257812 1582 m 0xfa80
 327.364257812 1640 277.364257812 1718 234.364257812 1735 c 1
 424.364257812 1735 l 1
 477.364257812 1683 504.364257812 1631 505.364257812 1577 c 1
 505.364257812 1416 362.364257812 1336 198.364257812 1336 c 0
 -11.6357421875 1336 -196.635742188 1439 -196.635742188 1648 c 0
 -196.635742188 1949 33.3642578125 2046 361.364257812 2046 c 0
 704.364257812 2046 935.364257812 1946 935.364257812 1608 c 0xfa80
 935.364257812 1320 736.364257812 1206 574.364257812 1068 c 0
 491.364257812 998 490.364257812 906 490.364257812 747 c 2
 490.364257812 406 l 1
 547.364257812 422 587.364257812 430 609.364257812 430 c 0
 728.364257812 430 814.364257812 338 814.364257812 219 c 0
 814.364257812 61 677.364257812 0 516.364257812 0 c 0
 297.364257812 0 206.364257812 136 206.364257812 366 c 2
 206.364257812 785 l 2xfd
 206.364257812 994 227.364257812 1102 343.364257812 1192 c 2
 503.364257812 1318 l 2
 602.364257812 1394 698.364257812 1491 698.364257812 1635 c 0
 698.364257812 1801 547.364257812 1850 363.364257812 1850 c 0
 176.364257812 1850 29.3642578125 1803 29.3642578125 1637 c 0
 29.3642578125 1535 88.3642578125 1484 208.364257812 1484 c 0
 279.364257812 1484 327.364257812 1513 327.364257812 1582 c 0xfa80
EndSplineSet
EndChar

StartChar: uni0EC4
Encoding: 3780 3780 251
Width: 877
VWidth: 2170
GlyphClass: 2
Flags: W
HStem: 0 148<458.376 574.417> 300 131<453.746 569.78> 1500 201<-35.5351 156.981> 1748 221<403.402 572.676>
VStem: -233.05 193<1708.21 1972> 167.95 283<153.906 300 403 1220.63> 578.95 242<1593.74 1743.87> 579.95 194<152.035 295.289>
LayerCount: 2
Fore
SplineSet
480.950195312 0 m 0xfd
 266.950195312 0 167.950195312 148 167.950195312 364 c 2
 167.950195312 971 l 2
 167.950195312 1246 271.950195312 1356 417.950195312 1488 c 2
 500.950195312 1564 l 2
 535.950195312 1597 578.950195312 1620 578.950195312 1677 c 0
 578.950195312 1719 553.950195312 1748 510.950195312 1748 c 0
 337.950195312 1748 209.950195312 1500 49.9501953125 1500 c 0
 -125.049804688 1500 -233.049804688 1604 -233.049804688 1777 c 2
 -233.049804688 1972 l 1
 -40.0498046875 1972 l 1
 -40.0498046875 1766 l 2
 -40.0498046875 1725 -9.0498046875 1702 29.9501953125 1701 c 1
 206.950195312 1701 335.950195312 1969 550.950195312 1969 c 0
 689.950195312 1969 820.950195312 1862 820.950195312 1724 c 0xfe
 820.950195312 1621 793.950195312 1555 743.950195312 1501 c 1
 629.950195312 1399 l 2
 511.950195312 1293 450.950195312 1194 450.950195312 971 c 2
 450.950195312 403 l 1
 510.950195312 422 547.950195312 431 563.950195312 431 c 0
 688.950195312 431 773.950195312 344 773.950195312 219 c 0
 773.950195312 64 639.950195312 0 480.950195312 0 c 0xfd
512.950195312 148 m 0
 558.950195312 148 578.950195312 179 579.950195312 225 c 0xfd
 579.950195312 267 552.950195312 300 509.950195312 300 c 2
 450.950195312 300 l 1
 450.950195312 243 l 2
 450.950195312 184 461.950195312 148 512.950195312 148 c 0
EndSplineSet
EndChar

StartChar: uni0EC6
Encoding: 3782 3782 252
Width: 1438
VWidth: 2170
GlyphClass: 2
Flags: W
HStem: -395 183<586.449 977.817> 407 147<376.032 488.539> 707 130<369.556 490.235> 993 179<382.006 542.565 924.405 1075.98>
VStem: 84.2725 283<559.741 707 816 974.915> 495.272 178<557.989 701.415> 1088.27 285<-88.1261 982.18>
LayerCount: 2
Fore
SplineSet
1034.27246094 1172 m 0
 1306.27246094 1172 1373.27246094 966 1373.27246094 688 c 2
 1373.27246094 218 l 2
 1373.27246094 -182 1216.27246094 -395 820.272460938 -395 c 0
 607.272460938 -395 476.272460938 -311 380.272460938 -183 c 1
 449.272460938 -110 l 1
 547.272460938 -162 677.272460938 -212 821.272460938 -212 c 0
 1058.27246094 -212 1088.27246094 -40 1088.27246094 204 c 2
 1088.27246094 778 l 2
 1088.27246094 806 1090.27246094 836 1090.27246094 866 c 0
 1090.27246094 933 1082.27246094 993 1025.27246094 993 c 0
 890.272460938 993 873.272460938 814 743.272460938 814 c 256
 607.272460938 814 579.272460938 993 427.272460938 993 c 256
 367.272460938 993 369.272460938 898 367.272460938 816 c 1
 416.272460938 830 447.272460938 837 462.272460938 837 c 0
 584.272460938 837 673.272460938 749 673.272460938 626 c 0
 673.272460938 469 567.272460938 407 398.272460938 407 c 0
 205.272460938 407 84.2724609375 533 84.2724609375 726 c 0
 84.2724609375 972 186.272460938 1172 428.272460938 1172 c 0
 573.272460938 1172 666.272460938 1076 743.272460938 1003 c 1
 801.272460938 1089 896.272460938 1172 1034.27246094 1172 c 0
432.272460938 554 m 0
 473.272460938 554 495.272460938 586 495.272460938 631 c 0
 494.272460938 682 467.272460938 707 415.272460938 707 c 2
 367.272460938 707 l 1
 367.272460938 646 l 2
 367.272460938 588 379.272460938 554 432.272460938 554 c 0
EndSplineSet
EndChar

StartChar: uni0EC8
Encoding: 3784 3784 253
Width: 7
VWidth: 2170
GlyphClass: 2
Flags: W
HStem: 1407 430<-598.23 -393.23>
VStem: -598.23 205<1407 1837>
LayerCount: 2
Fore
SplineSet
-598.23046875 1407 m 5
 -598.23046875 1837 l 5
 -393.23046875 1837 l 5
 -393.23046875 1407 l 5
 -598.23046875 1407 l 5
EndSplineSet
EndChar

StartChar: uni0EC9
Encoding: 3785 3785 254
Width: 2
VWidth: 2170
GlyphClass: 2
Flags: HW
HStem: 1376 166<-876.904 -379.428> 1376 79<-1171.9 -1044.32> 1575 102<-1068.1 -949.754> 1791 131<-1069.03 -950.121>
VStem: -1207.9 137<1689.16 1786.78> -935.904 171<1678.41 1781.77> -310.904 209<1617.15 1847>
LayerCount: 2
Fore
SplineSet
-956.904296875 1791 m 1x3e
 -1005.90429688 1791 -1032.90429688 1775 -1032.90429688 1729 c 1
 -1030.90429688 1697 -985.904296877 1680 -897.904296875 1677 c 1
 -897.904296875 1690 l 1
 -902.904296875 1753 -923.904296875 1786 -956.904296875 1791 c 1x3e
-1169.90429688 1733 m 0
 -1169.90429688 1854 -1084.90429688 1922 -959.904296875 1922 c 0
 -816.904296875 1922 -726.904296875 1846 -726.904296875 1703 c 0
 -726.904296875 1623 -757.904296875 1591 -810.904296875 1557 c 1
 -838.904296875 1542 l 1
 -574.904296875 1542 l 2
 -314.904296875 1542 -278.904296875 1588 -272.904296875 1847 c 1
 -63.904296875 1847 l 1
 -63.904296875 1767 l 2
 -63.904296875 1430 -236.904296875 1376 -576.904296875 1376 c 2xbe
 -1133.90429688 1376 l 1
 -1133.90429688 1455 l 1x7e
 -1045.90429688 1488 -934.904296874 1490 -910.904296875 1586 c 1
 -928.904296874 1579 -954.904296872 1575 -988.904296875 1575 c 0
 -1089.90429688 1575 -1169.90429688 1633 -1169.90429688 1733 c 0
EndSplineSet
EndChar

StartChar: uni0ECA
Encoding: 3786 3786 255
Width: 4
VWidth: 2170
GlyphClass: 2
Flags: W
HStem: 1384 94<-908.489 -813.208 -616.208 -516.218 -422.208 -237.208> 1646 128<-918.927 -774.995 -639.303 -506.243>
VStem: -1061.21 136<1494.27 1640.79> -502.208 155<1497.12 1642.26>
LayerCount: 2
Fore
SplineSet
-813.208007812 1385 m 5
 -947.208007812 1385 -1061.20800781 1445 -1061.20800781 1576 c 4
 -1061.20800781 1689 -1000.20800781 1774 -887.208007812 1774 c 4
 -794.208007812 1774 -733.208007812 1729 -709.208007812 1664 c 5
 -681.208007812 1725 -623.208007812 1774 -531.208007812 1774 c 4
 -427.208007812 1774 -347.208007812 1708 -347.208007812 1605 c 4
 -347.208007812 1542 -377.208007812 1498 -422.208007812 1478 c 5
 -237.208007812 1478 l 5
 -237.208007812 1384 l 5
 -616.208007812 1384 l 5
 -616.208007812 1479 l 5
 -548.208007812 1480 -502.208007812 1508 -502.208007812 1575 c 4
 -502.208007812 1623 -526.208007812 1646 -575.208007812 1646 c 4
 -612.208007812 1646 -636.208007812 1618 -653.208007812 1575 c 5
 -764.208007812 1575 l 5
 -773.208007812 1598 l 5
 -790.208007812 1630 -817.208007812 1646 -853.208007812 1646 c 4
 -893.208007812 1646 -925.208007812 1616 -925.208007812 1575 c 4
 -925.208007812 1509 -883.208007812 1479 -813.208007812 1479 c 5
 -813.208007812 1385 l 5
EndSplineSet
EndChar

StartChar: uni0ECB
Encoding: 3787 3787 256
Width: 10
VWidth: 2170
GlyphClass: 2
Flags: W
HStem: 1503 112<-870.815 -750.815 -629.815 -508.815>
VStem: -750.815 121<1384 1503 1615 1735>
LayerCount: 2
Fore
SplineSet
-629.815429688 1384 m 5
 -750.815429688 1384 l 5
 -750.815429688 1503 l 5
 -870.815429688 1503 l 5
 -870.815429688 1615 l 5
 -750.815429688 1615 l 5
 -750.815429688 1735 l 5
 -629.815429688 1735 l 5
 -629.815429688 1615 l 5
 -508.815429688 1615 l 5
 -508.815429688 1503 l 5
 -629.815429688 1503 l 5
 -629.815429688 1384 l 5
EndSplineSet
EndChar

StartChar: uni0ECC
Encoding: 3788 3788 257
Width: 4
VWidth: 2170
GlyphClass: 2
Flags: W
HStem: 1483 107<-699.58 -580.39> 1697 162<-697.423 -579.229 -513.229 -358.921>
VStem: -804.229 103<1592.15 1692.09> -579.229 88<1592.98 1696.03> -351.229 147<1865.39 1939>
LayerCount: 2
Fore
SplineSet
-804.229492188 1665 m 4
 -804.229492188 1803 -707.229492188 1859 -561.229492188 1859 c 6
 -429.229492188 1859 l 6
 -370.229492188 1859 -351.229492188 1880 -351.229492188 1939 c 5
 -204.229492188 1939 l 5
 -209.229492188 1766 -263.229492188 1697 -439.229492188 1697 c 6
 -513.229492188 1697 l 5
 -495.229492188 1635 l 5
 -492.229492188 1630 -491.229492188 1618 -491.229492188 1600 c 4
 -491.229492188 1524 -561.229492188 1483 -642.229492188 1483 c 4
 -753.229492188 1483 -804.229492188 1551 -804.229492188 1665 c 4
-639.229492188 1590 m 260
 -603.229492188 1590 -579.229492188 1607 -579.229492188 1642 c 6
 -579.229492188 1697 l 5
 -615.229492188 1697 l 6
 -670.229492188 1697 -701.229492188 1690 -701.229492188 1642 c 4
 -701.229492188 1608 -675.229492188 1590 -639.229492188 1590 c 260
EndSplineSet
EndChar

StartChar: uni0ECD
Encoding: 3789 3789 258
Width: 8
VWidth: 2170
GlyphClass: 2
Flags: W
HStem: 1434 141<-762.4 -607.602> 1754 138<-762.956 -607.408>
VStem: -920.754 144<1589.95 1739.62> -594.754 146<1586.56 1740.15>
LayerCount: 2
Fore
SplineSet
-684.75390625 1575 m 4
 -633.75390625 1575 -594.75390625 1612 -594.75390625 1665 c 4
 -594.75390625 1716 -633.75390625 1754 -684.75390625 1754 c 4
 -736.75390625 1754 -776.75390625 1716 -776.75390625 1665 c 4
 -776.75390625 1615 -736.75390625 1575 -684.75390625 1575 c 4
-448.75390625 1662 m 4
 -448.75390625 1531 -553.75390625 1434 -684.75390625 1434 c 260
 -816.75390625 1434 -920.75390625 1530 -920.75390625 1662 c 260
 -920.75390625 1794 -816.75390625 1892 -684.75390625 1892 c 4
 -552.75390625 1892 -448.75390625 1794 -448.75390625 1662 c 4
EndSplineSet
EndChar

StartChar: uni0ED0
Encoding: 3792 3792 259
Width: 1289
VWidth: 2170
GlyphClass: 2
Flags: W
HStem: -12 203<481.878 812.392> 1059 205<479.767 814.509>
VStem: 79.0703 227<402.403 859.68> 989.07 227<402.403 859.68>
LayerCount: 2
Fore
SplineSet
79.0703125 640 m 0
 79.0703125 990 295.0703125 1264 647.0703125 1264 c 256
 999.0703125 1264 1216.0703125 990 1216.0703125 640 c 0
 1216.0703125 255 1024.0703125 -12 647.0703125 -12 c 256
 270.0703125 -12 79.0703125 255 79.0703125 640 c 0
306.0703125 637 m 0
 306.0703125 396 414.0703125 191 647.0703125 191 c 256
 880.0703125 191 989.0703125 396 989.0703125 637 c 0
 989.0703125 866 876.0703125 1059 647.0703125 1059 c 256
 418.0703125 1059 306.0703125 866 306.0703125 637 c 0
EndSplineSet
EndChar

StartChar: uni0ED1
Encoding: 3793 3793 260
Width: 1382
VWidth: 2170
GlyphClass: 2
Flags: W
HStem: -33 155<544.272 737.359> 409 156<629.272 742.476> 718 132<632.691 755.328> 1058 207<479.094 877.248>
VStem: 84.2725 283<645.29 948.947> 480.272 149<585.586 713.78> 758.272 177<585.119 714.871> 1076.27 284<456.107 867.167>
LayerCount: 2
Fore
SplineSet
480.272460938 656 m 0
 480.272460938 791 570.272460938 850 712.272460938 850 c 0
 848.272460938 850 935.272460938 775 935.272460938 639 c 0
 935.272460938 470 800.272460938 409 613.272460938 409 c 0
 352.272460938 409 84.2724609375 530 84.2724609375 784 c 0
 84.2724609375 1104 341.272460938 1265 665.272460938 1265 c 0
 1060.27246094 1265 1360.27246094 1059 1360.27246094 669 c 0
 1360.27246094 235 970.272460938 -33 544.272460938 -33 c 1
 544.272460938 122 l 1
 833.272460938 139 1076.27246094 358 1076.27246094 662 c 0
 1076.27246094 914 925.272460938 1058 673.272460938 1058 c 0
 468.272460938 1058 367.272460938 966 367.272460938 784 c 0
 367.272460938 685 410.272460938 619 496.272460938 584 c 1
 485.272460938 618 480.272460938 642 480.272460938 656 c 0
694.272460938 718 m 1
 651.272460938 718 629.272460938 693 629.272460938 644 c 2
 629.272460938 565 l 1
 715.272460938 569 758.272460938 597 758.272460938 649 c 0
 758.272460938 694 736.272460938 717 694.272460938 718 c 1
EndSplineSet
EndChar

StartChar: uni0ED2
Encoding: 3794 3794 261
Width: 1454
VWidth: 2170
GlyphClass: 2
Flags: W
HStem: 0 177<523.483 1027.46> 302 132<718.684 834.643> 586 169<723.758 838.677 968.677 1070.7>
VStem: 94.6768 283<302.176 605.434> 533.677 179<439.478 566.848> 838.677 151<438.922 580.719> 981.677 212<1336.12 1485> 1148.68 282<273.169 513.671>
LayerCount: 2
Fore
SplineSet
838.676757812 586 m 1xfc
 764.676757812 580 712.676757812 571 712.676757812 504 c 1
 717.676757812 461 738.676757812 437 773.676757812 434 c 1
 816.676757812 434 838.676757812 459 838.676757812 505 c 2
 838.676757812 586 l 1xfc
759.676757812 177 m 0
 968.676757812 177 1148.67675781 221 1148.67675781 400 c 0
 1148.67675781 506 1069.67675781 565 968.676757812 583 c 1
 982.676757812 534 989.676757812 507 989.676757812 502 c 0
 989.676757812 368 910.676757812 302 753.676757812 302 c 0
 627.676757812 302 533.676757812 379 533.676757812 505 c 0
 533.676757812 683 713.676757812 755 896.676757812 755 c 0
 1167.67675781 755 1430.67675781 653 1430.67675781 390 c 0xfd
 1430.67675781 80 1087.67675781 0 733.676757812 0 c 0
 413.676757812 0 94.6767578125 122 94.6767578125 434 c 0
 94.6767578125 916 659.676757812 1019 891.676757812 1266 c 0
 947.676757812 1325 981.676757812 1383 981.676757812 1485 c 1
 1193.67675781 1485 l 1xfa
 1193.67675781 986 711.676757812 924 465.676757812 666 c 0
 412.676757812 611 377.676757812 555 377.676757812 456 c 0
 377.676757812 270 505.676757812 177 759.676757812 177 c 0
EndSplineSet
EndChar

StartChar: uni0ED3
Encoding: 3795 3795 262
Width: 1717
VWidth: 2170
GlyphClass: 2
Flags: W
HStem: 0 177<954.518 1272.5> 300 131<187.291 303.795> 1683 201<953.542 1160.07>
VStem: 5.20117 177<163.823 296.587> 311.201 149<177.075 295.38> 573.201 283<283.423 1170> 724.201 225<1555.05 1675.48> 1362.2 277<275.906 1041.82>
LayerCount: 2
Fore
SplineSet
245.201171875 300 m 1xf9
 205.201171875 297 182.201171875 274 182.201171875 231 c 0
 182.201171875 185 211.201171875 159 267.201171875 151 c 1
 311.201171875 147 l 1
 311.201171875 202 l 2
 311.201171875 267 288.201171875 300 245.201171875 300 c 1xf9
5.201171875 228 m 0
 5.201171875 362 102.201171875 431 238.201171875 431 c 0
 374.201171875 431 460.201171875 372 460.201171875 238 c 0
 460.201171875 218 453.201171875 199 448.201171875 176 c 1
 532.201171875 226 573.201171875 335 573.201171875 505 c 2
 573.201171875 1170 l 1
 856.201171875 1170 l 1
 856.201171875 512 l 2xfd
 856.201171875 304 911.201171875 177 1116.20117188 177 c 0
 1303.20117188 177 1362.20117188 282 1362.20117188 474 c 2
 1362.20117188 861 l 2
 1362.20117188 1222 962.201171875 1278 782.201171875 1458 c 0
 745.201171875 1495 724.201171875 1533 724.201171875 1601 c 0
 724.201171875 1781 839.201171875 1884 1020.20117188 1884 c 0
 1191.20117188 1884 1341.20117188 1751 1481.20117188 1643 c 2
 1604.20117188 1548 l 1
 1487.20117188 1400 l 1
 1360.20117188 1495 l 2
 1252.20117188 1575 1135.20117188 1683 1019.20117188 1683 c 0
 983.201171875 1683 949.201171875 1659 949.201171875 1622 c 0xfb
 949.201171875 1567 1050.20117188 1518 1089.20117188 1495 c 0
 1318.20117188 1356 1639.20117188 1230 1639.20117188 880 c 2
 1639.20117188 497 l 2
 1639.20117188 157 1465.20117188 0 1119.20117188 0 c 0
 925.201171875 0 751.201171875 88 720.201171875 250 c 1
 678.201171875 89 506.201171875 0 301.201171875 0 c 0
 137.201171875 0 5.201171875 67 5.201171875 228 c 0
EndSplineSet
EndChar

StartChar: uni0ED4
Encoding: 3796 3796 263
Width: 1475
VWidth: 2170
GlyphClass: 2
Flags: W
HStem: -2 179<488.933 1095.68> 516 133<1093.62 1183.75> 803 146<1069.79 1187.36>
VStem: 94.6768 282<289.203 765.352> 777.677 284<650.213 797.028> 1190.68 176<654.929 801.04>
LayerCount: 2
Fore
SplineSet
1115.67675781 649 m 2
 1165.67675781 649 1190.67675781 675 1190.67675781 726 c 0
 1190.67675781 778 1170.67675781 803 1131.67675781 803 c 0
 1084.67675781 803 1063.67675781 771 1061.67675781 725 c 1
 1061.67675781 720 l 1
 1060.67675781 719 1060.67675781 716 1060.67675781 713 c 256
 1060.67675781 693 1062.67675781 675 1064.67675781 649 c 1
 1115.67675781 649 l 2
1089.67675781 949 m 0
 1265.67675781 949 1365.67675781 889 1366.67675781 725 c 0
 1366.67675781 606 1281.67675781 516 1161.67675781 516 c 0
 1136.67675781 516 1112.67675781 520 1092.67675781 530 c 1
 1146.67675781 385 1271.67675781 278 1440.67675781 243 c 1
 1402.67675781 -2 l 1
 719.676757812 -2 l 2
 362.676757812 -2 94.6767578125 122 94.6767578125 478 c 0
 94.6767578125 808 160.676757812 967 384.676757812 1071 c 2
 821.676757812 1274 l 2
 928.676757812 1324 994.676757812 1410 1061.67675781 1500 c 1
 1237.67675781 1353 l 1
 1164.67675781 1247 1086.67675781 1134 963.676757812 1078 c 1
 551.676757812 885 l 1
 400.676757812 812 376.676757812 705 376.676757812 482 c 0
 376.676757812 277 467.676757812 177 672.676757812 177 c 2
 1095.67675781 177 l 1
 1042.67675781 208 l 2
 904.676757812 289 777.676757812 422 777.676757812 634 c 0
 777.676757812 822 900.676757812 949 1089.67675781 949 c 0
EndSplineSet
EndChar

StartChar: uni0ED5
Encoding: 3797 3797 264
Width: 1477
VWidth: 2170
GlyphClass: 2
Flags: W
HStem: 0 177<506.742 1096.68> 516 133<1092.66 1186.57> 801 148<1070.82 1186.18> 1290 160<529.548 666.282>
VStem: 94.6768 283<309.238 764.29> 360.677 166<1172.25 1284.17> 778.677 283<527.5 795.683> 1191.68 176<656.428 797.728>
LayerCount: 2
Fore
SplineSet
1191.67675781 726 m 0xf3
 1191.67675781 771 1174.67675781 801 1132.67675781 801 c 0
 1084.67675781 801 1061.67675781 769 1061.67675781 702 c 0
 1061.67675781 684 1062.67675781 666 1064.67675781 649 c 1
 1099.67675781 649 l 2
 1158.67675781 649 1191.67675781 669 1191.67675781 726 c 0xf3
602.676757812 1168 m 0
 641.676757812 1168 667.676757812 1200 667.676757812 1238 c 0
 667.676757812 1273 646.676757812 1290 606.676757812 1290 c 0
 559.676757812 1290 526.676757812 1275 526.676757812 1230 c 0xf7
 526.676757812 1188 557.676757812 1168 602.676757812 1168 c 0
360.676757812 1246 m 0
 360.676757812 1381 473.676757812 1450 610.676757812 1450 c 0
 750.676757812 1450 813.676757812 1376 835.676757812 1249 c 1
 925.676757812 1289 1002.67675781 1398 1059.67675781 1472 c 1
 1236.67675781 1330 l 1
 1175.67675781 1199 1091.67675781 1110 963.676757812 1050 c 1
 912.676757812 1018 836.676757812 1017 743.676757812 1001 c 1
 686.676757812 947 627.676757812 910 569.676757812 890 c 1
 430.676757812 824 377.676757812 746 377.676757812 546 c 0
 377.676757812 315 445.676757812 177 673.676757812 177 c 2
 1096.67675781 177 l 1
 1044.67675781 208 l 2
 906.676757812 291 778.676757812 421 778.676757812 634 c 0
 778.676757812 831 902.676757812 949 1099.67675781 949 c 0
 1278.67675781 949 1367.67675781 874 1367.67675781 726 c 0
 1367.67675781 607 1283.67675781 516 1164.67675781 516 c 0
 1136.67675781 516 1112.67675781 520 1091.67675781 530 c 1
 1142.67675781 387 1281.67675781 273 1442.67675781 243 c 1
 1403.67675781 0 l 1
 650.676757812 0 l 2
 328.676757812 0 94.6767578125 155 94.6767578125 474 c 0xfb
 94.6767578125 822 151.676757812 983 393.676757812 1075 c 1
 419.676757812 1084 l 1
 380.676757812 1127 360.676757812 1181 360.676757812 1246 c 0
EndSplineSet
EndChar

StartChar: uni0ED6
Encoding: 3798 3798 265
Width: 1531
VWidth: 2170
GlyphClass: 2
Flags: W
HStem: 0 177<438.164 612.018 984.358 1166.5> 740 130<402.626 518.193> 1023 148<411.869 525.008> 1357 21G<1332.94 1381.35> 1585 202<886.467 1108.45>
VStem: 116.525 284<214.928 762 870 1016.26> 530.525 176<881.767 1019.51> 653.525 230<1445.87 1579.42> 655.525 283<230.977 590> 1204.53 283<214.972 930.168>
LayerCount: 2
Fore
SplineSet
530.525390625 950 m 0xfe40
 530.525390625 995 507.525390625 1023 462.525390625 1023 c 1
 421.525390625 1022 400.525390625 989 400.525390625 922 c 2
 400.525390625 870 l 1
 438.525390625 870 l 1
 491.525390625 874 530.525390625 896 530.525390625 950 c 0xfe40
425.525390625 1171 m 0
 583.525390625 1171 706.525390625 1104 706.525390625 955 c 0xfe40
 706.525390625 827 628.525390625 740 500.525390625 740 c 0
 478.525390625 740 445.525390625 747 400.525390625 762 c 1
 400.525390625 406 l 2
 400.525390625 284 409.525390625 177 527.525390625 177 c 0
 613.525390625 177 655.525390625 260 655.525390625 429 c 2
 655.525390625 590 l 1
 938.525390625 590 l 1
 938.525390625 405 l 2xfcc0
 938.525390625 285 969.525390625 177 1076.52539062 177 c 0
 1196.52539062 177 1204.52539062 309 1204.52539062 441 c 0
 1204.52539062 461 1204.52539062 481 1204.52539062 501 c 0
 1204.52539062 818 1192.52539062 1000 1010.52539062 1131 c 0
 870.525390625 1231 653.525390625 1283 653.525390625 1518 c 0
 653.525390625 1689 776.525390625 1787 948.525390625 1787 c 0
 1141.52539062 1787 1255.52539062 1689 1360.52539062 1595 c 1
 1487.52539062 1479 l 1
 1360.52539062 1357 l 1
 1240.52539062 1444 l 2
 1164.52539062 1499 1086.52539062 1582 979.525390625 1582 c 0
 974.525390625 1582 967.525390625 1583 962.525390625 1585 c 1
 919.525390625 1584 883.525390625 1567 883.525390625 1526 c 0xfd40
 883.525390625 1423 1133.52539062 1317 1191.52539062 1277 c 0
 1424.52539062 1117 1487.52539062 921 1487.52539062 517 c 2
 1487.52539062 490 l 1
 1486.52539062 194 1394.52539062 0 1115.52539062 0 c 0
 932.525390625 0 823.525390625 75 794.525390625 228 c 1
 773.525390625 80 667.525390625 0 493.525390625 0 c 0
 213.525390625 0 116.525390625 194 116.525390625 491 c 2
 116.525390625 809 l 2
 116.525390625 1020 216.525390625 1171 425.525390625 1171 c 0
EndSplineSet
EndChar

StartChar: uni0ED7
Encoding: 3799 3799 266
Width: 1499
VWidth: 2170
GlyphClass: 2
Flags: W
HStem: 0 148<259.895 375.606> 300 131<261.391 379.273> 740 136<259.528 381.787> 991 179<785.815 1086.17> 1026 144<255.883 372.667>
VStem: 76.7871 177<151.034 294.997 881.586 1021.49> 381.787 285<155.375 300 407 744> 1144.79 283<-150.253 935.662>
LayerCount: 2
Fore
SplineSet
253.787109375 229 m 4xe7
 253.787109375 181 272.787109375 150 315.787109375 148 c 5
 370.787109375 148 381.787109375 185 381.787109375 245 c 6
 381.787109375 300 l 5
 327.787109375 300 l 6
 277.787109375 300 253.787109375 277 253.787109375 229 c 4xe7
319.787109375 1026 m 5xef
 274.787109375 1026 250.787109375 1002 250.787109375 957 c 4
 250.787109375 908 275.787109375 876 325.787109375 876 c 4
 330.787109375 876 348.787109375 880 381.787109375 887 c 5
 381.787109375 929 l 6
 381.787109375 983 366.787109375 1023 319.787109375 1026 c 5xef
618.787109375 1031 m 5
 732.787109375 1105 840.787109375 1170 992.787109375 1170 c 4
 1281.78710938 1170 1427.78710938 1012 1427.78710938 696 c 6
 1427.78710938 175 l 6
 1427.78710938 71 1442.78710938 -44 1474.78710938 -170 c 5
 1194.78710938 -170 l 5
 1160.78710938 -65 1144.78710938 45 1144.78710938 162 c 6
 1144.78710938 701 l 6
 1144.78710938 872 1128.78710938 991 962.787109375 991 c 4xf7
 835.787109375 991 752.787109375 929 663.787109375 876 c 5
 664.787109375 858 666.787109375 844 666.787109375 830 c 6
 666.787109375 352 l 6
 666.787109375 142 555.787109375 0 345.787109375 0 c 4
 166.787109375 0 76.787109375 76 76.787109375 229 c 4
 76.787109375 352 165.787109375 431 289.787109375 431 c 4
 296.787109375 431 327.787109375 423 381.787109375 407 c 5
 381.787109375 744 l 5
 362.787109375 741 346.787109375 740 326.787109375 740 c 4
 183.787109375 740 71.787109375 814 71.787109375 956 c 4
 71.787109375 1103 194.787109375 1170 345.787109375 1170 c 4
 482.787109375 1170 558.787109375 1119 618.787109375 1031 c 5
EndSplineSet
EndChar

StartChar: uni0ED8
Encoding: 3800 3800 267
Width: 1558
VWidth: 2170
GlyphClass: 2
Flags: W
HStem: -654 132<908.567 1032.32> -653 193<297.012 530.429> 0 21G<310.677 491.677> 300 132<379.823 500.118> 991 179<420.995 620.664 988.931 1183.42>
VStem: 94.6768 283<157.017 300 410 949.258> 96.6768 192<-451.715 -319.36> 508.677 177<154.796 292.739> 660.677 283<556 939.428> 1034.68 153<-518.616 -404.211> 1218.68 284<124 954.52>
LayerCount: 2
Fore
SplineSet
1218.67675781 757 m 2x7a60
 1218.67675781 879 1211.67675781 991 1094.67675781 991 c 0
 971.676757812 991 943.676757812 892 943.676757812 757 c 2
 943.676757812 556 l 1
 660.676757812 556 l 1
 660.676757812 757 l 2x7ae0
 660.676757812 893 637.676757812 991 519.676757812 991 c 0
 399.676757812 991 377.676757812 897 377.676757812 765 c 2
 377.676757812 410 l 1
 423.676757812 425 456.676757812 432 477.676757812 432 c 0
 599.676757812 432 685.676757812 339 685.676757812 216 c 0
 685.676757812 60 576.676757812 0 406.676757812 0 c 0
 214.676757812 0 94.6767578125 141 94.6767578125 334 c 2
 94.6767578125 681 l 2
 94.6767578125 1007 223.676757812 1170 483.676757812 1170 c 0
 666.676757812 1170 773.676757812 1094 804.676757812 942 c 1
 832.676757812 1094 937.676757812 1170 1118.67675781 1170 c 0
 1400.67675781 1170 1502.67675781 989 1502.67675781 692 c 2
 1502.67675781 247 l 2
 1502.67675781 17 1434.67675781 -92 1291.67675781 -178 c 1
 1096.67675781 -297 l 1
 1149.67675781 -346 1187.67675781 -382 1187.67675781 -485 c 0
 1187.67675781 -591 1083.67675781 -654 976.676757812 -654 c 0xbd60
 863.676757812 -654 795.676757812 -580 761.676757812 -489 c 1
 620.676757812 -568 l 2
 538.676757812 -614 460.676757812 -653 356.676757812 -653 c 256
 212.676757812 -653 96.6767578125 -555 96.6767578125 -412 c 0
 96.6767578125 -193 239.676757812 -149 416.676757812 -99 c 2
 1215.67675781 124 l 1
 1217.67675781 155 1218.67675781 194 1218.67675781 243 c 2
 1218.67675781 757 l 2x7a60
508.676757812 225 m 1x3d60
 508.676757812 273 477.676757812 300 427.676757812 300 c 2
 377.676757812 300 l 1
 377.676757812 248 l 1
 382.676757812 184 404.676757812 150 439.676757812 147 c 1
 482.676757812 153 505.676757812 179 508.676757812 225 c 1x3d60
780.676757812 -285 m 1
 803.676757812 -260 831.676757812 -229 862.676757812 -213 c 2
 1067.67675781 -112 l 2
 1085.67675781 -102 1105.67675781 -92 1121.67675781 -81 c 2
 1147.67675781 -64 l 1
 419.676757812 -286 l 2
 362.676757812 -303 288.676757812 -319 288.676757812 -386 c 1
 294.676757812 -433 320.676757812 -457 366.676757812 -460 c 1x7a60
 502.676757812 -460 670.676757812 -334 780.676757812 -285 c 1
965.676757812 -522 m 0xb860
 1002.67675781 -522 1034.67675781 -504 1034.67675781 -467 c 0
 1034.67675781 -426 1013.67675781 -401 972.676757812 -401 c 0
 920.676757812 -401 906.676757812 -421 906.676757812 -466 c 0
 906.676757812 -494 934.676757812 -522 965.676757812 -522 c 0xb860
EndSplineSet
EndChar

StartChar: uni0ED9
Encoding: 3801 3801 268
Width: 1593
VWidth: 2170
GlyphClass: 2
Flags: W
HStem: 0 177<1047.2 1227.48> 0 147<386.467 505.186> 300 130<379.27 505.419> 991 179<431.664 667.435>
VStem: 94.6768 283<156.523 300 407 939.259> 509.677 177<150.392 296.076> 724.677 283<214.171 931.219> 1264.68 283<216.211 1170>
LayerCount: 2
Fore
SplineSet
446.676757812 147 m 0x7f
 489.676757812 147 509.676757812 178 509.676757812 225 c 0
 509.676757812 275 485.676757812 300 437.676757812 300 c 2
 377.676757812 300 l 1
 377.676757812 240 l 2
 377.676757812 181 392.676757812 147 446.676757812 147 c 0x7f
1007.67675781 411 m 2
 1007.67675781 283 1027.67675781 177 1136.67675781 177 c 0
 1254.67675781 177 1264.67675781 289 1264.67675781 411 c 2
 1264.67675781 1170 l 1
 1547.67675781 1170 l 1
 1547.67675781 454 l 2
 1547.67675781 155 1443.67675781 0 1147.67675781 0 c 0xbf
 866.676757812 0 724.676757812 116 724.676757812 391 c 2
 724.676757812 783 l 2
 724.676757812 912 671.676757812 991 548.676757812 991 c 0
 431.676757812 991 377.676757812 912 377.676757812 788 c 2
 377.676757812 407 l 1
 411.676757812 423 444.676757812 430 476.676757812 430 c 0
 602.676757812 430 686.676757812 346 686.676757812 219 c 0
 686.676757812 60 580.676757812 0 408.676757812 0 c 0
 201.676757812 0 94.6767578125 144 94.6767578125 353 c 2
 94.6767578125 743 l 2
 94.6767578125 1027 272.676757812 1170 558.676757812 1170 c 0
 856.676757812 1170 1007.67675781 1034 1007.67675781 740 c 2
 1007.67675781 411 l 2
EndSplineSet
EndChar

StartChar: uni0EDC
Encoding: 3804 3804 269
Width: 2712
VWidth: 2170
GlyphClass: 2
Flags: W
HStem: 0 177<511.303 854.459 1273.2 1480.44 1959.32 2303.56> 739 130<188.734 271.755 806.058 936.201> 992 178<1362.73 1566.59> 1023 147<187.771 321.106 804.55 923.453>
VStem: 5.20117 177<875.431 1018.45> 176.201 266<241.662 563.152> 325.201 239<871.108 1017.2> 621.201 178<870.703 1019.28> 936.201 283<260.709 742 869.704 899.375> 1597.2 283<282.736 969.854> 2369.2 285<241.07 1170>
LayerCount: 2
Fore
SplineSet
325.201171875 955 m 0xdbe0
 325.201171875 998 298.201171875 1023 253.201171875 1023 c 0
 211.201171875 1023 182.201171875 994 182.201171875 951 c 0
 182.201171875 900 210.201171875 869 261.201171875 869 c 2
 307.201171875 869 l 1
 319.201171875 925 325.201171875 954 325.201171875 955 c 0xdbe0
867.201171875 1023 m 0
 824.201171875 1023 799.201171875 999 799.201171875 954 c 0
 799.201171875 906 818.201171875 867 865.201171875 867 c 0
 883.201171875 867 907.201171875 872 936.201171875 880 c 1
 936.201171875 908 l 2
 936.201171875 984 913.201171875 1023 867.201171875 1023 c 0
1190.20117188 1021 m 1
 1293.20117188 1088 1399.20117188 1170 1550.20117188 1170 c 0xe5e0
 1816.20117188 1170 1880.20117188 974 1880.20117188 703 c 2
 1880.20117188 432 l 2
 1880.20117188 252 1952.20117188 177 2131.20117188 177 c 0
 2314.20117188 177 2369.20117188 243 2369.20117188 426 c 2
 2369.20117188 1170 l 1
 2654.20117188 1170 l 1xd5e0
 2654.20117188 447 l 2
 2654.20117188 149 2477.20117188 0 2122.20117188 0 c 0
 1917.20117188 0 1787.20117188 82 1733.20117188 244 c 1
 1693.20117188 82 1539.20117188 0 1273.20117188 0 c 1
 1273.20117188 178 l 1
 1493.20117188 178 1597.20117188 253 1597.20117188 472 c 2
 1597.20117188 697 l 2
 1597.20117188 725 1598.20117188 755 1598.20117188 784 c 0
 1598.20117188 891 1587.20117188 992 1489.20117188 992 c 0
 1396.20117188 992 1299.20117188 926 1219.20117188 870 c 1
 1219.20117188 478 l 2
 1219.20117188 161 1019.20117188 0 701.201171875 0 c 0
 424.201171875 0 176.201171875 88 176.201171875 358 c 0xe5e0
 176.201171875 394 205.201171875 512 261.201171875 710 c 1
 264.201171875 716 268.201171875 731 273.201171875 753 c 1
 242.201171875 745 220.201171875 739 190.201171875 739 c 0
 72.201171875 739 5.201171875 835 5.201171875 955 c 0
 5.201171875 1103 125.201171875 1170 276.201171875 1170 c 0
 436.201171875 1170 564.201171875 1087 564.201171875 928 c 0xdbe0
 564.201171875 821 442.201171875 488 442.201171875 346 c 0xd5e0
 442.201171875 224 558.201171875 177 692.201171875 177 c 0
 865.201171875 177 936.201171875 265 936.201171875 442 c 2
 936.201171875 742 l 1
 910.201171875 737 881.201171875 734 848.201171875 734 c 0
 719.201171875 734 621.201171875 826 621.201171875 955 c 256
 621.201171875 1103 750.201171875 1170 902.201171875 1170 c 0
 1039.20117188 1170 1141.20117188 1113 1190.20117188 1021 c 1
EndSplineSet
EndChar

StartChar: uni0EDD
Encoding: 3805 3805 270
Width: 2919
VWidth: 2170
GlyphClass: 2
Flags: W
HStem: 0 177<512.739 851.139 2075.1 2381.33> 0 136<1556.44 1687.11> 302 127<1551.54 1694.41> 734 133<190.374 271.889 815.854 943.005> 991 179<1356.65 1619.15> 1023 147<187.637 321.953 810.462 935.535>
VStem: 5.20117 177<877.101 1016.79> 176.201 267<241.046 579.706> 311.201 254<871.416 1022.11> 628.201 179<870.373 1018.71> 944.201 285<269.139 742 869.03 895.611> 1358.2 187<145.401 294.218> 1696.2 279<254.893 298.889 408 900.692> 2455.2 283<258.631 1170>
LayerCount: 2
Back
SplineSet
1591.90039062 216 m 0
 1591.90039062 171 1608.90039062 142 1649.90039062 140 c 1
 1701.90039062 140 1712.90039062 174 1712.90039062 231 c 2
 1712.90039062 283 l 1
 1661.90039062 283 l 2
 1614.90039062 283 1591.90039062 261 1591.90039062 216 c 0
1653.90039062 968 m 1
 1611.90039062 968 1588.90039062 945 1588.90039062 903 c 0
 1588.90039062 857 1612.90039062 826 1659.90039062 826 c 0
 1664.90039062 826 1681.90039062 830 1712.90039062 837 c 1
 1712.90039062 876 l 2
 1712.90039062 927 1697.90039062 965 1653.90039062 968 c 1
1935.90039062 973 m 1
 2043.90039062 1043 2145.90039062 1104 2288.90039062 1104 c 0
 2561.90039062 1104 2698.90039062 955 2698.90039062 657 c 2
 2698.90039062 165 l 2
 2698.90039062 67 2713.90039062 -41 2743.90039062 -160 c 1
 2479.90039062 -160 l 1
 2447.90039062 -61 2431.90039062 43 2431.90039062 153 c 2
 2431.90039062 661 l 2
 2431.90039062 822 2417.90039062 935 2260.90039062 935 c 0
 2140.90039062 935 2062.90039062 876 1978.90039062 826 c 1
 1979.90039062 809 1980.90039062 796 1980.90039062 783 c 2
 1980.90039062 332 l 2
 1980.90039062 134 1876.90039062 0 1678.90039062 0 c 0
 1509.90039062 0 1424.90039062 72 1424.90039062 216 c 0
 1424.90039062 332 1508.90039062 407 1625.90039062 407 c 0
 1632.90039062 407 1661.90039062 399 1712.90039062 384 c 1
 1712.90039062 702 l 1
 1694.90039062 699 1679.90039062 698 1660.90039062 698 c 0
 1525.90039062 698 1419.90039062 768 1419.90039062 902 c 0
 1419.90039062 1041 1536.90039062 1104 1678.90039062 1104 c 0
 1807.90039062 1104 1878.90039062 1056 1935.90039062 973 c 1
EndSplineSet
Fore
SplineSet
565.201171875 928 m 0xb6fc
 565.201171875 794 443.201171875 514 443.201171875 349 c 0
 443.201171875 225 556.201171875 177 693.201171875 177 c 0
 875.201171875 177 944.201171875 276 944.201171875 463 c 2
 944.201171875 742 l 1
 915.201171875 737 886.201171875 734 853.201171875 734 c 0
 726.201171875 734 628.201171875 827 628.201171875 954 c 0
 628.201171875 1102 746.201171875 1170 898.201171875 1170 c 0xb57c
 1035.20117188 1170 1124.20117188 1122 1187.20117188 1040 c 1
 1282.20117188 1109 1383.20117188 1170 1533.20117188 1170 c 0x397c
 1795.20117188 1170 1975.20117188 994 1975.20117188 681 c 2
 1975.20117188 287 l 17
 2018.20117188 246 2135.20117188 177 2225.20117188 177 c 256
 2420.20117188 177 2455.20117188 286 2455.20117188 484 c 2
 2455.20117188 1170 l 1
 2738.20117188 1170 l 1
 2738.20117188 487 l 2
 2738.20117188 153 2582.20117188 0 2287.20117188 0 c 0xb57c
 2120.20117188 0 2001.20117188 58 1911.20117188 146 c 1
 1877.20117188 26 1746.20117188 0 1655.20117188 0 c 0x717c
 1449.20117188 0 1358.20117188 113 1358.20117188 224 c 0
 1358.20117188 356 1474.20117188 429 1591.20117188 429 c 0
 1627.20117188 429 1663.20117188 422 1696.20117188 408 c 9
 1696.20117188 676 l 2
 1696.20117188 859 1642.20117188 991 1519.20117188 991 c 0
 1400.20117188 991 1316.20117188 922 1229.20117188 866 c 1
 1229.20117188 494 l 2
 1229.20117188 171 1026.20117188 0 702.201171875 0 c 0
 430.201171875 0 176.201171875 88 176.201171875 354 c 0xb97c
 176.201171875 481 226.201171875 587 265.201171875 723 c 2
 273.201171875 753 l 1
 245.201171875 743 218.201171875 739 189.201171875 739 c 0
 76.201171875 739 5.201171875 834 5.201171875 950 c 0
 5.201171875 1102 123.201171875 1170 277.201171875 1170 c 0
 440.201171875 1170 565.201171875 1089 565.201171875 928 c 0xb6fc
876.201171875 1023 m 0
 830.201171875 1023 808.201171875 997 807.201171875 954 c 1
 807.201171875 905 825.201171875 867 872.201171875 867 c 0
 898.201171875 867 922.201171875 872 944.201171875 884 c 1
 944.201171875 915 l 2
 944.201171875 987 922.201171875 1023 876.201171875 1023 c 0
325.201171875 955 m 1
 325.201171875 998 298.201171875 1023 253.201171875 1023 c 0
 211.201171875 1023 182.201171875 994 182.201171875 951 c 0
 182.201171875 898 214.201171875 869 267.201171875 869 c 2
 311.201171875 869 l 1x36fc
 321.201171875 927 325.201171875 955 325.201171875 955 c 1
1624.20117188 302 m 0
 1571.20117188 302 1545.20117188 271 1545.20117188 229 c 0
 1545.20117188 169 1575.20117188 136 1630.20117188 136 c 0x707c
 1685.20117188 136 1695.20117188 172 1695.20117188 268 c 2
 1695.20117188 288 l 1
 1673.20117188 293 1649.20117188 302 1624.20117188 302 c 0
EndSplineSet
EndChar

StartChar: endash
Encoding: 8211 8211 274
Width: 1139
GlyphClass: 2
Flags: W
HStem: 577 219<241 861>
VStem: 241 620<577 796>
LayerCount: 2
Fore
SplineSet
241 796 m 1
 861 796 l 1
 861 577 l 1
 241 577 l 1
 241 796 l 1
EndSplineSet
EndChar

StartChar: emdash
Encoding: 8212 8212 275
Width: 1771
GlyphClass: 2
Flags: W
HStem: 577 219<147 1587>
LayerCount: 2
Fore
SplineSet
147 796 m 1
 1587 796 l 1
 1587 577 l 1
 147 577 l 1
 147 796 l 1
EndSplineSet
EndChar

StartChar: quoteleft
Encoding: 8216 8216 276
Width: 619
GlyphClass: 2
Flags: W
HStem: 1523 108<391.152 435.77>
VStem: 119 362<966 1337.14> 119 200<1340 1459.39>
LayerCount: 2
Fore
SplineSet
481 966 m 1xc0
 119 966 l 1
 119 1290 l 2xc0
 119 1501 266 1583 429 1631 c 1
 480 1523 l 1
 392 1490 319 1458 319 1340 c 1xa0
 481 1340 l 1
 481 966 l 1xc0
EndSplineSet
EndChar

StartChar: quoteright
Encoding: 8217 8217 277
Width: 538
GlyphClass: 2
Flags: W
HStem: 942 108<126.23 170.865> 1587 20G<81 444>
VStem: 81 363<1236.05 1607> 244 200<1113.83 1233>
LayerCount: 2
Fore
SplineSet
81 1607 m 1xe0
 444 1607 l 1
 444 1283 l 2xe0
 444 1073 296 989 133 942 c 1
 82 1050 l 1
 171 1082 244 1116 244 1233 c 1xd0
 81 1233 l 1
 81 1607 l 1xe0
EndSplineSet
EndChar

StartChar: quotesinglbase
Encoding: 8218 8218 278
Width: 674
GlyphClass: 2
Flags: W
HStem: -291 108<229.23 274.064>
VStem: 184 363<3.44791 373> 347 200<-119.534 0>
LayerCount: 2
Fore
SplineSet
184 373 m 1xc0
 547 373 l 1
 547 51 l 2xc0
 547 -162 400 -243 236 -291 c 1
 185 -183 l 1
 274 -151 347 -117 347 0 c 1xa0
 184 0 l 1
 184 373 l 1xc0
EndSplineSet
EndChar

StartChar: quotedblleft
Encoding: 8220 8220 279
Width: 1099
GlyphClass: 2
Flags: W
HStem: 954 374<318 481 797 960> 1511 108<391.135 435.637 870.135 914.77>
VStem: 118 363<954 1325.14> 118 200<1328 1445.86> 597 363<954 1325.14> 597 200<1328 1446.21>
LayerCount: 2
Fore
SplineSet
960 954 m 1xc8
 597 954 l 1
 597 1278 l 2xc8
 597 1489 745 1571 908 1619 c 1
 959 1511 l 1
 871 1478 797 1446 797 1328 c 1xc4
 960 1328 l 1
 960 954 l 1xc8
481 954 m 1xe0
 118 954 l 1
 118 1278 l 2xe0
 118 1489 266 1571 429 1619 c 1
 479 1511 l 1
 392 1477 318 1446 318 1328 c 1xd0
 481 1328 l 1
 481 954 l 1xe0
EndSplineSet
EndChar

StartChar: quotedblright
Encoding: 8221 8221 280
Width: 952
GlyphClass: 2
Flags: W
HStem: 942 108<126.23 170.865 605.363 650.064> 1233 374<81 244 560 723>
VStem: 81 363<1236.05 1607> 244 200<1113.83 1233> 560 363<1236.05 1607> 723 200<1113.83 1233>
LayerCount: 2
Fore
SplineSet
81 1607 m 1xe0
 444 1607 l 1
 444 1283 l 2xe0
 444 1073 296 989 133 942 c 1
 82 1050 l 1
 171 1082 244 1116 244 1233 c 1xd0
 81 1233 l 1
 81 1607 l 1xe0
560 1607 m 1xc8
 923 1607 l 1
 923 1283 l 2xc8
 923 1073 776 989 612 942 c 1
 562 1050 l 1
 650 1082 723 1116 723 1233 c 1xc4
 560 1233 l 1
 560 1607 l 1xc8
EndSplineSet
EndChar

StartChar: quotedblbase
Encoding: 8222 8222 281
Width: 1147
GlyphClass: 2
Flags: W
HStem: -291 108<239.363 289.237 718.363 768.237> 0 373<195 357 674 836>
VStem: 195 362<3.44791 373> 357 200<-119.534 0> 674 363<3.44791 373> 836 201<-119.534 0>
LayerCount: 2
Fore
SplineSet
195 373 m 1xe0
 557 373 l 1
 557 51 l 2xe0
 557 -162 410 -243 246 -291 c 1
 196 -183 l 1
 285 -151 357 -117 357 0 c 1xd0
 195 0 l 1
 195 373 l 1xe0
674 373 m 1xc8
 1037 373 l 1
 1037 51 l 2xc8
 1037 -162 889 -243 725 -291 c 1
 675 -183 l 1
 764 -151 836 -117 836 0 c 1xc4
 674 0 l 1
 674 373 l 1xc8
EndSplineSet
EndChar

StartChar: dagger
Encoding: 8224 8224 282
Width: 835
GlyphClass: 2
Flags: W
HStem: 0 21G<448 638> 1020 141<112 447 640 966>
VStem: 448 190<0 1020 1161 1468>
LayerCount: 2
Fore
SplineSet
448 1020 m 1
 112 1020 l 1
 112 1161 l 1
 447 1161 l 1
 447 1468 l 1
 640 1468 l 1
 640 1161 l 1
 966 1161 l 1
 966 1020 l 1
 638 1020 l 1
 638 0 l 1
 448 0 l 1
 448 1020 l 1
EndSplineSet
EndChar

StartChar: daggerdbl
Encoding: 8225 8225 283
Width: 902
GlyphClass: 2
Flags: W
HStem: 0 21G<537 728> 305 139<202 537 728 1054> 1020 141<202 537 730 1056>
VStem: 537 191<0 305 444 1020 1161 1468>
LayerCount: 2
Fore
SplineSet
202 444 m 1
 537 444 l 1
 537 1020 l 1
 202 1020 l 1
 202 1161 l 1
 537 1161 l 1
 537 1468 l 1
 730 1468 l 1
 730 1161 l 1
 1056 1161 l 1
 1056 1020 l 1
 728 1020 l 1
 728 444 l 1
 1054 444 l 1
 1054 305 l 1
 728 305 l 1
 728 0 l 1
 537 0 l 1
 537 305 l 1
 202 305 l 1
 202 444 l 1
EndSplineSet
EndChar

StartChar: bullet
Encoding: 8226 8226 284
Width: 1296
GlyphClass: 2
Flags: W
HStem: 339 717<451.718 818.189>
VStem: 254 763<528.612 865.16>
LayerCount: 2
Fore
SplineSet
1017 697 m 0
 1017 487 847 339 637 339 c 256
 425 339 254 485 254 697 c 0
 254 906 423 1056 632 1056 c 0
 844 1056 1017 909 1017 697 c 0
EndSplineSet
EndChar

StartChar: ellipsis
Encoding: 8230 8230 285
Width: 1655
GlyphClass: 2
Flags: W
HStem: 0 357<182.78 388.73 728.453 932.73 1276.78 1482.73>
VStem: 114 345<74.4634 278.691> 658 345<74.0323 278.691> 1208 345<74.4634 278.691>
LayerCount: 2
Fore
SplineSet
1328 0 m 1
 1257 41 1208 126 1208 237 c 1
 1244 306 1327 357 1432 357 c 1
 1501 315 1553 230 1553 120 c 1
 1517 50 1433 0 1328 0 c 1
777 0 m 1
 706 41 658 126 658 237 c 1
 694 306 777 357 882 357 c 1
 951 315 1003 230 1003 120 c 1
 967 50 882 0 777 0 c 1
234 0 m 1
 163 41 114 126 114 237 c 1
 150 306 233 357 338 357 c 1
 407 315 459 230 459 120 c 1
 423 50 339 0 234 0 c 1
EndSplineSet
EndChar

StartChar: guilsinglleft
Encoding: 8249 8249 287
Width: 1045
GlyphClass: 2
Flags: W
LayerCount: 2
Fore
SplineSet
114 706 m 1
 876 1177 l 1
 876 908 l 1
 360 598 l 1
 876 286 l 1
 876 17 l 1
 114 486 l 1
 114 706 l 1
EndSplineSet
EndChar

StartChar: guilsinglright
Encoding: 8250 8250 288
Width: 1009
GlyphClass: 2
Flags: W
LayerCount: 2
Fore
SplineSet
151 17 m 1
 151 286 l 1
 661 598 l 1
 150 908 l 1
 150 1177 l 1
 913 706 l 1
 913 486 l 1
 151 17 l 1
EndSplineSet
EndChar

StartChar: Euro
Encoding: 8364 8364 289
Width: 1259
GlyphClass: 2
Flags: W
HStem: -36.9312 226.606<653.931 993.963> 572 165<61 187 467 824> 844 165<49 191 494 887> 1346 225<671.739 1058.81>
VStem: 193 274<406.492 572 737 844> 214 280<1009 1136.11>
LayerCount: 2
Fore
SplineSet
827.830966706 -36.9311575477 m 0xf8
 423.003484684 -36.9311575477 225.364680354 195.760590889 193 572 c 1xf8
 61 572 l 1
 61 737 l 1
 187 737 l 1
 188 777 188 810 191 844 c 1
 49 844 l 1
 49 1009 l 1
 214 1009 l 1
 279 1320 462 1571 834 1571 c 0
 985 1571 1114 1531 1201 1469 c 1
 1132 1261 l 1
 1064 1313 943 1346 825 1346 c 0
 630 1346 536 1188 494 1009 c 1xf4
 887 1009 l 1
 887 844 l 1
 464 844 l 1
 461 811 461 774 460 737 c 1
 824 737 l 1
 824 572 l 1
 467 572 l 1
 491.054680751 338.325958421 627.056101785 189.674757564 811.700537457 189.674757564 c 0
 895.717129361 189.674757564 989.804850164 220.451744062 1088 288 c 1
 1149 74 l 1
 1070.55364938 -4.44635061907 951.648193401 -36.9311575477 827.830966706 -36.9311575477 c 0xf8
EndSplineSet
EndChar

StartChar: uni20AD
Encoding: 8365 8365 290
Width: 1125
GlyphClass: 2
Flags: W
HStem: 0 21G<225 384 827.808 1032> 562 116<93 225 577 996>
VStem: 225 159<0 562 682 1060>
LayerCount: 2
Fore
SplineSet
384 682 m 1
 822 1060 l 1
 1028 1060 l 1
 577 678 l 1
 996 678 l 1
 996 562 l 1
 573 562 l 1
 1032 0 l 1
 844 0 l 1
 389 562 l 1
 384 562 l 1
 384 0 l 1
 225 0 l 1
 225 562 l 1
 93 562 l 1
 93 678 l 1
 225 678 l 1
 225 1060 l 1
 384 1060 l 1
 384 682 l 1
EndSplineSet
EndChar

StartChar: trademark
Encoding: 8482 8482 291
Width: 1945
GlyphClass: 2
Flags: W
HStem: 1346 141<85 331 530 771>
VStem: 331 199<550 1346> 879 172<550 1243> 1695 172<550 1243>
LayerCount: 2
Fore
SplineSet
1051 1243 m 1
 1051 550 l 1
 879 550 l 1
 879 1487 l 1
 1142 1487 l 1
 1370 764 l 1
 1604 1487 l 1
 1867 1487 l 1
 1867 550 l 1
 1695 550 l 1
 1695 1243 l 1
 1477 550 l 1
 1270 550 l 1
 1051 1243 l 1
530 1346 m 1
 530 550 l 1
 331 550 l 1
 331 1346 l 1
 85 1346 l 1
 85 1487 l 1
 771 1487 l 1
 771 1346 l 1
 530 1346 l 1
EndSplineSet
EndChar

StartChar: uni25CC
Encoding: 9676 9676 292
Width: 1170
GlyphClass: 2
Flags: W
HStem: 1 83<493 677> 904 83<493 677>
VStem: 493 184<1 84 904 987>
LayerCount: 2
Fore
SplineSet
800 947 m 1
 949 839 l 1
 900 771 l 1
 752 880 l 1
 800 947 l 1
270 216 m 1
 418 108 l 1
 370 41 l 1
 221 149 l 1
 270 216 l 1
1026 734 m 1
 1082 559 l 1
 1003 533 l 1
 946 708 l 1
 1026 734 l 1
167 455 m 1
 224 280 l 1
 144 254 l 1
 88 429 l 1
 167 455 l 1
1082 429 m 1
 1026 254 l 1
 946 280 l 1
 1003 455 l 1
 1082 429 l 1
224 708 m 1
 167 533 l 1
 88 559 l 1
 144 734 l 1
 224 708 l 1
949 149 m 1
 800 41 l 1
 752 108 l 1
 900 216 l 1
 949 149 l 1
418 880 m 1
 270 771 l 1
 221 839 l 1
 370 947 l 1
 418 880 l 1
677 1 m 1
 493 1 l 1
 493 84 l 1
 677 84 l 1
 677 1 l 1
677 904 m 1
 493 904 l 1
 493 987 l 1
 677 987 l 1
 677 904 l 1
EndSplineSet
EndChar

StartChar: uniFB00
Encoding: 64256 64256 294
Width: 1632
GlyphClass: 2
Flags: W
HStem: 0 21G<239 532 988 1280> 1053 132<20 239 532 988 1281 1593> 1453 208<686.688 841.723 1435.69 1590.72> 1494 217<577.092 840.62 1325.94 1589.62>
VStem: 239 293<0 1053 1185 1447.02> 988 292<0 1053 1185 1447.02>
LayerCount: 2
Fore
SplineSet
1589 1453 m 1xec
 1542 1471 1486 1494 1424 1494 c 0
 1283.76315789 1494 1280.99532548 1349.15010388 1280.99532548 1203.01340848 c 0
 1280.99532548 1197.00779086 1281 1191 1281 1185 c 1
 1593 1185 l 1
 1593 1053 l 1
 1280 1053 l 1
 1280 0 l 1
 988 0 l 1
 988 1053 l 1
 532 1053 l 1
 532 0 l 1
 239 0 l 1
 239 1053 l 1
 20 1053 l 1
 20 1185 l 1
 239 1185 l 1
 239 1501 325 1711 617 1711 c 0xdc
 716 1711 788 1678 865 1661 c 1
 840 1453 l 1xec
 793 1471 737 1494 676 1494 c 0
 534.764705882 1494 531.99538639 1349.99538639 531.99538639 1203.00425176 c 0
 531.99538639 1197.00461361 532 1191 532 1185 c 1
 988 1185 l 1
 988 1501 1074 1711 1366 1711 c 0xdc
 1465 1711 1537 1678 1614 1661 c 1
 1589 1453 l 1xec
EndSplineSet
EndChar

StartChar: uniFB01
Encoding: 64257 64257 295
Width: 1488
GlyphClass: 2
Flags: W
HStem: 0 21G<239 532 1013 1302> 1053 132<20 239 532 1013> 1412 332<1043.62 1273.34> 1494 217<578.939 837.677>
VStem: 239 293<0 1053 1185 1448.35> 995 328<1461.8 1693.81> 1013 289<0 1053>
LayerCount: 2
Fore
SplineSet
1158 1412 m 0xec
 1062 1412 995 1482 995 1578 c 256
 995 1673 1063 1744 1158 1744 c 0
 1253 1744 1323 1673 1323 1578 c 0
 1323 1482 1254 1412 1158 1412 c 0xec
673 1494 m 0xda
 549 1494 532 1374 532 1244 c 2
 532 1185 l 1
 1302 1185 l 1
 1302 0 l 1
 1013 0 l 1
 1013 1053 l 1
 532 1053 l 1
 532 0 l 1
 239 0 l 1
 239 1053 l 1
 20 1053 l 1
 20 1185 l 1
 239 1185 l 1
 239 1504 330 1711 624 1711 c 0
 720 1711 789 1677 864 1660 c 1
 838 1452 l 1
 791 1470 736 1494 673 1494 c 0xda
EndSplineSet
EndChar

StartChar: uniFB02
Encoding: 64258 64258 296
Width: 1411
GlyphClass: 2
Flags: W
HStem: 0 21G<239 532 953 1246> 1053 132<20 239 532 844> 1509 202<551.09 931.387>
VStem: 239 293<0 1053 1185 1469.56> 953 293<0 1468.55>
LayerCount: 2
Fore
SplineSet
528 1389 m 0
 528 1350 532 1309 532 1265 c 2
 532 1185 l 1
 844 1185 l 1
 844 1053 l 1
 532 1053 l 1
 532 0 l 1
 239 0 l 1
 239 1053 l 1
 20 1053 l 1
 20 1185 l 1
 239 1185 l 1
 239 1552 381 1711 750 1711 c 0
 1147 1711 1246 1531 1246 1136 c 2
 1246 0 l 1
 953 0 l 1
 953 1207 l 2
 953 1258 957 1314 957 1363 c 0
 957 1502 892 1509 750 1509 c 0
 626 1509 528 1508 528 1389 c 0
EndSplineSet
EndChar

StartChar: uniFB03
Encoding: 64259 64259 297
Width: 2253
GlyphClass: 2
Flags: W
HStem: 0 21G<239 532 1002 1294 1779 2068> 1053 132<20 239 532 1002 1295 1779> 1412 332<1809.62 2039.72> 1453 208<686.688 841.723 1449.69 1604.72> 1494 217<577.092 840.62 1340.09 1603.62>
VStem: 239 293<0 1053 1185 1447.46> 1002 292<0 1053 1185 1447.46> 1761 328<1461.8 1693.81> 1779 289<0 1053>
LayerCount: 2
Fore
SplineSet
1924 1412 m 0xe7
 1828 1412 1761 1482 1761 1578 c 256
 1761 1673 1829 1744 1924 1744 c 256
 2020 1744 2089 1674 2089 1578 c 0
 2089 1482 2020 1412 1924 1412 c 0xe7
1603 1453 m 1xd680
 1556 1471 1500 1494 1439 1494 c 0
 1297.76470588 1494 1294.99538639 1349.99538639 1294.99538639 1203.00425176 c 0
 1294.99538639 1197.00461361 1295 1191 1295 1185 c 1
 2068 1185 l 1
 2068 0 l 1
 1779 0 l 1
 1779 1053 l 1
 1294 1053 l 1
 1294 0 l 1
 1002 0 l 1
 1002 1053 l 1
 532 1053 l 1
 532 0 l 1
 239 0 l 1
 239 1053 l 1
 20 1053 l 1
 20 1185 l 1
 239 1185 l 1
 239 1502 325 1711 617 1711 c 0xce80
 716 1711 788 1678 865 1661 c 1
 840 1453 l 1xd680
 793 1471 737 1494 676 1494 c 0
 534.764705882 1494 531.99538639 1349.99538639 531.99538639 1203.00425176 c 0
 531.99538639 1197.00461361 532 1191 532 1185 c 1
 1002 1185 l 1
 1002 1502 1088 1711 1380 1711 c 0xce80
 1479 1711 1551 1678 1628 1661 c 1
 1603 1453 l 1xd680
EndSplineSet
EndChar

StartChar: uniFB04
Encoding: 64260 64260 298
Width: 2103
GlyphClass: 2
Flags: W
HStem: 0 21G<239 532 931 1224 1645 1939> 1053 132<20 239 532 931 1225 1512> 1494 217<577.092 819.128> 1509 202<1244 1624.11>
VStem: 239 293<0 1053 1185 1447.02> 931 293<0 1053 1185 1469.62> 1645 294<0 1477.18>
LayerCount: 2
Fore
SplineSet
931 1185 m 1xee
 931 1552 1073 1711 1442 1711 c 0
 1809 1711 1939 1561 1939 1196 c 2
 1939 0 l 1
 1645 0 l 1
 1645 1214 l 2
 1645 1266 1649 1320 1649 1369 c 0
 1649 1503 1578 1509 1442 1509 c 0xde
 1315 1509 1220 1508 1220 1385 c 0
 1220 1338 1225 1288 1225 1235 c 2
 1225 1185 l 1
 1512 1185 l 1
 1512 1053 l 1
 1224 1053 l 1
 1224 0 l 1
 931 0 l 1
 931 1053 l 1
 532 1053 l 1
 532 0 l 1
 239 0 l 1
 239 1053 l 1
 20 1053 l 1
 20 1185 l 1
 239 1185 l 1
 239 1501 325 1711 617 1711 c 0
 708 1711 775 1680 842 1661 c 1
 817 1453 l 1
 777 1470 729 1494 676 1494 c 0
 534.764705882 1494 531.99538639 1349.99538639 531.99538639 1203.00425176 c 0
 531.99538639 1197.00461361 532 1191 532 1185 c 1
 931 1185 l 1xee
EndSplineSet
EndChar

StartChar: macron
Encoding: 65574 -1 334
Width: 979
GlyphClass: 2
Flags: W
HStem: 448 124<192 783>
VStem: 192 591<448 572>
LayerCount: 2
Fore
SplineSet
192 448 m 1
 192 572 l 1
 783 572 l 1
 783 448 l 1
 192 448 l 1
EndSplineSet
EndChar

StartChar: asciicircum.001
Encoding: 65575 -1 335
Width: 1428
GlyphClass: 2
Flags: W
HStem: 432 579
VStem: 374 680
LayerCount: 2
Fore
SplineSet
666 1011 m 1
 762 1011 l 1
 1054 510 l 1
 926 432 l 1
 714 809 l 1
 502 432 l 1
 374 510 l 1
 666 1011 l 1
EndSplineSet
EndChar

StartChar: t_t
Encoding: 65576 -1 336
Width: 1740
GlyphClass: 2
Flags: W
HStem: -24 201<559.002 782.189 1360.37 1582.24> 1054 131<16 239 530 1039 1331 1666> 1647 20G<451.714 530 1252.43 1331>
VStem: 239 291<204.279 1054> 256 274<1185 1597> 1039 292<204.279 1054> 1056 275<1185 1597>
LayerCount: 2
Fore
SplineSet
1709 72 m 1xe4
 1625 19 1512 -24 1373 -24 c 0
 1100 -24 1039 182 1039 460 c 2
 1039 1054 l 1
 530 1054 l 1
 530 377 l 2
 530 264 546 177 648 177 c 0
 717 177 778 219 832 251 c 1
 909 72 l 1
 825 19 712 -24 573 -24 c 0
 300 -24 239 182 239 460 c 2
 239 1054 l 1xf4
 16 1054 l 1
 16 1185 l 1
 256 1185 l 1
 256 1597 l 1
 530 1667 l 1
 530 1185 l 1
 1056 1185 l 1
 1056 1597 l 1
 1331 1667 l 1
 1331 1185 l 1xea
 1666 1185 l 1
 1666 1054 l 1
 1331 1054 l 1
 1331 377 l 2
 1331 265 1347 177 1448 177 c 0
 1517 177 1579 219 1631 251 c 1
 1709 72 l 1xe4
EndSplineSet
EndChar

StartChar: f_j
Encoding: 65577 -1 337
Width: 1463
GlyphClass: 2
Flags: W
HStem: 0 21G<239 532> 1053 132<24 239 532 1013> 1410 332<1045.57 1270.46> 1494 217<577.092 842.935>
VStem: 239 293<0 1053 1185 1447.46> 998 322<1459.8 1692.2> 1013 294<-14.0773 1053>
LayerCount: 2
Fore
SplineSet
1159 1410 m 256xec
 1064 1410 998 1481 998 1576 c 0
 998 1672 1063 1742 1159 1742 c 256
 1254 1742 1320 1671 1320 1576 c 0
 1320 1480 1256 1410 1159 1410 c 256xec
840 1453 m 1
 796 1474 740 1494 676 1494 c 0
 534.764705882 1494 531.99538639 1349.99538639 531.99538639 1203.00425176 c 0
 531.99538639 1197.00461361 532 1191 532 1185 c 1
 1307 1185 l 1
 1307 187 l 2
 1307 -109 1136 -309 896 -364 c 1
 809 -173 l 1
 939 -95 1013 0 1013 208 c 2
 1013 1053 l 1
 532 1053 l 1
 532 0 l 1
 239 0 l 1
 239 1053 l 1
 24 1053 l 1
 24 1185 l 1
 239 1185 l 1
 239 1502 325 1711 617 1711 c 0xda
 711 1711 793 1690 865 1661 c 1
 840 1453 l 1
EndSplineSet
EndChar

StartChar: uni0ECD_uni0EB2
Encoding: 65578 -1 338
Width: 958
VWidth: 2170
GlyphClass: 2
Flags: W
HStem: 0 21G<564.972 847.972> 708 150<217.6 351.107> 1021 151<217.184 362.972> 1569 141<-434.675 -279.929> 1889 138<-435.23 -279.736>
VStem: -593.028 144<1724.95 1874.62> -267.028 145<1721.56 1875.15> 32.9717 176<866.428 1005.11> 362.972 112<864.943 995.136> 362.972 95<916.864 1013> 564.972 283<0 980.382>
LayerCount: 2
Fore
SplineSet
-357.028320312 1710 m 0xff20
 -306.028320312 1710 -267.028320312 1747 -267.028320312 1800 c 0
 -267.028320312 1851 -306.028320312 1889 -357.028320312 1889 c 0
 -409.028320312 1889 -449.028320312 1851 -449.028320312 1800 c 0
 -449.028320312 1750 -409.028320312 1710 -357.028320312 1710 c 0xff20
-122.028320312 1797 m 0
 -122.028320312 1666 -226.028320312 1569 -357.028320312 1569 c 256
 -489.028320312 1569 -593.028320312 1665 -593.028320312 1797 c 256
 -593.028320312 1929 -489.028320312 2027 -357.028320312 2027 c 0
 -225.028320312 2027 -122.028320312 1929 -122.028320312 1797 c 0
277.971679688 708 m 0
 135.971679688 708 32.9716796875 777 32.9716796875 918 c 0
 32.9716796875 1100 178.971679688 1172 377.971679688 1172 c 0
 676.971679688 1172 847.971679688 1057 847.971679688 768 c 2
 847.971679688 0 l 1
 564.971679688 0 l 1
 564.971679688 818 l 2
 564.971679688 929 544.971679688 991 457.971679688 1013 c 1xff60
 474.971679688 899 l 1xffa0
 474.971679688 772 408.971679688 708 277.971679688 708 c 0
292.971679688 858 m 0
 345.971679688 858 362.971679688 912 362.971679688 971 c 2xffa0
 362.971679688 1021 l 1
 278.971679688 1021 208.971679688 1017 208.971679688 937 c 0
 208.971679688 885 239.971679688 858 292.971679688 858 c 0
EndSplineSet
EndChar
